<svg width="260" height="140" viewBox="0 0 260 140" fill="none" xmlns="http://www.w3.org/2000/svg">
<mask id="mask0_10336_340446" style="mask-type:alpha" maskUnits="userSpaceOnUse" x="0" y="0" width="260" height="140">
<rect width="260" height="140" fill="#D9D9D9"/>
</mask>
<g mask="url(#mask0_10336_340446)">
<path fill-rule="evenodd" clip-rule="evenodd" d="M54 13C54 9.68629 56.6863 7 60 7H204C207.314 7 210 9.68629 210 13V36.7001L215.448 42.4208C215.802 42.7927 216 43.2866 216 43.8001V102V102V121.2C216 121.714 215.802 122.207 215.448 122.579L208.923 129.431C207.838 130.984 206.038 132 204 132H60C56.6863 132 54 129.314 54 126V123H47C45.8954 123 45 122.105 45 121V104C45 102.895 45.8954 102 47 102H54V56H38C36.8954 56 36 55.1046 36 54V29C36 27.8954 36.8954 27 38 27H54V13ZM70 17C70 20.3137 67.3137 23 64 23C60.6863 23 58 20.3137 58 17C58 13.6863 60.6863 11 64 11C67.3137 11 70 13.6863 70 17ZM206 53C209.314 53 212 50.3137 212 47C212 43.6863 209.314 41 206 41C202.686 41 200 43.6863 200 47C200 50.3137 202.686 53 206 53ZM212 118C212 121.314 209.314 124 206 124C202.686 124 200 121.314 200 118C200 114.686 202.686 112 206 112C209.314 112 212 114.686 212 118ZM64 128C67.3137 128 70 125.314 70 122C70 118.686 67.3137 116 64 116C60.6863 116 58 118.686 58 122C58 125.314 60.6863 128 64 128Z" fill="#00979D"/>
<path d="M179.961 71C179.961 58.315 169.249 48 156.08 48C154.86 48 153.624 48.0835 152.404 48.2671C142.176 49.7192 135.324 57.0798 131.481 62.7213C127.637 57.0798 120.785 49.7359 110.558 48.2671C109.338 48.0835 108.101 48 106.881 48C93.7122 47.9833 83 58.315 83 71C83 83.6851 93.7122 94 106.881 94C108.101 94 109.338 93.9165 110.558 93.7496C120.785 92.2808 127.637 84.9202 131.481 79.2787C135.308 84.9202 142.159 92.2808 152.404 93.7496C153.624 93.9332 154.86 94 156.08 94C169.249 94 179.961 83.6851 179.961 71ZM109.405 85.6713C108.569 85.7881 107.717 85.8549 106.881 85.8549C98.2244 85.8549 91.172 79.1785 91.172 71C91.172 62.8048 98.2244 56.1452 106.898 56.1452C107.733 56.1452 108.586 56.2119 109.421 56.3288C119.064 57.6974 124.963 67.1945 126.969 71C124.946 74.8055 119.047 84.2859 109.405 85.6713ZM136.026 71C138.032 67.1945 143.931 57.6974 153.574 56.3288C154.409 56.2119 155.261 56.1452 156.097 56.1452C164.77 56.1452 171.806 62.8215 171.806 71C171.806 79.1785 164.754 85.8549 156.097 85.8549C155.261 85.8549 154.409 85.7881 153.574 85.6713C143.914 84.2859 138.015 74.7888 136.026 71Z" fill="white"/>
<path d="M114.651 68.7468H100.312V73.3702H114.651V68.7468Z" fill="white"/>
<path d="M157.668 73.3539H162.514V68.7472H157.668V63.8901H153.039V68.7472H148.176V73.3539H153.039V78.2109H157.668V73.3539Z" fill="white"/>
</g>
</svg>
