<svg xmlns="http://www.w3.org/2000/svg" fill="none" viewBox="0 0 428 175">
   <rect x="54.386" width="315.798" height="156.182" rx="10.298" fill="#7f8c8d" y="9.409"/>
   <path d="M370.184 36.871h10.298v101.261h-10.298zM47.519 62.613h6.865v49.772h-6.865z" fill="#7f8c8d"/>
   <circle cx="68.975" cy="151.004" r="9.44" fill="#fff"/>
   <circle cx="68.975" cy="23.999" r="9.44" fill="#fff"/>
   <circle cx="355.595" cy="151.004" r="9.44" fill="#fff"/>
   <circle cx="355.595" cy="23.999" r="9.44" fill="#fff"/>
   <path d="M177.886 90.244h-21.038v15.76h24.591v7.107h-33.491V61.89h33.245v7.177h-24.345v14.142h21.038zm42.376 9.675c0-2.252-.797-3.987-2.392-5.207-1.572-1.22-4.421-2.451-8.549-3.694-4.128-1.243-7.411-2.627-9.85-4.151-4.668-2.932-7.002-6.755-7.002-11.47 0-4.127 1.678-7.527 5.031-10.201 3.378-2.674 7.752-4.01 13.122-4.01 3.565 0 6.744.656 9.534 1.97 2.791 1.313 4.984 3.189 6.579 5.628 1.595 2.416 2.392 5.101 2.392 8.056h-8.865c0-2.673-.844-4.76-2.533-6.262-1.665-1.524-4.057-2.286-7.177-2.286-2.908 0-5.171.621-6.79 1.864-1.594 1.243-2.392 2.979-2.392 5.207 0 1.876.868 3.447 2.604 4.714 1.735 1.243 4.596 2.463 8.583 3.659 3.988 1.172 7.189 2.52 9.605 4.045 2.415 1.501 4.186 3.237 5.312 5.207 1.126 1.947 1.689 4.234 1.689 6.86 0 4.269-1.642 7.67-4.926 10.203-3.26 2.51-7.692 3.764-13.298 3.764-3.705 0-7.118-.68-10.237-2.04-3.096-1.384-5.512-3.284-7.247-5.7-1.713-2.416-2.568-5.23-2.568-8.443h8.9c0 2.908.962 5.16 2.885 6.755 1.923 1.594 4.679 2.392 8.267 2.392 3.096 0 5.418-.622 6.966-1.865 1.571-1.266 2.357-2.931 2.357-4.995zm30.414-5.84v19.032h-8.9V61.89h19.595c5.723 0 10.26 1.49 13.616 4.468 3.377 2.978 5.065 6.919 5.065 11.82 0 5.02-1.655 8.924-4.962 11.715-3.283 2.791-7.89 4.187-13.824 4.187zm0-7.142h10.695c3.166 0 5.582-.739 7.247-2.216 1.665-1.501 2.498-3.66 2.498-6.473 0-2.768-.844-4.972-2.533-6.614-1.689-1.665-4.01-2.521-6.966-2.568h-10.94z" fill="#fff"/>
</svg>