<svg width="32" height="32" viewBox="0 0 32 32" fill="none" xmlns="http://www.w3.org/2000/svg">
<path d="M27 11.9999C25.1413 11.9999 23.5891 13.2795 23.1419 14.9999H19.858C19.6732 14.2888 19.3089 13.6503 18.8 13.1502L20.4297 10.3273C20.7762 10.4242 21.1328 10.4755 21.4922 10.4755C21.8398 10.4755 22.1904 10.4296 22.5351 10.3369C23.5674 10.0605 24.4297 9.39837 24.9638 8.47357C25.498 7.54877 25.6406 6.47064 25.3633 5.43841C25.0869 4.40618 24.4248 3.54388 23.5 3.0097C22.5752 2.4765 21.498 2.33294 20.4648 2.61029C19.4326 2.88666 18.5703 3.54877 18.0361 4.47357C17.5019 5.39837 17.3594 6.4765 17.6367 7.50873C17.8242 8.20893 18.2004 8.8205 18.7043 9.31513L17.0615 12.1611C16.7212 12.0666 16.3699 11.9999 16 11.9999C15.6301 11.9999 15.2788 12.0666 14.9385 12.1611L13.2956 9.31513C13.7996 8.8205 14.1758 8.20893 14.3633 7.50873C14.6406 6.4765 14.498 5.39838 13.9639 4.47357C13.4297 3.54876 12.5674 2.88666 11.5352 2.61029C10.5039 2.33197 9.42578 2.47552 8.5 3.0097C7.5752 3.54388 6.91309 4.40618 6.63672 5.43841C6.35938 6.47064 6.50195 7.54876 7.03613 8.47357C7.57031 9.39838 8.43261 10.0605 9.46484 10.3369C9.80957 10.4296 10.1592 10.4755 10.5078 10.4755C10.8672 10.4755 11.2237 10.4242 11.5703 10.3273L13.2 13.1502C12.691 13.6503 12.3268 14.2888 12.142 14.9999H8.85803C8.41089 13.2795 6.85864 11.9999 5 11.9999C2.79395 11.9999 1 13.7939 1 15.9999C1 18.206 2.79395 19.9999 5 19.9999C6.85864 19.9999 8.41089 18.7204 8.85803 16.9999H12.142C12.3268 17.7111 12.691 18.3497 13.2 18.8498L11.5632 21.6847C10.8828 21.4958 10.1643 21.4755 9.46484 21.663C8.43261 21.9394 7.57031 22.6015 7.03613 23.5263C6.50195 24.4511 6.35937 25.5292 6.63672 26.5615C6.91309 27.5937 7.57422 28.456 8.5 28.9902C9.11621 29.3456 9.7998 29.5283 10.4932 29.5283C10.8408 29.5283 11.1904 29.4824 11.5351 29.3896C12.5674 29.1132 13.4297 28.4511 13.9639 27.5263C14.498 26.6015 14.6406 25.5234 14.3633 24.4911C14.1758 23.791 13.7996 23.1794 13.2955 22.6847L14.9385 19.8388C15.2788 19.9333 15.6301 19.9999 16 19.9999C16.3699 19.9999 16.7212 19.9333 17.0615 19.8388L18.7044 22.6847C18.2004 23.1794 17.8242 23.791 17.6367 24.4911C17.3593 25.5234 17.5019 26.6015 18.0361 27.5263C18.5703 28.4511 19.4326 29.1132 20.4648 29.3896C20.8095 29.4824 21.1592 29.5283 21.5068 29.5283C22.2002 29.5283 22.8838 29.3456 23.5 28.9902C24.4257 28.456 25.0869 27.5937 25.3632 26.5615C25.6406 25.5292 25.498 24.4511 24.9638 23.5263C24.4296 22.6015 23.5673 21.9394 22.5351 21.663C21.8347 21.4742 21.1169 21.4944 20.4364 21.684L18.8 18.8498C19.3089 18.3497 19.6732 17.7111 19.858 16.9999H23.1419C23.5891 18.7204 25.1413 19.9999 27 19.9999C29.206 19.9999 31 18.206 31 15.9999C31 13.7939 29.206 11.9999 27 11.9999ZM19.7685 5.47357C20.0351 5.01068 20.4668 4.67962 20.9824 4.54193C21.5 4.40423 22.0371 4.47357 22.5 4.74213C22.9629 5.00873 23.2939 5.44037 23.4316 5.956C23.5703 6.4726 23.499 7.01069 23.2314 7.47358C22.6797 8.42963 21.455 8.75678 20.5 8.206C20.0371 7.93842 19.706 7.50678 19.5683 6.99116C19.4297 6.47554 19.501 5.93646 19.7685 5.47357ZM8.76853 7.47357C8.50095 7.01068 8.42966 6.47259 8.56833 5.95599C8.70603 5.44037 9.03708 5.00872 9.49997 4.74212C9.80856 4.56341 10.1504 4.47259 10.497 4.47259C10.6699 4.47259 10.8447 4.49603 11.0175 4.54193C11.5332 4.67963 11.9648 5.01068 12.2314 5.47357C12.499 5.93646 12.5703 6.47552 12.4316 6.99115C12.2939 7.50677 11.9629 7.93842 11.5 8.20599C10.5439 8.75677 9.32029 8.42767 8.76853 7.47357ZM12.2314 26.5263C11.9648 26.9892 11.5332 27.3202 11.0175 27.4579C10.497 27.5956 9.96189 27.5253 9.49997 27.2577C9.03708 26.9911 8.70602 26.5595 8.56833 26.0439C8.42966 25.5273 8.50095 24.9892 8.76853 24.5263C9.13865 23.8847 9.81248 23.5263 10.5039 23.5263C10.8427 23.5263 11.1855 23.6122 11.5 23.7939C11.9629 24.0605 12.2939 24.4921 12.4316 25.0087C12.5703 25.5243 12.499 26.0634 12.2314 26.5263ZM23.2314 24.5263C23.499 24.9892 23.5703 25.5273 23.4316 26.0439C23.2939 26.5595 22.9629 26.9911 22.5 27.2577C22.0371 27.5253 21.5019 27.5966 20.9824 27.4579C20.4668 27.3202 20.0351 26.9892 19.7685 26.5263C19.501 26.0634 19.4297 25.5244 19.5683 25.0087C19.706 24.4921 20.0371 24.0605 20.5 23.7939C20.8134 23.6122 21.1572 23.5263 21.4961 23.5263C22.1875 23.5263 22.8613 23.8857 23.2314 24.5263ZM4.99997 17.9999C3.89743 17.9999 2.99997 17.1025 2.99997 15.9999C2.99997 14.8974 3.89743 13.9999 4.99997 13.9999C6.10251 13.9999 6.99997 14.8974 6.99997 15.9999C6.99997 17.1025 6.10251 17.9999 4.99997 17.9999ZM14 15.9999C14 14.8974 14.8974 13.9999 16 13.9999C17.1025 13.9999 18 14.8974 18 15.9999C18 17.1025 17.1025 17.9999 16 17.9999C14.8974 17.9999 14 17.1025 14 15.9999ZM27 17.9999C25.8974 17.9999 25 17.1025 25 15.9999C25 14.8974 25.8974 13.9999 27 13.9999C28.1025 13.9999 29 14.8974 29 15.9999C29 17.1025 28.1025 17.9999 27 17.9999Z" fill="black"/>
</svg>
