<svg width="16" height="16" viewBox="0 0 16 16" fill="none" xmlns="http://www.w3.org/2000/svg">
<path d="M8 3.50195C9.41865 3.50201 10.8087 3.90405 12.0078 4.66211C13.2069 5.42021 14.1659 6.50362 14.7744 7.78516C14.8064 7.85227 14.8232 7.92567 14.8232 8C14.8232 8.07433 14.8064 8.14774 14.7744 8.21484C14.1633 9.49454 13.2034 10.5759 12.0049 11.334C10.8064 12.092 9.41809 12.4962 8 12.5C6.5818 12.4962 5.19273 12.0921 3.99414 11.334C2.79567 10.5759 1.83573 9.49451 1.22461 8.21484C1.19265 8.14774 1.17581 8.07432 1.17578 8C1.17578 7.92573 1.19272 7.85223 1.22461 7.78516C1.83317 6.50355 2.79297 5.42022 3.99219 4.66211C5.19136 3.90408 6.58133 3.50195 8 3.50195ZM8 4.50195C6.8111 4.50195 5.64439 4.82864 4.62793 5.44531C3.61162 6.06198 2.78349 6.94565 2.23438 8C2.78352 9.0544 3.61154 9.93802 4.62793 10.5547C5.64439 11.1714 6.8111 11.4971 8 11.4971C9.18876 11.497 10.3547 11.1713 11.3711 10.5547C12.3875 9.93805 13.2155 9.05439 13.7646 8C13.2155 6.94555 12.3875 6.06199 11.3711 5.44531C10.3547 4.82869 9.1888 4.50201 8 4.50195ZM7.51172 5.54785C7.9966 5.4514 8.49929 5.50128 8.95605 5.69043C9.41287 5.87965 9.80342 6.20021 10.0781 6.61133C10.3527 7.02241 10.5 7.50563 10.5 8C10.4999 8.66295 10.2363 9.29879 9.76758 9.76758C9.29881 10.2364 8.66294 10.4999 8 10.5C7.50555 10.5 7.02147 10.3528 6.61035 10.0781C6.19945 9.80344 5.87958 9.4127 5.69043 8.95605C5.50129 8.4993 5.4514 7.99659 5.54785 7.51172C5.64436 7.0269 5.88287 6.58197 6.23242 6.23242C6.58198 5.88287 7.02689 5.64434 7.51172 5.54785ZM8 6.5C7.70333 6.5 7.41269 6.58811 7.16602 6.75293C6.91957 6.91772 6.72773 7.15189 6.61426 7.42578C6.50079 7.69973 6.47056 8.00116 6.52832 8.29199C6.5862 8.58296 6.72967 8.85077 6.93945 9.06055C7.14917 9.27017 7.41621 9.41284 7.70703 9.4707C7.998 9.52858 8.30013 9.49927 8.57422 9.38574C8.84815 9.27219 9.08232 9.07957 9.24707 8.83301C9.41178 8.58643 9.49996 8.29653 9.5 8C9.5 7.60229 9.34169 7.22073 9.06055 6.93945C8.77931 6.65822 8.39772 6.50008 8 6.5Z" fill="white"/>
</svg>
