<svg width="16" height="16" viewBox="0 0 16 16" fill="none" xmlns="http://www.w3.org/2000/svg">
<path d="M13 2.49707C13.0659 2.49711 13.1315 2.50981 13.1924 2.53516C13.2531 2.56048 13.3081 2.59787 13.3545 2.64453C13.4013 2.69098 13.4385 2.74674 13.4639 2.80762C13.4893 2.86855 13.5029 2.93399 13.5029 3C13.5029 3.06599 13.4892 3.13147 13.4639 3.19238C13.4385 3.25317 13.4012 3.30809 13.3545 3.35449L3.35449 13.3545C3.30805 13.4013 3.25325 13.4395 3.19238 13.4648C3.13154 13.4902 3.06591 13.5029 3 13.5029C2.93411 13.5029 2.86845 13.4901 2.80762 13.4648C2.74669 13.4395 2.69101 13.4014 2.64453 13.3545C2.59784 13.3081 2.56048 13.2531 2.53516 13.1924C2.50978 13.1315 2.49708 13.066 2.49707 13C2.49707 12.934 2.50977 12.8685 2.53516 12.8076C2.56054 12.7467 2.59767 12.691 2.64453 12.6445L4 11.3145C2.79938 10.5656 1.83644 9.49074 1.22461 8.21484C1.19267 8.14773 1.17579 8.07432 1.17578 8C1.17578 7.92569 1.19269 7.85226 1.22461 7.78516C1.83571 6.50552 2.79572 5.42408 3.99414 4.66602C5.19273 3.90794 6.5818 3.50375 8 3.5C9.0723 3.49973 10.1318 3.73317 11.1045 4.18457L12.6445 2.64453C12.691 2.59772 12.7467 2.56052 12.8076 2.53516C12.8685 2.50985 12.9341 2.49707 13 2.49707ZM12.8896 5.32031C13.685 5.9996 14.3273 6.83964 14.7744 7.78516C14.8064 7.85229 14.8232 7.92564 14.8232 8C14.8232 8.07436 14.8064 8.14771 14.7744 8.21484C14.1633 9.49457 13.2035 10.5759 12.0049 11.334C10.8064 12.092 9.4181 12.4962 8 12.5C7.32364 12.5 6.65035 12.4055 6 12.2197L6.8252 11.3848C7.21173 11.4633 7.60557 11.5021 8 11.5C9.18817 11.4959 10.3525 11.1674 11.3682 10.5508C12.3839 9.93409 13.2128 9.05239 13.7646 8C13.3724 7.24467 12.8335 6.57517 12.1797 6.03027L12.8896 5.32031ZM8 4.5C6.81165 4.50409 5.64666 4.83251 4.63086 5.44922C3.61513 6.06592 2.78624 6.94763 2.23438 8C2.79777 9.07679 3.65256 9.97392 4.7002 10.5898L5.91504 9.375C5.64246 8.96843 5.49788 8.48948 5.5 8C5.5 7.33696 5.76358 6.70126 6.23242 6.23242C6.70125 5.76365 7.33701 5.5 8 5.5C8.4894 5.49792 8.9685 5.6425 9.375 5.91504L10.3447 4.94531C9.59804 4.65105 8.80258 4.49977 8 4.5ZM10.5 7.72461C10.5051 7.8162 10.5051 7.9084 10.5 8C10.5 8.66297 10.2363 9.29876 9.76758 9.76758C9.29881 10.2364 8.66294 10.4999 8 10.5C7.9084 10.5051 7.8162 10.5051 7.72461 10.5L10.5 7.72461ZM8 6.5C7.60223 6.5 7.22075 6.65822 6.93945 6.93945C6.65815 7.22076 6.5 7.60218 6.5 8C6.50124 8.22277 6.55036 8.44264 6.64453 8.64453L8.64453 6.64453C8.44268 6.55036 8.22273 6.50127 8 6.5Z" fill="white"/>
</svg>
