<svg width="32" height="32" viewBox="0 0 32 32" fill="none" xmlns="http://www.w3.org/2000/svg">
<path d="M30.9999 17.9451C31.0099 19.7517 30.2936 21.4871 28.9707 22.8251C27.598 24.2019 25.6982 25 23.7685 25C20.6054 25 17.9297 23.2733 15.8011 19.8715L14.3489 17.1168C13.2049 15.2712 11.1857 13.0056 8.18178 13.0661C5.37676 13.1255 3.16852 15.281 3.14867 17.9655C3.13871 19.1826 3.64601 20.3704 4.56111 21.2981C5.52593 22.2755 6.86879 22.8445 8.23151 22.8445H14.7766C15.3634 23.6026 16.0597 24.3413 16.8455 25H8.23152C6.30182 25 4.402 24.2019 3.02933 22.825C1.70638 21.4871 0.990173 19.7517 1.00013 17.9451C1.02004 14.0834 4.15333 11.0002 8.13208 10.9106C11.2653 10.8307 14.14 12.6665 16.2089 16.0498L17.6611 18.7831C19.3521 21.4979 21.3614 22.8445 23.7685 22.8445C25.1312 22.8445 26.4741 22.2755 27.4389 21.2981C28.354 20.3704 28.8613 19.1826 28.8514 17.9655C28.8315 15.2809 26.6233 13.1255 23.8183 13.0661H23.7387C23.0026 13.0563 22.2964 13.1957 21.62 13.4646C21.5504 12.7464 21.3415 12.038 21.0132 11.39C20.7248 10.8005 20.3368 10.2616 19.8694 9.79293C18.8051 8.73566 17.4523 8.15685 16.0398 8.15685H16.01C14.7666 8.16659 13.6128 8.5856 12.6777 9.31448C11.9218 8.96466 11.136 8.70546 10.3303 8.55539C11.7626 6.969 13.7819 6.01113 15.9901 6.00139C17.9794 5.96144 19.9091 6.78971 21.3813 8.26598C22.1472 9.03481 22.7539 9.94299 23.1717 10.9311C23.4005 10.9106 23.6392 10.9009 23.868 10.9106C27.8368 11.0003 30.98 14.0834 30.9999 17.9451Z" fill="black"/>
</svg>
