<svg width="376" height="421" viewBox="0 0 376 421" fill="none" xmlns="http://www.w3.org/2000/svg">
  <line x1="51.8762" y1="15.7881" x2="51.8762" y2="420.445" stroke="url(#paint0_linear_1057_1893)"
    stroke-width="0.439898" />
  <line x1="87.9465" y1="15.7881" x2="87.9465" y2="420.445" stroke="url(#paint1_linear_1057_1893)"
    stroke-width="0.439898" />
  <line x1="124.021" y1="15.7881" x2="124.021" y2="420.445" stroke="url(#paint2_linear_1057_1893)"
    stroke-width="0.439898" />
  <line x1="160.091" y1="15.7881" x2="160.091" y2="420.445" stroke="url(#paint3_linear_1057_1893)"
    stroke-width="0.439898" />
  <line x1="196.165" y1="15.7881" x2="196.165" y2="420.445" stroke="url(#paint4_linear_1057_1893)"
    stroke-width="0.439898" />
  <line x1="232.238" y1="15.7881" x2="232.238" y2="420.445" stroke="url(#paint5_linear_1057_1893)"
    stroke-width="0.439898" />
  <line x1="268.308" y1="15.7881" x2="268.308" y2="420.445" stroke="url(#paint6_linear_1057_1893)"
    stroke-width="0.439898" />
  <line x1="304.382" y1="15.7881" x2="304.382" y2="420.445" stroke="url(#paint7_linear_1057_1893)"
    stroke-width="0.439898" />
  <line x1="340.452" y1="15.7881" x2="340.452" y2="420.445" stroke="url(#paint8_linear_1057_1893)"
    stroke-width="0.439898" />
  <line x1="12" y1="41.2351" x2="356" y2="41.2351" stroke="url(#paint9_linear_1057_1893)" stroke-width="0.439898" />
  <line x1="12" y1="91.3025" x2="356" y2="91.3025" stroke="url(#paint10_linear_1057_1893)" stroke-width="0.439898" />
  <line x1="12" y1="141.369" x2="356" y2="141.369" stroke="url(#paint11_linear_1057_1893)" stroke-width="0.439898" />
  <line x1="12" y1="191.436" x2="356" y2="191.436" stroke="url(#paint12_linear_1057_1893)" stroke-width="0.439898" />
  <line x1="12" y1="241.504" x2="356" y2="241.504" stroke="url(#paint13_linear_1057_1893)" stroke-width="0.439898" />
  <line x1="12" y1="291.571" x2="356" y2="291.571" stroke="url(#paint14_linear_1057_1893)" stroke-width="0.439898" />
  <line x1="12" y1="341.638" x2="356" y2="341.638" stroke="url(#paint15_linear_1057_1893)" stroke-width="0.439898" />
  <line x1="12" y1="391.706" x2="356" y2="391.706" stroke="url(#paint16_linear_1057_1893)" stroke-width="0.439898" />
  <g filter="url(#filter0_f_1057_1893)">
    <ellipse cx="251.305" cy="289.575" rx="58.1642" ry="57.7488" fill="#74C8D8" fill-opacity="0.3" />
  </g>
  <g filter="url(#filter1_f_1057_1893)">
    <circle cx="205.605" cy="170.338" r="70.628" fill="#7A82EF" fill-opacity="0.21" />
  </g>
  <g filter="url(#filter2_f_1057_1893)">
    <rect x="58.5312" y="81.4307" width="226.841" height="226.841" rx="113.42" fill="#283B41" />
  </g>
  <path
    d="M189.522 232.818L287.28 289.259C292.872 292.488 292.872 297.722 287.28 300.951L197.901 352.554C192.309 355.782 183.243 355.782 177.651 352.554L79.8924 296.113C74.3008 292.884 74.3007 287.65 79.8924 284.421L169.271 232.818C174.863 229.59 183.93 229.59 189.522 232.818Z"
    fill="#255355" stroke="#2DF3EF" stroke-width="2.41888" />
  <path
    d="M189.849 232.629L287.607 289.07C293.38 292.403 293.38 297.807 287.607 301.14L198.228 352.743C192.456 356.076 183.097 356.075 177.324 352.743L79.5651 296.302C73.7925 292.969 73.7923 287.565 79.5651 284.232L168.944 232.629C174.717 229.297 184.076 229.297 189.849 232.629Z"
    fill="#255355" stroke="url(#paint17_linear_1057_1893)" stroke-width="1.66184" />
  <rect width="112.881" height="6.45036" transform="matrix(0.866025 0.5 0 1 78.8457 296.718)" fill="#255355" />
  <rect width="103.206" height="6.45036" transform="matrix(0.866025 -0.5 0 1 198.949 353.158)" fill="#1B494B" />
  <path
    d="M74.2168 290.267C74.2168 292.786 75.9853 295.066 78.8445 296.717V303.167C75.9853 301.517 74.2168 299.236 74.2168 296.717V290.267Z"
    fill="#255355" />
  <path
    d="M176.605 353.158C182.776 356.721 192.78 356.721 198.95 353.158V359.609C192.78 363.171 182.776 363.171 176.605 359.609V353.158Z"
    fill="url(#paint18_linear_1057_1893)" />
  <path
    d="M292.956 295.104C292.956 297.624 291.187 299.904 288.328 301.555V308.005C291.187 306.354 292.956 304.074 292.956 301.555V295.104Z"
    fill="#1B494B" />
  <g clip-path="url(#clip0_1057_1893)">
    <path
      d="M226.973 292.283C238.194 298.761 238.168 309.317 226.914 315.814C215.66 322.311 197.375 322.326 186.154 315.848C176.359 310.193 173.166 302.483 177.098 294.075C162.534 296.346 149.179 294.502 139.384 288.848C128.163 282.37 128.19 271.814 139.444 265.318C150.698 258.821 168.982 258.805 180.203 265.283C189.998 270.937 193.191 278.648 189.258 287.055C203.822 284.785 217.178 286.629 226.973 292.283ZM174.372 268.649C166.366 264.028 153.313 264.044 145.275 268.684C137.238 273.324 137.21 280.86 145.215 285.481C153.154 290.064 163.778 291.39 175.946 289.316L179.86 288.65L181.014 286.39C184.606 279.366 182.31 273.232 174.372 268.649ZM221.141 295.65C213.203 291.067 202.578 289.741 190.41 291.815L186.497 292.481L185.343 294.74C181.751 301.765 184.047 307.899 191.985 312.482C199.99 317.103 213.044 317.088 221.082 312.447C229.12 307.807 229.147 300.271 221.141 295.65ZM209.316 303.26L213.771 305.832L209.509 308.292L205.054 305.721L200.57 308.309L196.311 305.851L200.795 303.262L196.335 300.687L200.597 298.227L205.057 300.802L209.541 298.213L213.8 300.672L209.316 303.26ZM165.522 282.898L152.342 275.29L156.603 272.829L169.783 280.438L165.522 282.898Z"
      fill="#2DF3EF" />
  </g>
  <g filter="url(#filter3_f_1057_1893)">
    <g clip-path="url(#clip1_1057_1893)">
      <path
        d="M226.973 292.283C238.194 298.761 238.168 309.317 226.914 315.814C215.66 322.311 197.375 322.326 186.154 315.848C176.359 310.193 173.166 302.483 177.098 294.075C162.534 296.346 149.179 294.502 139.384 288.848C128.163 282.37 128.19 271.814 139.444 265.318C150.698 258.821 168.982 258.805 180.203 265.283C189.998 270.937 193.191 278.648 189.258 287.055C203.822 284.785 217.178 286.629 226.973 292.283ZM174.372 268.649C166.366 264.028 153.313 264.044 145.275 268.684C137.238 273.324 137.21 280.86 145.215 285.481C153.154 290.064 163.778 291.39 175.946 289.316L179.86 288.65L181.014 286.39C184.606 279.366 182.31 273.232 174.372 268.649ZM221.141 295.65C213.203 291.067 202.578 289.741 190.41 291.815L186.497 292.481L185.343 294.74C181.751 301.765 184.047 307.899 191.985 312.482C199.99 317.103 213.044 317.088 221.082 312.447C229.12 307.807 229.147 300.271 221.141 295.65ZM209.316 303.26L213.771 305.832L209.509 308.292L205.054 305.721L200.57 308.309L196.311 305.851L200.795 303.262L196.335 300.687L200.597 298.227L205.057 300.802L209.541 298.213L213.8 300.672L209.316 303.26ZM165.522 282.898L152.342 275.29L156.603 272.829L169.783 280.438L165.522 282.898Z"
        fill="#2DF3EF" />
    </g>
  </g>
  <g opacity="0.3">
    <path
      d="M189.847 126.873L287.605 183.313C293.378 186.646 293.378 192.05 287.605 195.383L198.226 246.986C192.454 250.319 183.095 250.319 177.322 246.986L79.5631 190.545C73.7905 187.212 73.7904 181.809 79.5631 178.476L168.942 126.873C174.715 123.54 184.074 123.54 189.847 126.873Z"
      fill="#54512C" stroke="#FCEF39" stroke-width="1.66184" />
    <path
      d="M189.847 126.873L287.605 183.313C293.378 186.646 293.378 192.05 287.605 195.383L198.226 246.986C192.454 250.319 183.095 250.319 177.322 246.986L79.5631 190.545C73.7905 187.212 73.7904 181.809 79.5631 178.476L168.942 126.873C174.715 123.54 184.074 123.54 189.847 126.873Z"
      fill="#54512C" stroke="#E3DA5F" stroke-width="1.66184" />
    <rect width="112.881" height="6.45036" transform="matrix(0.866025 0.5 0 1 78.8438 190.962)" fill="#54512C" />
    <rect width="103.206" height="6.45036" transform="matrix(0.866025 -0.5 0 1 198.943 247.401)" fill="#54512C" />
    <path
      d="M74.2148 184.511C74.2148 187.03 75.9833 189.31 78.8426 190.961V197.411C75.9833 195.761 74.2148 193.48 74.2148 190.961V184.511Z"
      fill="#54512C" />
    <path
      d="M176.6 247.401C182.77 250.964 192.774 250.964 198.944 247.401V253.852C192.774 257.414 182.77 257.414 176.6 253.852V247.401Z"
      fill="#54512C" />
    <path
      d="M292.95 189.349C292.95 191.868 291.182 194.148 288.322 195.799V202.249C291.182 200.599 292.95 198.318 292.95 195.799V189.349Z"
      fill="#54512C" />
  </g>
  <g opacity="0.2">
    <path
      d="M189.847 162.125L287.605 218.566C293.378 221.899 293.378 227.303 287.605 230.636L198.226 282.239C192.454 285.572 183.095 285.572 177.322 282.239L79.5631 225.798C73.7905 222.465 73.7904 217.061 79.5631 213.729L168.942 162.125C174.715 158.793 184.074 158.793 189.847 162.125Z"
      fill="#41542C" stroke="#A1FC39" stroke-width="1.66184" />
    <path
      d="M189.847 162.125L287.605 218.566C293.378 221.899 293.378 227.303 287.605 230.636L198.226 282.239C192.454 285.572 183.095 285.572 177.322 282.239L79.5631 225.798C73.7905 222.465 73.7904 217.061 79.5631 213.729L168.942 162.125C174.715 158.793 184.074 158.793 189.847 162.125Z"
      fill="#41542C" stroke="#A5E35F" stroke-width="1.66184" />
    <rect width="112.881" height="6.45036" transform="matrix(0.866025 0.5 0 1 78.8438 226.213)" fill="#41542C" />
    <rect width="103.206" height="6.45036" transform="matrix(0.866025 -0.5 0 1 198.943 282.653)" fill="#41542C" />
    <path
      d="M74.2148 219.763C74.2148 222.282 75.9833 224.562 78.8426 226.213V232.663C75.9833 231.013 74.2148 228.732 74.2148 226.213V219.763Z"
      fill="#41542C" />
    <path
      d="M176.6 282.653C182.77 286.216 192.774 286.216 198.944 282.653V289.104C192.774 292.666 182.77 292.666 176.6 289.104V282.653Z"
      fill="#41542C" />
    <path
      d="M292.95 224.601C292.95 227.12 291.182 229.4 288.322 231.051V237.501C291.182 235.851 292.95 233.57 292.95 231.051V224.601Z"
      fill="#41542C" />
  </g>
  <g opacity="0.1">
    <path
      d="M189.847 197.377L287.605 253.818C293.378 257.151 293.378 262.555 287.605 265.888L198.226 317.491C192.454 320.824 183.095 320.824 177.322 317.491L79.5631 261.05C73.7905 257.717 73.7904 252.313 79.5631 248.98L168.942 197.377C174.715 194.045 184.074 194.045 189.847 197.377Z"
      fill="#3A6E50" stroke="#39FC8E" stroke-width="1.66184" />
    <path
      d="M189.847 197.377L287.605 253.818C293.378 257.151 293.378 262.555 287.605 265.888L198.226 317.491C192.454 320.824 183.095 320.824 177.322 317.491L79.5631 261.05C73.7905 257.717 73.7904 252.313 79.5631 248.98L168.942 197.377C174.715 194.045 184.074 194.045 189.847 197.377Z"
      fill="#3A6E50" stroke="#5FE398" stroke-width="1.66184" />
    <rect width="112.881" height="6.45036" transform="matrix(0.866025 0.5 0 1 78.8438 261.465)" fill="#3A6E50" />
    <rect width="103.206" height="6.45036" transform="matrix(0.866025 -0.5 0 1 198.943 317.906)" fill="#3A6E50" />
    <path
      d="M74.2148 255.015C74.2148 257.534 75.9833 259.814 78.8426 261.465V267.915C75.9833 266.265 74.2148 263.984 74.2148 261.465V255.015Z"
      fill="#3A6E50" />
    <path
      d="M176.6 317.906C182.77 321.469 192.774 321.469 198.944 317.906V324.357C192.774 327.919 182.77 327.919 176.6 324.357V317.906Z"
      fill="#3A6E50" />
    <path
      d="M292.95 259.853C292.95 262.372 291.182 264.652 288.322 266.303V272.753C291.182 271.102 292.95 268.822 292.95 266.303V259.853Z"
      fill="#3A6E50" />
  </g>
  <path
    d="M189.522 91.8086L287.28 148.25C292.872 151.478 292.872 156.713 287.28 159.941L197.901 211.544C192.309 214.772 183.243 214.772 177.651 211.544L79.8924 155.103C74.3008 151.875 74.3007 146.64 79.8924 143.412L169.271 91.8086C174.863 88.5804 183.93 88.5804 189.522 91.8086Z"
    fill="#543D2C" stroke="#FC9439" stroke-width="2.41888" />
  <path
    d="M189.849 91.6196L287.607 148.061C293.38 151.393 293.38 156.797 287.607 160.13L198.228 211.733C192.456 215.066 183.097 215.066 177.324 211.733L79.5651 155.292C73.7925 151.959 73.7923 146.556 79.5651 143.223L168.944 91.6196C174.717 88.2869 184.076 88.2869 189.849 91.6196Z"
    fill="#543D2C" stroke="url(#paint19_linear_1057_1893)" stroke-width="1.66184" />
  <rect width="112.881" height="6.45036" transform="matrix(0.866025 0.5 0 1 78.8457 155.708)" fill="#543D2C" />
  <rect width="103.206" height="6.45036" transform="matrix(0.866025 -0.5 0 1 198.949 212.148)" fill="#4A3322" />
  <path
    d="M74.2168 149.257C74.2168 151.776 75.9853 154.056 78.8445 155.707V162.158C75.9853 160.507 74.2168 158.226 74.2168 155.707V149.257Z"
    fill="#543D2C" />
  <path
    d="M176.605 212.148C182.776 215.711 192.78 215.711 198.95 212.148V218.599C192.78 222.161 182.776 222.161 176.605 218.599V212.148Z"
    fill="url(#paint20_linear_1057_1893)" />
  <path
    d="M292.956 154.095C292.956 156.614 291.187 158.894 288.328 160.545V166.995C291.187 165.345 292.956 163.064 292.956 160.545V154.095Z"
    fill="#4A3322" />
  <g filter="url(#filter4_f_1057_1893)">
    <path
      d="M225.301 154.078C230.158 156.882 228.815 160.302 225.184 163.782C221.371 167.961 215.456 171.376 208.218 173.577C201.451 175.535 196.259 176.445 191.408 173.645L166.386 159.2L164.265 160.424L180.939 170.05L174.576 173.723C169.759 176.504 163.166 175.525 157.747 173.802C150.621 171.648 144.803 168.289 141.072 164.175C137.957 160.879 136.685 157.071 141.208 154.46L157.105 145.283C159.337 144.003 162.347 143.279 165.492 143.265C168.637 143.25 171.667 143.946 173.934 145.204L190.609 154.83C193.451 156.388 197.229 157.249 201.148 157.232C205.067 157.215 208.821 156.322 211.623 154.741L219.036 150.461L225.301 154.078ZM169.401 168.286C168.985 168.049 168.492 167.861 167.95 167.734C167.408 167.606 166.827 167.541 166.242 167.543C165.656 167.545 165.077 167.615 164.537 167.746C163.998 167.877 163.508 168.068 163.097 168.309C162.463 168.673 162.032 169.137 161.857 169.643C161.682 170.149 161.772 170.673 162.115 171.149C162.458 171.625 163.039 172.032 163.784 172.317C164.529 172.601 165.404 172.752 166.297 172.749C167.191 172.746 168.062 172.589 168.801 172.299C169.539 172.009 170.112 171.598 170.445 171.119C170.778 170.641 170.856 170.116 170.67 169.612C170.484 169.107 170.043 168.646 169.401 168.286ZM217.752 129.12C220.681 130.792 223.363 132.602 225.768 134.533C227.735 135.929 228.782 137.683 228.721 139.482C228.661 141.282 227.497 143.01 225.437 144.361L209.54 153.538C208.445 154.182 207.14 154.694 205.702 155.047C204.263 155.399 202.717 155.585 201.154 155.592C199.591 155.599 198.041 155.428 196.593 155.09C195.144 154.751 193.824 154.25 192.711 153.617L176.036 143.991C173.249 142.435 169.525 141.562 165.648 141.556C161.77 141.55 158.039 142.41 155.237 143.957L147.61 148.36L141.871 145.047C137.019 142.246 137.706 138.577 141.461 135.039C145.441 130.932 151.314 127.541 158.428 125.244C161.303 124.117 164.776 123.613 168.232 123.821C171.689 124.028 174.908 124.934 177.32 126.379L200.279 139.633L202.401 138.409L185.706 128.771L192.069 125.098C196.886 122.317 200.782 121.55 209.094 124.907C212.179 126.169 215.076 127.578 217.752 129.12ZM203.607 126.861C202.76 126.383 201.618 126.118 200.433 126.124C199.248 126.131 198.115 126.408 197.283 126.895C196.654 127.26 196.228 127.726 196.058 128.231C195.888 128.737 195.982 129.261 196.328 129.735C196.675 130.21 197.258 130.614 198.004 130.897C198.749 131.18 199.623 131.328 200.515 131.324C201.408 131.319 202.277 131.161 203.014 130.87C203.75 130.58 204.322 130.169 204.653 129.691C204.984 129.213 205.061 128.688 204.874 128.184C204.688 127.68 204.247 127.22 203.607 126.861Z"
      fill="#FC9439" />
  </g>
  <path
    d="M225.301 154.078C230.158 156.882 228.815 160.302 225.184 163.782C221.371 167.961 215.456 171.376 208.218 173.577C201.451 175.535 196.259 176.445 191.408 173.645L166.386 159.2L164.265 160.424L180.939 170.05L174.576 173.723C169.759 176.504 163.166 175.525 157.747 173.802C150.621 171.648 144.803 168.289 141.072 164.175C137.957 160.879 136.685 157.071 141.208 154.46L157.105 145.283C159.337 144.003 162.347 143.279 165.492 143.265C168.637 143.25 171.667 143.946 173.934 145.204L190.609 154.83C193.451 156.388 197.229 157.249 201.148 157.232C205.067 157.215 208.821 156.322 211.623 154.741L219.036 150.461L225.301 154.078ZM169.401 168.286C168.985 168.049 168.492 167.861 167.95 167.734C167.408 167.606 166.827 167.541 166.242 167.543C165.656 167.545 165.077 167.615 164.537 167.746C163.998 167.877 163.508 168.068 163.097 168.309C162.463 168.673 162.032 169.137 161.857 169.643C161.682 170.149 161.772 170.673 162.115 171.149C162.458 171.625 163.039 172.032 163.784 172.317C164.529 172.601 165.404 172.752 166.297 172.749C167.191 172.746 168.062 172.589 168.801 172.299C169.539 172.009 170.112 171.598 170.445 171.119C170.778 170.641 170.856 170.116 170.67 169.612C170.484 169.107 170.043 168.646 169.401 168.286ZM217.752 129.12C220.681 130.792 223.363 132.602 225.768 134.533C227.735 135.929 228.782 137.683 228.721 139.482C228.661 141.282 227.497 143.01 225.437 144.361L209.54 153.538C208.445 154.182 207.14 154.694 205.702 155.047C204.263 155.399 202.717 155.585 201.154 155.592C199.591 155.599 198.041 155.428 196.593 155.09C195.144 154.751 193.824 154.25 192.711 153.617L176.036 143.991C173.249 142.435 169.525 141.562 165.648 141.556C161.77 141.55 158.039 142.41 155.237 143.957L147.61 148.36L141.871 145.047C137.019 142.246 137.706 138.577 141.461 135.039C145.441 130.932 151.314 127.541 158.428 125.244C161.303 124.117 164.776 123.613 168.232 123.821C171.689 124.028 174.908 124.934 177.32 126.379L200.279 139.633L202.401 138.409L185.706 128.771L192.069 125.098C196.886 122.317 200.782 121.55 209.094 124.907C212.179 126.169 215.076 127.578 217.752 129.12ZM203.607 126.861C202.76 126.383 201.618 126.118 200.433 126.124C199.248 126.131 198.115 126.408 197.283 126.895C196.654 127.26 196.228 127.726 196.058 128.231C195.888 128.737 195.982 129.261 196.328 129.735C196.675 130.21 197.258 130.614 198.004 130.897C198.749 131.18 199.623 131.328 200.515 131.324C201.408 131.319 202.277 131.161 203.014 130.87C203.75 130.58 204.322 130.169 204.653 129.691C204.984 129.213 205.061 128.688 204.874 128.184C204.688 127.68 204.247 127.22 203.607 126.861Z"
    fill="#E9C354" />
  <g filter="url(#filter5_f_1057_1893)">
    <circle cx="124.589" cy="171.585" r="51.9324" fill="#7885D1" fill-opacity="0.4" />
  </g>
  <defs>
    <filter id="filter0_f_1057_1893" x="151.595" y="190.28" width="199.42" height="198.59" filterUnits="userSpaceOnUse"
      color-interpolation-filters="sRGB">
      <feFlood flood-opacity="0" result="BackgroundImageFix" />
      <feBlend mode="normal" in="SourceGraphic" in2="BackgroundImageFix" result="shape" />
      <feGaussianBlur stdDeviation="20.7729" result="effect1_foregroundBlur_1057_1893" />
    </filter>
    <filter id="filter1_f_1057_1893" x="35.2664" y="-0.000183105" width="340.676" height="340.676"
      filterUnits="userSpaceOnUse" color-interpolation-filters="sRGB">
      <feFlood flood-opacity="0" result="BackgroundImageFix" />
      <feBlend mode="normal" in="SourceGraphic" in2="BackgroundImageFix" result="shape" />
      <feGaussianBlur stdDeviation="49.8551" result="effect1_foregroundBlur_1057_1893" />
    </filter>
    <filter id="filter2_f_1057_1893" x="-16.2514" y="6.64806" width="376.405" height="376.406"
      filterUnits="userSpaceOnUse" color-interpolation-filters="sRGB">
      <feFlood flood-opacity="0" result="BackgroundImageFix" />
      <feBlend mode="normal" in="SourceGraphic" in2="BackgroundImageFix" result="shape" />
      <feGaussianBlur stdDeviation="37.3913" result="effect1_foregroundBlur_1057_1893" />
    </filter>
    <filter id="filter3_f_1057_1893" x="70.0346" y="216.861" width="226.286" height="147.409"
      filterUnits="userSpaceOnUse" color-interpolation-filters="sRGB">
      <feFlood flood-opacity="0" result="BackgroundImageFix" />
      <feBlend mode="normal" in="SourceGraphic" in2="BackgroundImageFix" result="shape" />
      <feGaussianBlur stdDeviation="9.92116" result="effect1_foregroundBlur_1057_1893" />
    </filter>
    <filter id="filter4_f_1057_1893" x="70.0346" y="75.851" width="226.286" height="147.409"
      filterUnits="userSpaceOnUse" color-interpolation-filters="sRGB">
      <feFlood flood-opacity="0" result="BackgroundImageFix" />
      <feBlend mode="normal" in="SourceGraphic" in2="BackgroundImageFix" result="shape" />
      <feGaussianBlur stdDeviation="9.92116" result="effect1_foregroundBlur_1057_1893" />
    </filter>
    <filter id="filter5_f_1057_1893" x="-35.3631" y="11.633" width="319.904" height="319.903"
      filterUnits="userSpaceOnUse" color-interpolation-filters="sRGB">
      <feFlood flood-opacity="0" result="BackgroundImageFix" />
      <feBlend mode="normal" in="SourceGraphic" in2="BackgroundImageFix" result="shape" />
      <feGaussianBlur stdDeviation="54.0097" result="effect1_foregroundBlur_1057_1893" />
    </filter>
    <linearGradient id="paint0_linear_1057_1893" x1="51.6562" y1="15.7881" x2="51.606" y2="420.445"
      gradientUnits="userSpaceOnUse">
      <stop stop-color="#232B2E" />
      <stop offset="0.519231" stop-color="#25C2C7" />
      <stop offset="1" stop-color="#232B2E" />
    </linearGradient>
    <linearGradient id="paint1_linear_1057_1893" x1="87.7266" y1="15.7881" x2="87.6763" y2="420.445"
      gradientUnits="userSpaceOnUse">
      <stop stop-color="#232B2E" />
      <stop offset="0.519231" stop-color="#25C2C7" />
      <stop offset="1" stop-color="#232B2E" />
    </linearGradient>
    <linearGradient id="paint2_linear_1057_1893" x1="123.801" y1="15.7881" x2="123.751" y2="420.445"
      gradientUnits="userSpaceOnUse">
      <stop stop-color="#232B2E" />
      <stop offset="0.519231" stop-color="#25C2C7" />
      <stop offset="1" stop-color="#232B2E" />
    </linearGradient>
    <linearGradient id="paint3_linear_1057_1893" x1="159.871" y1="15.7881" x2="159.821" y2="420.445"
      gradientUnits="userSpaceOnUse">
      <stop stop-color="#232B2E" />
      <stop offset="0.519231" stop-color="#25C2C7" />
      <stop offset="1" stop-color="#232B2E" />
    </linearGradient>
    <linearGradient id="paint4_linear_1057_1893" x1="195.945" y1="15.7881" x2="195.895" y2="420.445"
      gradientUnits="userSpaceOnUse">
      <stop stop-color="#232B2E" />
      <stop offset="0.519231" stop-color="#25C2C7" />
      <stop offset="1" stop-color="#232B2E" />
    </linearGradient>
    <linearGradient id="paint5_linear_1057_1893" x1="232.018" y1="15.7881" x2="231.967" y2="420.445"
      gradientUnits="userSpaceOnUse">
      <stop stop-color="#232B2E" />
      <stop offset="0.519231" stop-color="#25C2C7" />
      <stop offset="1" stop-color="#232B2E" />
    </linearGradient>
    <linearGradient id="paint6_linear_1057_1893" x1="268.088" y1="15.7881" x2="268.038" y2="420.445"
      gradientUnits="userSpaceOnUse">
      <stop stop-color="#232B2E" />
      <stop offset="0.519231" stop-color="#25C2C7" />
      <stop offset="1" stop-color="#232B2E" />
    </linearGradient>
    <linearGradient id="paint7_linear_1057_1893" x1="304.162" y1="15.7881" x2="304.112" y2="420.445"
      gradientUnits="userSpaceOnUse">
      <stop stop-color="#232B2E" />
      <stop offset="0.519231" stop-color="#25C2C7" />
      <stop offset="1" stop-color="#232B2E" />
    </linearGradient>
    <linearGradient id="paint8_linear_1057_1893" x1="340.232" y1="15.7881" x2="340.182" y2="420.445"
      gradientUnits="userSpaceOnUse">
      <stop stop-color="#232B2E" />
      <stop offset="0.519231" stop-color="#25C2C7" />
      <stop offset="1" stop-color="#232B2E" />
    </linearGradient>
    <linearGradient id="paint9_linear_1057_1893" x1="12" y1="41.4551" x2="356" y2="41.4914"
      gradientUnits="userSpaceOnUse">
      <stop stop-color="#232B2E" />
      <stop offset="0.519231" stop-color="#25C2C7" />
      <stop offset="1" stop-color="#232B2E" />
    </linearGradient>
    <linearGradient id="paint10_linear_1057_1893" x1="12" y1="91.5225" x2="356" y2="91.5587"
      gradientUnits="userSpaceOnUse">
      <stop stop-color="#232B2E" />
      <stop offset="0.519231" stop-color="#25C2C7" />
      <stop offset="1" stop-color="#232B2E" />
    </linearGradient>
    <linearGradient id="paint11_linear_1057_1893" x1="12" y1="141.589" x2="356" y2="141.625"
      gradientUnits="userSpaceOnUse">
      <stop stop-color="#232B2E" />
      <stop offset="0.519231" stop-color="#25C2C7" />
      <stop offset="1" stop-color="#232B2E" />
    </linearGradient>
    <linearGradient id="paint12_linear_1057_1893" x1="12" y1="191.656" x2="356" y2="191.693"
      gradientUnits="userSpaceOnUse">
      <stop stop-color="#232B2E" />
      <stop offset="0.519231" stop-color="#25C2C7" />
      <stop offset="1" stop-color="#232B2E" />
    </linearGradient>
    <linearGradient id="paint13_linear_1057_1893" x1="12" y1="241.724" x2="356" y2="241.76"
      gradientUnits="userSpaceOnUse">
      <stop stop-color="#232B2E" />
      <stop offset="0.519231" stop-color="#25C2C7" />
      <stop offset="1" stop-color="#232B2E" />
    </linearGradient>
    <linearGradient id="paint14_linear_1057_1893" x1="12" y1="291.791" x2="356" y2="291.827"
      gradientUnits="userSpaceOnUse">
      <stop stop-color="#232B2E" />
      <stop offset="0.519231" stop-color="#25C2C7" />
      <stop offset="1" stop-color="#232B2E" />
    </linearGradient>
    <linearGradient id="paint15_linear_1057_1893" x1="12" y1="341.858" x2="356" y2="341.895"
      gradientUnits="userSpaceOnUse">
      <stop stop-color="#232B2E" />
      <stop offset="0.519231" stop-color="#25C2C7" />
      <stop offset="1" stop-color="#232B2E" />
    </linearGradient>
    <linearGradient id="paint16_linear_1057_1893" x1="12" y1="391.926" x2="356" y2="391.962"
      gradientUnits="userSpaceOnUse">
      <stop stop-color="#232B2E" />
      <stop offset="0.519231" stop-color="#25C2C7" />
      <stop offset="1" stop-color="#232B2E" />
    </linearGradient>
    <linearGradient id="paint17_linear_1057_1893" x1="292.436" y1="296.764" x2="126.761" y2="383.277"
      gradientUnits="userSpaceOnUse">
      <stop stop-color="#2DF3EF" />
      <stop offset="0.504808" stop-color="#2B7181" />
      <stop offset="1" stop-color="#2DF3EF" />
    </linearGradient>
    <linearGradient id="paint18_linear_1057_1893" x1="176.605" y1="357.719" x2="198.95" y2="357.719"
      gradientUnits="userSpaceOnUse">
      <stop stop-color="#255355" />
      <stop offset="1" stop-color="#1B494B" />
    </linearGradient>
    <linearGradient id="paint19_linear_1057_1893" x1="292.436" y1="148.319" x2="128.13" y2="241.52"
      gradientUnits="userSpaceOnUse">
      <stop stop-color="#FFBD4C" />
      <stop offset="0.5" stop-color="#A76F0A" />
      <stop offset="1" stop-color="#FFBD4C" />
    </linearGradient>
    <linearGradient id="paint20_linear_1057_1893" x1="176.605" y1="216.71" x2="198.95" y2="216.71"
      gradientUnits="userSpaceOnUse">
      <stop stop-color="#543D2C" />
      <stop offset="1" stop-color="#4A3322" />
    </linearGradient>
    <clipPath id="clip0_1057_1893">
      <rect width="107.732" height="107.732" fill="white"
        transform="matrix(0.866044 0.499967 -0.866044 0.499967 183.178 236.703)" />
    </clipPath>
    <clipPath id="clip1_1057_1893">
      <rect width="107.732" height="107.732" fill="white"
        transform="matrix(0.866044 0.499967 -0.866044 0.499967 183.178 236.703)" />
    </clipPath>
  </defs>
</svg>