<svg width="16" height="16" viewBox="0 0 16 16" fill="none" xmlns="http://www.w3.org/2000/svg">
  <path
    d="M6.63394 1.13477C7.99177 0.864677 9.39981 1.00245 10.6789 1.53223C11.9579 2.06204 13.0513 2.96018 13.8205 4.11133C14.5895 5.26239 15.0002 6.61569 15.0002 8C15.0001 9.85647 14.2621 11.6365 12.9494 12.9492C11.6366 14.2619 9.85662 15 8.00015 15C6.61584 15 5.26254 14.5893 4.11148 13.8203C2.96034 13.0511 2.06219 11.9578 1.53238 10.6787C1.00261 9.39966 0.86483 7.99161 1.13492 6.63379C1.40508 5.27612 2.07111 4.02865 3.04996 3.0498C4.0288 2.07096 5.27627 1.40493 6.63394 1.13477ZM8.00015 2C6.81346 2 5.65286 2.35145 4.66617 3.01074C3.67955 3.67003 2.91129 4.6078 2.45718 5.7041C2.00316 6.80028 1.88401 8.00622 2.11539 9.16992C2.34687 10.3336 2.91807 11.4031 3.75699 12.2422C4.59606 13.0813 5.66544 13.6532 6.82925 13.8848C7.99314 14.1163 9.19969 13.9971 10.2961 13.543C11.3924 13.0888 12.3291 12.3197 12.9884 11.333C13.6477 10.3464 14.0001 9.18664 14.0002 8C14.0002 6.4087 13.3676 4.88205 12.2423 3.75684C11.1172 2.63187 9.59124 2.00004 8.00015 2ZM8.00015 6.5C8.13271 6.50004 8.25993 6.55275 8.35367 6.64648C8.44735 6.74024 8.50015 6.86746 8.50015 7V10.5H10.0002C10.1327 10.5 10.2599 10.5527 10.3537 10.6465C10.4474 10.7402 10.5002 10.8675 10.5002 11C10.5001 11.1326 10.4474 11.2598 10.3537 11.3535C10.2599 11.4473 10.1327 11.5 10.0002 11.5H6.00015C5.86761 11.5 5.74039 11.4472 5.64664 11.3535C5.5529 11.2598 5.50019 11.1326 5.50015 11C5.50015 10.8674 5.55287 10.7403 5.64664 10.6465C5.74041 10.5527 5.86754 10.5 6.00015 10.5H7.50015V7.5H6.50015C6.36761 7.5 6.24039 7.4472 6.14664 7.35352C6.0529 7.25978 6.00019 7.13256 6.00015 7C6.00015 6.86739 6.05287 6.74025 6.14664 6.64648C6.24041 6.55272 6.36754 6.5 6.50015 6.5H8.00015ZM7.75015 4C8.1643 4.00007 8.50015 4.33583 8.50015 4.75C8.50008 5.1641 8.16426 5.49993 7.75015 5.5C7.33599 5.5 7.00023 5.16415 7.00015 4.75C7.00015 4.33579 7.33594 4 7.75015 4Z"
    fill="#25C2C7" />
</svg>