<svg width="12" height="10" viewBox="0 0 12 10" fill="none" xmlns="http://www.w3.org/2000/svg">
<g id="Icon">
<path id="Vector" d="M3 4C3.27637 4 3.5 4.22388 3.5 4.5V9.5C3.5 9.77612 3.27637 10 3 10H2C1.17285 10 0.5 9.32715 0.5 8.5V4.5C0.5 4.22388 0.723635 4 1 4H3ZM7 4C7.27614 4 7.5 4.22386 7.5 4.5V9.5C7.5 9.77614 7.27614 10 7 10H5C4.72386 10 4.5 9.77614 4.5 9.5V4.5C4.5 4.22386 4.72386 4 5 4H7ZM11 4C11.2764 4 11.5 4.22388 11.5 4.5V8.5C11.5 9.32715 10.8272 10 10 10H9C8.72363 10 8.5 9.77612 8.5 9.5V4.5C8.5 4.22388 8.72363 4 9 4H11ZM10 0C10.8272 0 11.5 0.67285 11.5 1.5V2.5C11.5 2.77612 11.2764 3 11 3H1C0.723635 3 0.5 2.77612 0.5 2.5V1.5C0.5 0.67285 1.17285 0 2 0H10Z" fill="currentColor"/>
</g>
</svg>
