<svg width="59" height="28" viewBox="0 0 59 28" fill="none" xmlns="http://www.w3.org/2000/svg">
<path d="M45.0918 0C52.6304 9.64557e-06 58.7627 6.15132 58.7627 13.7119C58.7625 21.2723 52.6302 27.4228 45.0918 27.4229C38.5117 27.4229 32.9532 24.0095 29.3818 17.7969C25.8105 24.0098 20.2511 27.4229 13.6709 27.4229C6.13251 27.4228 0.000231046 21.2723 0 13.7119C0 6.15136 6.13236 7.5538e-05 13.6709 0C20.2512 0 25.8105 3.41397 29.3818 9.62695C32.9532 3.41396 38.5115 0 45.0918 0ZM13.6709 3.91797C8.29293 3.91804 3.91699 8.31193 3.91699 13.7119C3.91722 19.1117 8.29309 23.5048 13.6709 23.5049C19.004 23.5049 23.3448 20.7079 26.2256 15.4141L27.1523 13.7119L26.2256 12.0088C23.3448 6.71494 19.004 3.91797 13.6709 3.91797ZM45.0918 3.91797C39.7588 3.91797 35.4189 6.71517 32.5381 12.0088L31.6113 13.7119L32.5381 15.4141C35.4189 20.7077 39.7588 23.5049 45.0918 23.5049C50.4697 23.5049 54.8455 19.1117 54.8457 13.7119C54.8457 8.31189 50.4698 3.91798 45.0918 3.91797ZM45.5479 12.3184H48.54V15.1816H45.5479V18.1943H42.6865V15.1816H39.6904V12.3184H42.6865V9.30566H45.5479V12.3184ZM18.9893 15.1816H10.1348V12.3184H18.9893V15.1816Z" fill="#25C2C7"/>
</svg>
