<svg width="9" height="9" viewBox="0 0 9 9" fill="none" xmlns="http://www.w3.org/2000/svg">
<path d="M9.00124 0.5V7C9.00124 7.13261 8.94856 7.25979 8.8548 7.35355C8.76103 7.44732 8.63385 7.5 8.50124 7.5C8.36863 7.5 8.24146 7.44732 8.14769 7.35355C8.05392 7.25979 8.00124 7.13261 8.00124 7V1.71L0.856242 8.855C0.761454 8.94794 0.633995 9.00001 0.501242 9.00001C0.368488 9.00001 0.24103 8.94794 0.146242 8.855C0.0525658 8.7606 0 8.63299 0 8.5C0 8.36701 0.0525658 8.2394 0.146242 8.145L7.29124 1H2.00124C1.86863 1 1.74146 0.947321 1.64769 0.853553C1.55392 0.759785 1.50124 0.632608 1.50124 0.5C1.50124 0.367392 1.55392 0.240215 1.64769 0.146447C1.74146 0.0526785 1.86863 0 2.00124 0H8.50124C8.63373 0.000382561 8.76069 0.0531838 8.85437 0.146869C8.94806 0.240555 9.00086 0.367509 9.00124 0.5Z" fill="currentColor"/>
</svg>
