<svg width="14" height="14" viewBox="0 0 14 14" fill="none" xmlns="http://www.w3.org/2000/svg">
  <path
    d="M8.37427 11.8174C8.48904 11.8338 8.59274 11.8946 8.66235 11.9873C8.73191 12.08 8.76168 12.1968 8.74536 12.3115C8.72898 12.4262 8.66802 12.53 8.57544 12.5996C8.12111 12.9404 7.56815 13.125 7.00024 13.125C6.43227 13.125 5.87943 12.9404 5.42505 12.5996C5.37917 12.5652 5.34002 12.522 5.31079 12.4727C5.28163 12.4233 5.26226 12.3683 5.25415 12.3115C5.23787 12.1968 5.26765 12.08 5.33716 11.9873C5.40668 11.8946 5.51058 11.8339 5.62524 11.8174C5.74011 11.801 5.85761 11.8308 5.95044 11.9004C6.25328 12.1274 6.62178 12.25 7.00024 12.25C7.37875 12.25 7.74722 12.1274 8.05005 11.9004C8.14285 11.8308 8.25943 11.801 8.37427 11.8174ZM7.00024 0.4375C7.11621 0.437547 7.22781 0.483425 7.30981 0.56543C7.39181 0.647468 7.43774 0.75901 7.43774 0.875V1.77637C7.73653 1.80709 8.03056 1.87463 8.31274 1.97754V2.85254C8.30871 3.57 8.57724 4.26261 9.0647 4.78906C9.55216 5.31546 10.2221 5.63642 10.9377 5.6875V6.92969L12.2239 10.3555C12.2468 10.4205 12.2535 10.4902 12.2444 10.5586C12.2353 10.627 12.2103 10.6922 12.1711 10.749C12.1309 10.807 12.0774 10.8549 12.0149 10.8877C11.9525 10.9204 11.8831 10.9374 11.8127 10.9375H2.18774C2.11702 10.9377 2.04737 10.9203 1.98462 10.8877C1.92189 10.8551 1.86782 10.808 1.82739 10.75C1.78696 10.6919 1.76104 10.6249 1.7522 10.5547C1.74335 10.4845 1.75184 10.413 1.77661 10.3467L3.06274 6.9209V5.6875C3.0632 4.71929 3.42003 3.78499 4.06567 3.06348C4.71132 2.34198 5.60053 1.88395 6.56274 1.77637V0.875C6.56274 0.758968 6.60863 0.647477 6.69067 0.56543C6.77271 0.483438 6.88425 0.4375 7.00024 0.4375Z"
    fill="currentColor" />
  <path
    d="M11.1562 4.8125C12.2436 4.8125 13.125 3.93106 13.125 2.84375C13.125 1.75644 12.2436 0.875 11.1562 0.875C10.0689 0.875 9.1875 1.75644 9.1875 2.84375C9.1875 3.93106 10.0689 4.8125 11.1562 4.8125Z"
    fill="#FF8878" />
</svg>