<svg width="14" height="14" viewBox="0 0 14 14" fill="none" xmlns="http://www.w3.org/2000/svg">
  <path
    d="M8.37474 11.8174C8.48945 11.8339 8.59328 11.8946 8.66282 11.9873C8.73237 12.08 8.76212 12.1968 8.74583 12.3115C8.72943 12.4263 8.6677 12.53 8.57493 12.5996C8.12055 12.9404 7.56771 13.125 6.99974 13.125C6.43192 13.1249 5.87979 12.9403 5.42552 12.5996C5.37955 12.5651 5.34053 12.5221 5.31126 12.4727C5.28202 12.4232 5.26274 12.3684 5.25462 12.3115C5.23831 12.1968 5.26807 12.08 5.33763 11.9873C5.40724 11.8946 5.51093 11.8338 5.62571 11.8174C5.74058 11.801 5.85711 11.8308 5.94993 11.9004C6.25274 12.1275 6.62124 12.2499 6.99974 12.25C7.37838 12.25 7.7476 12.1276 8.05052 11.9004C8.14332 11.8308 8.25992 11.801 8.37474 11.8174ZM6.99974 0.4375C7.11569 0.4375 7.22727 0.483484 7.30931 0.56543C7.39135 0.647477 7.43724 0.758968 7.43724 0.875V1.77637C8.39941 1.88394 9.28867 2.34202 9.93431 3.06348C10.58 3.78499 10.9368 4.71929 10.9372 5.6875V6.9209L12.2234 10.3467C12.2478 10.413 12.2559 10.4846 12.2468 10.5547C12.2377 10.6246 12.2121 10.6913 12.1716 10.749C12.1314 10.8069 12.0778 10.8549 12.0154 10.8877C11.9529 10.9205 11.8828 10.9374 11.8122 10.9375H2.18724C2.11658 10.9377 2.0468 10.9203 1.98411 10.8877C1.92145 10.855 1.86726 10.808 1.82688 10.75C1.78649 10.6919 1.76053 10.6249 1.75169 10.5547C1.74285 10.4845 1.75134 10.413 1.7761 10.3467L3.06224 6.9209V5.6875C3.0627 4.71929 3.42049 3.78499 4.06614 3.06348C4.7117 2.3422 5.60026 1.884 6.56224 1.77637V0.875C6.56224 0.758968 6.60909 0.647477 6.69114 0.56543C6.77308 0.483663 6.88397 0.437585 6.99974 0.4375Z"
    fill="currentColor" />
</svg>