<svg width="16" height="16" viewBox="0 0 16 16" fill="none" xmlns="http://www.w3.org/2000/svg">
<path d="M13.5 2.5C13.6326 2.5 13.7597 2.55272 13.8535 2.64648C13.9473 2.74025 14 2.86739 14 3V13C14 13.1326 13.9473 13.2597 13.8535 13.3535C13.7597 13.4473 13.6326 13.5 13.5 13.5H3.5C3.36739 13.5 3.24025 13.4473 3.14648 13.3535C3.05272 13.2597 3 13.1326 3 13V10H2C1.86739 10 1.74025 9.94728 1.64648 9.85352C1.55272 9.75975 1.5 9.63261 1.5 9.5V6.5C1.5 6.36739 1.55272 6.24025 1.64648 6.14648C1.74025 6.05272 1.86739 6 2 6H3V3C3 2.86739 3.05272 2.74025 3.14648 2.64648C3.24025 2.55272 3.36739 2.5 3.5 2.5H13.5ZM4 3.5V6H4.5C4.63261 6 4.75975 6.05272 4.85352 6.14648C4.94728 6.24025 5 6.36739 5 6.5V9.5C5 9.63261 4.94728 9.75975 4.85352 9.85352C4.75975 9.94728 4.63261 10 4.5 10H4V12.5H5V12C5 11.8674 5.05272 11.7403 5.14648 11.6465C5.24025 11.5527 5.36739 11.5 5.5 11.5C5.63261 11.5 5.75975 11.5527 5.85352 11.6465C5.94728 11.7403 6 11.8674 6 12V12.5H7V12C7 11.8674 7.05272 11.7403 7.14648 11.6465C7.24025 11.5527 7.36739 11.5 7.5 11.5C7.63261 11.5 7.75975 11.5527 7.85352 11.6465C7.94728 11.7403 8 11.8674 8 12V12.5H9V12C9 11.8674 9.05272 11.7403 9.14648 11.6465C9.24025 11.5527 9.36739 11.5 9.5 11.5C9.63261 11.5 9.75975 11.5527 9.85352 11.6465C9.94728 11.7403 10 11.8674 10 12V12.5H11V12C11 11.8674 11.0527 11.7403 11.1465 11.6465C11.2403 11.5527 11.3674 11.5 11.5 11.5C11.6326 11.5 11.7597 11.5527 11.8535 11.6465C11.9473 11.7403 12 11.8674 12 12V12.5H13V3.5H12V4C12 4.13261 11.9473 4.25975 11.8535 4.35352C11.7597 4.44728 11.6326 4.5 11.5 4.5C11.3674 4.5 11.2403 4.44728 11.1465 4.35352C11.0527 4.25975 11 4.13261 11 4V3.5H10V4C10 4.13261 9.94728 4.25975 9.85352 4.35352C9.75975 4.44728 9.63261 4.5 9.5 4.5C9.36739 4.5 9.24025 4.44728 9.14648 4.35352C9.05272 4.25975 9 4.13261 9 4V3.5H8V4C8 4.13261 7.94728 4.25975 7.85352 4.35352C7.75975 4.44728 7.63261 4.5 7.5 4.5C7.36739 4.5 7.24025 4.44728 7.14648 4.35352C7.05272 4.25975 7 4.13261 7 4V3.5H6V4C6 4.13261 5.94728 4.25975 5.85352 4.35352C5.75975 4.44728 5.63261 4.5 5.5 4.5C5.36739 4.5 5.24025 4.44728 5.14648 4.35352C5.05272 4.25975 5 4.13261 5 4V3.5H4ZM11.5 6C11.6326 6 11.7597 6.05272 11.8535 6.14648C11.9473 6.24025 12 6.36739 12 6.5V9.5C12 9.63261 11.9473 9.75975 11.8535 9.85352C11.7597 9.94728 11.6326 10 11.5 10H8.5C8.36739 10 8.24025 9.94728 8.14648 9.85352C8.05272 9.75975 8 9.63261 8 9.5V6.5C8 6.36739 8.05272 6.24025 8.14648 6.14648C8.24025 6.05272 8.36739 6 8.5 6H11.5ZM2.5 7V9H4V7H2.5ZM9 7V9H11V7H9Z" fill="currentColor"/>
</svg>
