<svg width="56" height="43" viewBox="0 0 56 43" fill="none" xmlns="http://www.w3.org/2000/svg">
<path d="M55.3302 11.8791L53.7953 10.3442C53.6589 10.2078 53.572 10.0248 53.5627 9.82326H53.5596V0.768992C53.5596 0.344186 53.2155 0 52.7937 0H1.16894L1.08832 0.0155036L1.0139 0.0341087L0.939483 0.0589143L0.868164 0.0961233L0.799949 0.133333L0.737932 0.179844L0.679017 0.232558L0.623205 0.291472L0.576693 0.356588L0.539483 0.424806L0.502272 0.496124L0.477468 0.570543L0.458862 0.644961L0.446458 0.725582V0.803101L0.443359 42.0992V42.1768L0.458862 42.2574L0.477468 42.3318L0.502272 42.4062L0.539483 42.4775L0.576693 42.5457L0.623205 42.6109L0.679017 42.6698L0.737932 42.7225L0.799949 42.769L0.868164 42.8093L0.939483 42.8434L1.0139 42.8682L1.08832 42.8868L1.16894 42.8992H1.24646L52.7534 42.9023H52.8341L52.9116 42.8868L52.9891 42.8682L53.0635 42.8434L53.1348 42.8093L53.2031 42.769L53.2651 42.7225L53.3271 42.6698L53.3798 42.6109L53.4263 42.5457L53.4635 42.4775L53.4976 42.4062L53.5255 42.3318L53.5441 42.2574L53.5565 42.1768V42.0992L53.5596 40.862L55.3705 39.0512L55.3829 39.0357C55.5193 38.8992 55.6031 38.7101 55.6031 38.5023V12.462C55.6031 12.2295 55.4945 12.0217 55.3302 11.8791ZM11.6775 42.3814C10.831 42.3814 10.1395 41.6899 10.1395 40.8434C10.1395 39.9969 10.831 39.3023 11.6775 39.3023C12.524 39.3023 13.2155 39.9938 13.2155 40.8434C13.2155 41.693 12.5271 42.3814 11.6775 42.3814ZM12.4186 3.58139C11.5689 3.58139 10.8775 2.88992 10.8775 2.04341C10.8775 1.1969 11.5689 0.505426 12.4186 0.505426C13.2682 0.505426 13.9565 1.1938 13.9565 2.04341C13.9565 2.89302 13.2651 3.58139 12.4186 3.58139ZM53.541 38.3132C52.6945 38.3132 52.003 37.6217 52.003 36.7752C52.003 35.9287 52.6945 35.2372 53.541 35.2372C54.3875 35.2372 55.079 35.9256 55.079 36.7752C55.079 37.6248 54.3906 38.3132 53.541 38.3132ZM53.541 15.8388C52.6945 15.8388 52.003 15.1504 52.003 14.3008C52.003 13.4512 52.6945 12.7628 53.541 12.7628C54.3875 12.7628 55.079 13.4543 55.079 14.3008C55.079 15.1473 54.3906 15.8388 53.541 15.8388Z" fill="#057582"/>
<path d="M52.5382 39.8389H21.9336V41.8823H52.5382V39.8389Z" fill="black"/>
<path d="M52.5573 1.02051H14.5107V3.06392H52.5573V1.02051Z" fill="black"/>
<path d="M6.33488 8.78809H0V15.9354H6.33488V8.78809Z" fill="#929D9E"/>
<path d="M14.5238 25.1289H4.76562V38.3444H14.5238V25.1289Z" fill="#929D9E"/>
<path d="M33.0099 14.127V23.7766H23.0347V14.127H33.0099Z" fill="black"/>
<path d="M33.8441 5.19727V13.2469H22.2007V5.19727H33.8441Z" fill="black"/>
<path d="M47.1803 26.6826H25.9399V38.9431H47.1803V26.6826Z" fill="#929D9E"/>
</svg>
