<svg width="57" height="56" viewBox="0 0 57 56" fill="none" xmlns="http://www.w3.org/2000/svg">
<path d="M44.246 43.4H55.3581L56.146 42.6122V10.85C56.1459 10.6567 55.9892 10.5001 55.796 10.5H0.495997C0.302717 10.5001 0.146058 10.6567 0.145996 10.85V43.7501C0.146058 43.9433 0.302717 44.1 0.495997 44.1001H1.54599L2.94599 45.5001H42.146L44.246 43.4ZM0.986 11.725C0.986 11.4157 1.23672 11.165 1.54599 11.165C1.85527 11.165 2.10599 11.4157 2.10599 11.725C2.10599 12.0343 1.85528 12.285 1.54599 12.285C1.23671 12.285 0.986 12.0343 0.986 11.725ZM20.2351 11.725C20.2351 11.4157 20.4858 11.165 20.7951 11.165C21.1044 11.165 21.3551 11.4157 21.3551 11.725C21.3551 12.0343 21.1044 12.285 20.7951 12.285C20.4858 12.285 20.2351 12.0343 20.2351 11.725ZM20.2351 32.025C20.2351 31.7158 20.4858 31.465 20.7951 31.465C21.1044 31.465 21.3551 31.7158 21.3551 32.025C21.3551 32.3343 21.1044 32.585 20.7951 32.585C20.4858 32.585 20.2351 32.3343 20.2351 32.025ZM0.985992 42.7C0.985992 42.3908 1.23671 42.1401 1.54599 42.1401C1.85526 42.1401 2.10598 42.3908 2.10598 42.7C2.10598 43.0093 1.85526 43.26 1.54599 43.26C1.23671 43.26 0.985992 43.0093 0.985992 42.7ZM54.186 11.7249C54.186 11.4156 54.4368 11.1649 54.746 11.1649C55.0553 11.1649 55.306 11.4156 55.306 11.7249C55.306 12.0342 55.0553 12.2849 54.746 12.2849C54.4368 12.2849 54.186 12.0342 54.186 11.7249ZM54.186 41.9977C54.186 41.6884 54.4367 41.4377 54.746 41.4377C55.0553 41.4377 55.306 41.6884 55.306 41.9977C55.306 42.307 55.0553 42.5577 54.746 42.5577C54.4367 42.5577 54.186 42.307 54.186 41.9977Z" fill="#0CA1A6"/>
<path d="M0.75 19.6527V33.3405M17.7328 16.3469V33.3405M20.6376 12.902V30.7327" stroke="black" stroke-width="1.5" stroke-miterlimit="10"/>
<path d="M56.1463 33.9246H54.5298V39.3308H56.1463V33.9246Z" fill="black"/>
<path d="M56.1463 24.0171H54.5298V29.4233H56.1463V24.0171Z" fill="black"/>
<path d="M56.1463 14.1096H54.5298V19.5158H56.1463V14.1096Z" fill="black"/>
<path d="M37.9329 42.7839H29.1096V45.5002H37.9329V42.7839Z" fill="black"/>
<path d="M42.0872 41.658H39.2119V45.5002H42.0872V41.658Z" fill="black"/>
<path d="M9.12553 37.9253H2.88696V45.5001H9.12553V37.9253Z" fill="black"/>
<path d="M16.3745 40.3022H11.8999V45.5001H16.3745V40.3022Z" fill="black"/>
<path d="M21.5936 38.3159H19.6497V45.5H21.5936V38.3159Z" fill="black"/>
<path d="M7.40648 19.5829H6.77075V20.2186H7.40648V19.5829Z" fill="#BDC7C7"/>
<path d="M7.40648 20.6318H6.77075V21.2676H7.40648V20.6318Z" fill="#BDC7C7"/>
<path d="M7.40648 21.6808H6.77075V22.3165H7.40648V21.6808Z" fill="#BDC7C7"/>
<path d="M7.40648 22.7297H6.77075V23.3654H7.40648V22.7297Z" fill="#BDC7C7"/>
<path d="M7.40648 23.7786H6.77075V24.4144H7.40648V23.7786Z" fill="#BDC7C7"/>
<path d="M7.40648 24.8275H6.77075V25.4632H7.40648V24.8275Z" fill="#BDC7C7"/>
<path d="M7.40648 25.8766H6.77075V26.5123H7.40648V25.8766Z" fill="#BDC7C7"/>
<path d="M7.40648 26.9254H6.77075V27.5611H7.40648V26.9254Z" fill="#BDC7C7"/>
<path d="M7.40648 27.9744H6.77075V28.6102H7.40648V27.9744Z" fill="#BDC7C7"/>
<path d="M6.40429 19.5829H5.76855V20.2186H6.40429V19.5829Z" fill="#BDC7C7"/>
<path d="M6.40429 20.6318H5.76855V21.2676H6.40429V20.6318Z" fill="#BDC7C7"/>
<path d="M6.40429 21.6808H5.76855V22.3165H6.40429V21.6808Z" fill="#BDC7C7"/>
<path d="M6.40429 22.7297H5.76855V23.3654H6.40429V22.7297Z" fill="#BDC7C7"/>
<path d="M6.40429 23.7786H5.76855V24.4144H6.40429V23.7786Z" fill="#BDC7C7"/>
<path d="M6.40429 24.8275H5.76855V25.4632H6.40429V24.8275Z" fill="#BDC7C7"/>
<path d="M6.40429 25.8766H5.76855V26.5123H6.40429V25.8766Z" fill="#BDC7C7"/>
<path d="M6.40429 26.9254H5.76855V27.5611H6.40429V26.9254Z" fill="#BDC7C7"/>
<path d="M6.40429 27.9744H5.76855V28.6102H6.40429V27.9744Z" fill="#BDC7C7"/>
<path d="M5.40087 19.5829H4.76514V20.2186H5.40087V19.5829Z" fill="#BDC7C7"/>
<path d="M5.40087 20.6318H4.76514V21.2676H5.40087V20.6318Z" fill="#BDC7C7"/>
<path d="M5.40087 21.6808H4.76514V22.3165H5.40087V21.6808Z" fill="#BDC7C7"/>
<path d="M5.40087 22.7297H4.76514V23.3654H5.40087V22.7297Z" fill="#BDC7C7"/>
<path d="M5.40087 23.7786H4.76514V24.4144H5.40087V23.7786Z" fill="#BDC7C7"/>
<path d="M5.40087 24.8275H4.76514V25.4632H5.40087V24.8275Z" fill="#BDC7C7"/>
<path d="M5.40087 25.8766H4.76514V26.5123H5.40087V25.8766Z" fill="#BDC7C7"/>
<path d="M5.40087 26.9254H4.76514V27.5611H5.40087V26.9254Z" fill="#BDC7C7"/>
<path d="M5.40087 27.9744H4.76514V28.6102H5.40087V27.9744Z" fill="#BDC7C7"/>
<path d="M4.39867 19.5829H3.76294V20.2186H4.39867V19.5829Z" fill="#BDC7C7"/>
<path d="M4.39867 20.6318H3.76294V21.2676H4.39867V20.6318Z" fill="#BDC7C7"/>
<path d="M4.39867 21.6808H3.76294V22.3165H4.39867V21.6808Z" fill="#BDC7C7"/>
<path d="M4.39867 22.7297H3.76294V23.3654H4.39867V22.7297Z" fill="#BDC7C7"/>
<path d="M4.39867 23.7786H3.76294V24.4144H4.39867V23.7786Z" fill="#BDC7C7"/>
<path d="M4.39867 24.8275H3.76294V25.4632H4.39867V24.8275Z" fill="#BDC7C7"/>
<path d="M4.39867 25.8766H3.76294V26.5123H4.39867V25.8766Z" fill="#BDC7C7"/>
<path d="M4.39867 26.9254H3.76294V27.5611H4.39867V26.9254Z" fill="#BDC7C7"/>
<path d="M4.39867 27.9744H3.76294V28.6102H4.39867V27.9744Z" fill="#BDC7C7"/>
<path d="M3.39647 19.5829H2.76074V20.2186H3.39647V19.5829Z" fill="#BDC7C7"/>
<path d="M3.39647 20.6318H2.76074V21.2676H3.39647V20.6318Z" fill="#BDC7C7"/>
<path d="M3.39647 21.6808H2.76074V22.3165H3.39647V21.6808Z" fill="#BDC7C7"/>
<path d="M3.39647 22.7297H2.76074V23.3654H3.39647V22.7297Z" fill="#BDC7C7"/>
<path d="M3.39647 23.7786H2.76074V24.4144H3.39647V23.7786Z" fill="#BDC7C7"/>
<path d="M3.39647 24.8275H2.76074V25.4632H3.39647V24.8275Z" fill="#BDC7C7"/>
<path d="M3.39647 25.8766H2.76074V26.5123H3.39647V25.8766Z" fill="#BDC7C7"/>
<path d="M3.39647 26.9254H2.76074V27.5611H3.39647V26.9254Z" fill="#BDC7C7"/>
<path d="M3.39647 27.9744H2.76074V28.6102H3.39647V27.9744Z" fill="#BDC7C7"/>
<path d="M2.39306 19.5829H1.75732V20.2186H2.39306V19.5829Z" fill="#BDC7C7"/>
<path d="M2.39306 20.6318H1.75732V21.2676H2.39306V20.6318Z" fill="#BDC7C7"/>
<path d="M2.39306 21.6808H1.75732V22.3165H2.39306V21.6808Z" fill="#BDC7C7"/>
<path d="M2.39306 22.7297H1.75732V23.3654H2.39306V22.7297Z" fill="#BDC7C7"/>
<path d="M2.39306 23.7786H1.75732V24.4144H2.39306V23.7786Z" fill="#BDC7C7"/>
<path d="M2.39306 24.8275H1.75732V25.4632H2.39306V24.8275Z" fill="#BDC7C7"/>
<path d="M2.39306 25.8766H1.75732V26.5123H2.39306V25.8766Z" fill="#BDC7C7"/>
<path d="M2.39306 26.9254H1.75732V27.5611H2.39306V26.9254Z" fill="#BDC7C7"/>
<path d="M2.39306 27.9744H1.75732V28.6102H2.39306V27.9744Z" fill="#BDC7C7"/>
<path d="M47.7251 16.0768H26.2932V37.5087H47.7251V16.0768Z" fill="#00979D"/>
<path d="M32.4773 21.9824H28.7373V18.2425H32.4773V21.9824Z" fill="black"/>
<path d="M37.9699 36.8847H33.4868V31.285L37.9699 31.285V36.8847Z" fill="black"/>
<path d="M43.1198 36.8847H38.6367V31.285L43.1198 31.285V36.8847Z" fill="black"/>
<path d="M46.8595 30.7249H42.5828V25.9678L46.8595 25.9678V30.7249Z" fill="black"/>
<path d="M31.7139 35.1974H27.9739V31.4575H31.7139V35.1974Z" fill="black"/>
<path d="M41.9923 21.9452H32.9714V30.9661H41.9923V21.9452Z" fill="#BDC7C7"/>
<path d="M45.1479 21.0317H42.5376V18.4215H45.1479V21.0317Z" fill="black"/>
</svg>
