<svg width="12" height="12" viewBox="0 0 12 12" fill="none" xmlns="http://www.w3.org/2000/svg">
<path d="M8.24958 7.12498C8.20023 7.12526 8.15131 7.1158 8.10562 7.09714C8.05993 7.07848 8.01837 7.05098 7.98333 7.01623L5.99958 5.02873L4.01583 7.01623C3.98087 7.05119 3.93936 7.07893 3.89367 7.09785C3.84799 7.11677 3.79903 7.12651 3.74958 7.12651C3.70013 7.12651 3.65117 7.11677 3.60549 7.09785C3.5598 7.07893 3.5183 7.05119 3.48333 7.01623C3.44837 6.98126 3.42063 6.93975 3.40171 6.89407C3.38279 6.84839 3.37305 6.79942 3.37305 6.74998C3.37305 6.70053 3.38279 6.65157 3.40171 6.60588C3.42063 6.5602 3.44837 6.51869 3.48333 6.48373L5.73333 4.23373C5.76819 4.19858 5.80967 4.17068 5.85537 4.15164C5.90106 4.1326 5.95008 4.1228 5.99958 4.1228C6.04909 4.1228 6.0981 4.1326 6.1438 4.15164C6.18949 4.17068 6.23097 4.19858 6.26583 4.23373L8.51583 6.48373C8.55098 6.51859 8.57888 6.56006 8.59792 6.60576C8.61695 6.65146 8.62676 6.70047 8.62676 6.74998C8.62676 6.79948 8.61695 6.8485 8.59792 6.89419C8.57888 6.93989 8.55098 6.98137 8.51583 7.01623C8.48079 7.05098 8.43924 7.07848 8.39355 7.09714C8.34786 7.1158 8.29893 7.12526 8.24958 7.12498Z" fill="currentColor"/>
</svg>
