<svg width="12" height="12" viewBox="0 0 12 12" fill="none" xmlns="http://www.w3.org/2000/svg">
<path d="M9.26647 8.73376C9.30162 8.76862 9.32952 8.81009 9.34856 8.85579C9.36759 8.90149 9.3774 8.9505 9.3774 9.00001C9.3774 9.04951 9.36759 9.09853 9.34856 9.14422C9.32952 9.18992 9.30162 9.2314 9.26647 9.26626C9.23161 9.30141 9.19014 9.3293 9.14444 9.34834C9.09874 9.36738 9.04973 9.37718 9.00022 9.37718C8.95072 9.37718 8.9017 9.36738 8.856 9.34834C8.81031 9.3293 8.76883 9.30141 8.73397 9.26626L6.00022 6.53251L3.26647 9.26626C3.23161 9.30141 3.19013 9.3293 3.14444 9.34834C3.09874 9.36738 3.04973 9.37718 3.00022 9.37718C2.95072 9.37718 2.9017 9.36738 2.856 9.34834C2.81031 9.3293 2.76883 9.30141 2.73397 9.26626C2.69882 9.2314 2.67093 9.18992 2.65189 9.14422C2.63285 9.09853 2.62305 9.04951 2.62305 9.00001C2.62305 8.9505 2.63285 8.90149 2.65189 8.85579C2.67093 8.81009 2.69882 8.76862 2.73397 8.73376L5.46772 6.00001L2.73397 3.26626C2.69901 3.23129 2.67127 3.18979 2.65235 3.1441C2.63343 3.09842 2.62369 3.04946 2.62369 3.00001C2.62369 2.95056 2.63343 2.9016 2.65235 2.85592C2.67127 2.81023 2.69901 2.76872 2.73397 2.73376C2.76894 2.69879 2.81044 2.67106 2.85613 2.65214C2.90181 2.63321 2.95077 2.62347 3.00022 2.62347C3.04967 2.62347 3.09863 2.63321 3.14431 2.65214C3.19 2.67106 3.23151 2.69879 3.26647 2.73376L6.00022 5.46751L8.73397 2.73376C8.80459 2.66314 8.90036 2.62347 9.00022 2.62347C9.10008 2.62347 9.19586 2.66314 9.26647 2.73376C9.33708 2.80437 9.37676 2.90015 9.37676 3.00001C9.37676 3.09987 9.33708 3.19564 9.26647 3.26626L6.53272 6.00001L9.26647 8.73376Z" fill="currentColor"/>
</svg>
