<svg width="612" height="264" viewBox="0 0 612 264" fill="none" xmlns="http://www.w3.org/2000/svg">
<path d="M360.52 81.7551C361.28 81.7551 361.896 81.1388 361.896 80.3785C361.896 79.6183 361.28 79.002 360.52 79.002C359.759 79.002 359.143 79.6183 359.143 80.3785C359.143 81.1388 359.759 81.7551 360.52 81.7551Z" fill="#22292A"/>
<g opacity="0.5">
<path d="M180.518 89.002H26.272C24.6831 89.002 23.395 90.2825 23.395 91.8621V196.142C23.395 197.721 24.6831 199.002 26.272 199.002H180.518C182.107 199.002 183.395 197.721 183.395 196.142V91.8621C183.395 90.2825 182.107 89.002 180.518 89.002Z" fill="#2C353A" stroke="#95A5A6" stroke-miterlimit="10"/>
<path d="M53.2682 109.522H177.844V137.544H50.3735V112.4C50.3735 110.812 51.6708 109.522 53.2682 109.522Z" fill="#22292A"/>
<path d="M28.0371 105.609H38.0085" stroke="#90A5A5" stroke-width="2" stroke-linecap="round" stroke-linejoin="round"/>
<path d="M42.8809 105.609H50.8403" stroke="#90A5A5" stroke-width="2" stroke-linecap="round" stroke-linejoin="round"/>
<path d="M28.0371 128.771H38.0713" stroke="#323D42" stroke-width="2" stroke-miterlimit="10" stroke-linecap="round"/>
<path d="M28.0371 133.491H38.945" stroke="#323D42" stroke-width="2" stroke-miterlimit="10" stroke-linecap="round"/>
<path d="M28.0371 142.932H41.9544" stroke="#323D42" stroke-width="2" stroke-miterlimit="10" stroke-linecap="round"/>
<path d="M28.0371 138.212H37.6909" stroke="#323D42" stroke-width="2" stroke-miterlimit="10" stroke-linecap="round"/>
<path d="M28.0371 124.052H37.6909" stroke="#323D42" stroke-width="2" stroke-miterlimit="10" stroke-linecap="round"/>
<path d="M28.0371 117.752H44.0283" stroke="#404D54" stroke-width="2" stroke-miterlimit="10" stroke-linecap="round"/>
<path d="M28.0371 113.787H44.0283" stroke="#404D54" stroke-width="2" stroke-miterlimit="10" stroke-linecap="round"/>
<path d="M54.6094 130.649H104.145" stroke="#4E5A5B" stroke-width="2" stroke-miterlimit="10" stroke-linecap="round"/>
<path d="M54.6094 127.104H125.325" stroke="#4E5A5B" stroke-width="2" stroke-miterlimit="10" stroke-linecap="round"/>
<path d="M67.918 115.901H94.4552" stroke="#90A5A5" stroke-width="2" stroke-linecap="round" stroke-linejoin="round"/>
<path d="M54.5034 123.341H64.0601" stroke="#3E4A4F" stroke-width="2" stroke-miterlimit="10" stroke-linecap="round"/>
<path d="M67.9707 123.341H77.5274" stroke="#26AEB3" stroke-width="2" stroke-miterlimit="10" stroke-linecap="round"/>
<path d="M81.438 123.341H90.9947" stroke="#3E4A4F" stroke-width="2" stroke-miterlimit="10" stroke-linecap="round"/>
<path d="M94.9053 123.341H104.462" stroke="#3E4A4F" stroke-width="2" stroke-miterlimit="10" stroke-linecap="round"/>
<path d="M54.6094 134.193H115.626" stroke="#4E5A5B" stroke-width="2" stroke-miterlimit="10" stroke-linecap="round"/>
<path opacity="0.48" d="M52.3062 139.703H177.332C177.615 139.703 177.844 139.931 177.844 140.212V163.944C177.844 164.225 177.615 164.453 177.332 164.453H50.8854C50.603 164.453 50.3735 164.225 50.3735 163.944V141.624C50.3735 140.563 51.2384 139.703 52.3062 139.703Z" fill="#080F10"/>
<path d="M61.917 149.135H68.4911" stroke="#C586C0" stroke-width="1.5" stroke-miterlimit="10" stroke-linecap="round"/>
<path d="M70.6802 149.135H77.2543" stroke="#EC9A13" stroke-width="1.5" stroke-miterlimit="10" stroke-linecap="round"/>
<path d="M79.4434 149.135H86.0174" stroke="#7ECBCD" stroke-width="1.5" stroke-miterlimit="10" stroke-linecap="round"/>
<path d="M54.6094 146.134H66.0379" stroke="#C586C0" stroke-width="1.5" stroke-miterlimit="10" stroke-linecap="round"/>
<path d="M68.2271 146.134H116.898" stroke="#7ECBCD" stroke-width="1.5" stroke-miterlimit="10" stroke-linecap="round"/>
<path d="M54.6094 143.037H75.3308" stroke="#C586C0" stroke-width="1.5" stroke-miterlimit="10" stroke-linecap="round"/>
<path d="M78.6846 143.037H108.902" stroke="#7ECBCD" stroke-width="1.5" stroke-miterlimit="10" stroke-linecap="round"/>
<path d="M112.079 143.037H118.794" stroke="#EC9A13" stroke-width="1.5" stroke-miterlimit="10" stroke-linecap="round"/>
<path d="M61.917 152.126H76.6991" stroke="#0DA1A6" stroke-width="1.5" stroke-miterlimit="10" stroke-linecap="round"/>
<path d="M78.8877 152.126H90.5898" stroke="#EC9A13" stroke-width="1.5" stroke-miterlimit="10" stroke-linecap="round"/>
<path d="M92.7783 152.126H104.48" stroke="#4E5A5B" stroke-width="1.5" stroke-miterlimit="10" stroke-linecap="round"/>
<path d="M69.8066 155.127H81.5088" stroke="#EC9A13" stroke-width="1.5" stroke-miterlimit="10" stroke-linecap="round"/>
<path d="M83.6973 155.127H130.188" stroke="#4E5A5B" stroke-width="1.5" stroke-miterlimit="10" stroke-linecap="round"/>
<path d="M54.5127 158.127H61.0868" stroke="#C586C0" stroke-width="1.5" stroke-miterlimit="10" stroke-linecap="round"/>
<path d="M63.2759 158.127H112" stroke="#4E5A5B" stroke-width="1.5" stroke-miterlimit="10" stroke-linecap="round"/>
<path d="M54.645 161.128H61.2103" stroke="#EC9A13" stroke-width="1.5" stroke-miterlimit="10" stroke-linecap="round"/>
<path d="M63.4082 161.128H69.9735" stroke="#0DA1A6" stroke-width="1.5" stroke-miterlimit="10" stroke-linecap="round"/>
<path d="M72.1714 161.128H97.4201" stroke="#4E5A5B" stroke-width="1.5" stroke-miterlimit="10" stroke-linecap="round"/>
<path d="M99.3618 161.128H124.611" stroke="#C586C0" stroke-width="1.5" stroke-miterlimit="10" stroke-linecap="round"/>
<path d="M163.847 98.029C164.608 98.029 165.224 97.4163 165.224 96.6605C165.224 95.9047 164.608 95.292 163.847 95.292C163.087 95.292 162.471 95.9047 162.471 96.6605C162.471 97.4163 163.087 98.029 163.847 98.029Z" fill="#22292A"/>
<path d="M169.416 98.029C170.176 98.029 170.792 97.4163 170.792 96.6605C170.792 95.9047 170.176 95.292 169.416 95.292C168.655 95.292 168.039 95.9047 168.039 96.6605C168.039 97.4163 168.655 98.029 169.416 98.029Z" fill="#22292A"/>
<path d="M23.395 100.232H178.329" stroke="#22292A" stroke-width="2" stroke-miterlimit="10"/>
<path d="M96.4496 107.163H115.618C116.061 107.163 116.421 106.806 116.421 106.365V104.645C116.421 104.205 116.061 103.847 115.618 103.847H96.4496C96.0061 103.847 95.6465 104.205 95.6465 104.645V106.365C95.6465 106.806 96.0061 107.163 96.4496 107.163Z" fill="#22292A"/>
<path d="M104.842 103.847H96.6877C96.0639 103.847 95.5581 104.349 95.5581 104.97V106.04C95.5581 106.66 96.0639 107.163 96.6877 107.163H104.842C105.466 107.163 105.972 106.66 105.972 106.04V104.97C105.972 104.349 105.466 103.847 104.842 103.847Z" fill="#22292A" stroke="#087482" stroke-width="0.25" stroke-miterlimit="10"/>
<path d="M176.803 103.188H162.7C162.193 103.188 161.782 103.597 161.782 104.101V106.241C161.782 106.745 162.193 107.154 162.7 107.154H176.803C177.31 107.154 177.72 106.745 177.72 106.241V104.101C177.72 103.597 177.31 103.188 176.803 103.188Z" fill="#24C2C7"/>
<path d="M174.42 111.698H160.811C160.319 111.698 159.92 112.095 159.92 112.584V114.646C159.92 115.135 160.319 115.532 160.811 115.532H174.42C174.912 115.532 175.311 115.135 175.311 114.646V112.584C175.311 112.095 174.912 111.698 174.42 111.698Z" fill="#22474A"/>
<path d="M51.9444 182.481H176.282C177.147 182.481 177.853 183.183 177.853 184.043V194.633C177.853 195.492 177.147 196.194 176.282 196.194H52.0238C51.1148 196.194 50.3823 195.466 50.3823 194.562V184.043C50.3823 183.183 51.0883 182.481 51.9532 182.481H51.9444Z" fill="#22292A" stroke="#323D42" stroke-width="0.75" stroke-miterlimit="10"/>
<path d="M53.2505 193.133H65.0762" stroke="#26AEB3" stroke-width="1.5" stroke-miterlimit="10" stroke-linecap="round"/>
<path d="M53.2505 189.492H107.287" stroke="#4E5A5B" stroke-width="1.5" stroke-miterlimit="10" stroke-linecap="round"/>
<path d="M53.2505 186.289H70.336" stroke="#90A5A5" stroke-width="1.5" stroke-linecap="round" stroke-linejoin="round"/>
<path d="M79.5666 184.657H73.3279C72.9575 184.657 72.6572 184.956 72.6572 185.324V187.105C72.6572 187.473 72.9575 187.771 73.3279 187.771H79.5666C79.937 187.771 80.2373 187.473 80.2373 187.105V185.324C80.2373 184.956 79.937 184.657 79.5666 184.657Z" fill="#323D42"/>
<path d="M77.9872 187L77.8284 186.561H77.2195L77.0607 187H76.7871L77.3783 185.412H77.6695L78.2608 187H77.9872ZM77.7578 186.342L77.6078 185.912C77.6078 185.912 77.5901 185.868 77.5813 185.833C77.5725 185.798 77.5636 185.763 77.546 185.728C77.5372 185.693 77.5283 185.658 77.5195 185.64C77.5195 185.667 77.5019 185.702 77.4931 185.737C77.4842 185.772 77.4754 185.807 77.4666 185.842C77.4578 185.877 77.4489 185.895 77.4489 185.912L77.2989 186.342H77.7666H77.7578ZM78.499 187V185.421H78.7637V187H78.499Z" fill="#C9D2D2"/>
<path d="M75.7544 186.948L75.5602 186.755V186.439C75.5602 186.439 75.5602 186.404 75.5426 186.386L75.4014 186.246C75.4014 186.246 75.3661 186.228 75.3484 186.228H75.1367V186.088H75.2867C75.2867 186.088 75.322 186.079 75.3396 186.062L75.5426 185.851C75.5426 185.851 75.5602 185.825 75.5602 185.798V185.579C75.6838 185.553 75.772 185.439 75.772 185.316C75.772 185.167 75.6485 185.035 75.4896 185.035C75.3308 185.035 75.2161 185.158 75.2161 185.316C75.2161 185.447 75.3043 185.553 75.419 185.579V185.772L75.2602 185.939H75.1455V185.869C75.1455 185.79 75.0837 185.728 75.0043 185.728H74.7925V185.588C74.9161 185.553 75.0131 185.447 75.0131 185.316C75.0131 185.158 74.8808 185.035 74.7307 185.035C74.5807 185.035 74.4484 185.167 74.4484 185.316C74.4484 185.447 74.5366 185.561 74.669 185.588V185.728H74.4572C74.3778 185.728 74.316 185.79 74.316 185.869V185.947H74.1307L74.0336 185.851V185.597C74.1572 185.57 74.2454 185.456 74.2454 185.325C74.2454 185.167 74.1219 185.044 73.963 185.044C73.8042 185.044 73.6807 185.167 73.6807 185.325C73.6807 185.456 73.7689 185.562 73.8924 185.597V185.877C73.8924 185.877 73.8924 185.912 73.9101 185.93L74.0513 186.07C74.0513 186.07 74.0866 186.088 74.1042 186.088H74.316V186.219H74.1748C74.1748 186.219 74.1395 186.219 74.1219 186.237L73.9101 186.448C73.9101 186.448 73.8924 186.483 73.8924 186.5V186.719C73.7689 186.746 73.6807 186.86 73.6807 186.983C73.6807 187.132 73.8042 187.255 73.963 187.255C74.1219 187.255 74.2454 187.132 74.2454 186.983C74.2454 186.86 74.1572 186.746 74.0425 186.719V186.526L74.2101 186.36H74.316V186.43C74.316 186.509 74.3778 186.57 74.4572 186.57H74.669V186.711C74.5454 186.746 74.4484 186.851 74.4484 186.983C74.4484 187.141 74.5807 187.272 74.7396 187.272C74.8984 187.272 75.0308 187.141 75.0308 186.983C75.0308 186.851 74.9337 186.737 74.8102 186.711V186.57H75.0219C75.1014 186.57 75.1631 186.509 75.1631 186.43V186.36H75.3484L75.4455 186.456V186.728L75.2337 186.939C75.2161 186.956 75.2161 186.991 75.2337 187.018L75.472 187.255C75.472 187.255 75.4985 187.272 75.5073 187.272C75.5161 187.272 75.5338 187.272 75.5426 187.255L75.7808 187.018C75.7808 187.018 75.7985 186.965 75.7808 186.939L75.7544 186.948Z" fill="#C9D2D2"/>
<path d="M61.5375 111.022H55.4658C54.3448 111.022 53.436 111.926 53.436 113.04V119.076C53.436 120.191 54.3448 121.094 55.4658 121.094H61.5375C62.6585 121.094 63.5673 120.191 63.5673 119.076V113.04C63.5673 111.926 62.6585 111.022 61.5375 111.022Z" fill="black"/>
<path fill-rule="evenodd" clip-rule="evenodd" d="M59.7365 115.041C60.1071 115.278 60.4071 115.603 60.5924 115.998C60.6013 116.015 60.6101 116.041 60.6101 116.068C60.6101 116.094 60.6101 116.112 60.5924 116.138C60.4071 116.533 60.1071 116.866 59.7365 117.094C59.3659 117.331 58.9335 117.454 58.5011 117.454C58.0687 117.454 57.6363 117.331 57.2657 117.094C56.8951 116.857 56.5951 116.533 56.4097 116.138C56.4009 116.12 56.3921 116.094 56.3921 116.068C56.3921 116.041 56.3921 116.024 56.4097 115.998C56.5951 115.603 56.8951 115.269 57.2657 115.041C57.6363 114.804 58.0687 114.682 58.5011 114.682C58.9335 114.682 59.3659 114.804 59.7365 115.041ZM58.0687 116.699C58.1922 116.787 58.3423 116.831 58.5011 116.831C58.704 116.831 58.8982 116.752 59.0482 116.603C59.1982 116.454 59.2776 116.261 59.2776 116.059C59.2776 115.91 59.2335 115.761 59.1453 115.629C59.057 115.497 58.9423 115.401 58.8011 115.348C58.6599 115.287 58.5011 115.278 58.3511 115.304C58.2011 115.331 58.0599 115.41 57.954 115.515C57.8481 115.62 57.7687 115.761 57.7422 115.91C57.7157 116.059 57.7246 116.217 57.7863 116.357C57.8481 116.498 57.9452 116.62 58.0687 116.699ZM58.96 116.059C58.96 116.313 58.7482 116.524 58.4923 116.524C58.2364 116.524 58.0246 116.313 58.0246 116.059C58.0246 115.805 58.2364 115.594 58.4923 115.594C58.7482 115.594 58.96 115.805 58.96 116.059Z" fill="#15ADDF"/>
<path fill-rule="evenodd" clip-rule="evenodd" d="M34.0913 95.5379C35.0444 97.1959 36.5358 98.0994 38.3009 98.0994C40.3218 98.0994 41.9633 96.459 41.9633 94.4501C41.9633 92.4412 40.3218 90.8008 38.3009 90.8008C36.5358 90.8008 35.0444 91.7131 34.0913 93.3623C33.1382 91.7043 31.6467 90.8008 29.8817 90.8008C27.8607 90.8008 26.2192 92.4412 26.2192 94.4501C26.2192 96.459 27.8607 98.0994 29.8817 98.0994C31.6467 98.0994 33.1382 97.1871 34.0913 95.5379ZM34.9385 94.9063L34.6914 94.4501L34.9385 93.9939C35.7063 92.5816 36.8712 91.8359 38.3009 91.8359C39.7305 91.8359 40.9131 93.0027 40.9131 94.4413C40.9131 95.88 39.7394 97.0467 38.3009 97.0467C36.8624 97.0467 35.7063 96.3011 34.9385 94.8887V94.9063ZM27.2694 94.4501C27.2694 93.0114 28.4432 91.8447 29.8817 91.8447C31.3202 91.8447 32.4763 92.5904 33.2441 94.0027L33.4912 94.4589L33.2441 94.915C32.4763 96.3274 31.3114 97.0731 29.8817 97.0731C28.452 97.0731 27.2694 95.9063 27.2694 94.4677V94.4501ZM38.4244 94.8449H39.2275V94.0817H38.4244V93.2834H37.6566V94.0817H36.8535V94.8449H37.6566V95.6432H38.4244V94.8449ZM31.3114 94.0817H28.9374V94.8449H31.3114V94.0817Z" fill="#087482"/>
</g>
<g filter="url(#filter0_d_1700_27477)">
<path d="M608.471 88.6182H454.329C452.714 88.6182 451.405 89.8795 451.405 91.4354V195.801C451.405 197.357 452.714 198.618 454.329 198.618H608.471C610.086 198.618 611.395 197.357 611.395 195.801V91.4354C611.395 89.8795 610.086 88.6182 608.471 88.6182Z" fill="#DAE3E3"/>
<path d="M454.195 88.6182H608.442C610.067 88.6182 611.385 89.8887 611.385 91.4538V105.577H451.395V91.3065C451.395 89.8242 452.647 88.6182 454.186 88.6182H454.195Z" fill="#7769E0" fill-opacity="0.5"/>
<path d="M597.929 94.4824H584.569C583.999 94.4824 583.537 94.9276 583.537 95.4767V97.5114C583.537 98.0605 583.999 98.5057 584.569 98.5057H597.929C598.499 98.5057 598.961 98.0605 598.961 97.5114V95.4767C598.961 94.9276 598.499 94.4824 597.929 94.4824Z" fill="white"/>
<path d="M606.837 96.4895C606.837 94.9641 605.553 93.7275 603.97 93.7275C602.386 93.7275 601.103 94.9641 601.103 96.4895C601.103 98.0149 602.386 99.2515 603.97 99.2515C605.553 99.2515 606.837 98.0149 606.837 96.4895Z" fill="white"/>
<path d="M481.26 109.232H458.199C457.291 109.232 456.555 109.941 456.555 110.816V114.001C456.555 114.876 457.291 115.585 458.199 115.585H481.26C482.167 115.585 482.903 114.876 482.903 114.001V110.816C482.903 109.941 482.167 109.232 481.26 109.232Z" fill="white" fill-opacity="0.5"/>
<path d="M509.959 117.536H458.199C457.291 117.536 456.555 118.245 456.555 119.12V193.803C456.555 194.678 457.291 195.387 458.199 195.387H509.959C510.866 195.387 511.602 194.678 511.602 193.803V119.12C511.602 118.245 510.866 117.536 509.959 117.536Z" fill="white" fill-opacity="0.5"/>
<path d="M604.447 109.232H516.066C515.158 109.232 514.422 109.941 514.422 110.816V154.4C514.422 155.274 515.158 155.983 516.066 155.983H604.447C605.355 155.983 606.091 155.274 606.091 154.4V110.816C606.091 109.941 605.355 109.232 604.447 109.232Z" fill="white" fill-opacity="0.5"/>
<path d="M604.447 158.81H516.066C515.158 158.81 514.422 159.519 514.422 160.393V166.267C514.422 167.141 515.158 167.85 516.066 167.85H604.447C605.355 167.85 606.091 167.141 606.091 166.267V160.393C606.091 159.519 605.355 158.81 604.447 158.81Z" fill="#7769E0"/>
<path d="M509.95 109.232H486.889C485.982 109.232 485.246 109.941 485.246 110.816V114.001C485.246 114.876 485.982 115.585 486.889 115.585H509.95C510.858 115.585 511.594 114.876 511.594 114.001V110.816C511.594 109.941 510.858 109.232 509.95 109.232Z" fill="white" fill-opacity="0.5"/>
<path d="M601.858 150.321H591.307C590.858 150.321 590.495 150.672 590.495 151.104V152.715C590.495 153.147 590.858 153.498 591.307 153.498H601.858C602.306 153.498 602.67 153.147 602.67 152.715V151.104C602.67 150.672 602.306 150.321 601.858 150.321Z" fill="#D8E3E3"/>
<path d="M515.922 170.667H557.179C558.087 170.667 558.823 171.376 558.823 172.251V176.053H514.269V172.251C514.269 171.376 515.005 170.667 515.913 170.667H515.922Z" fill="white"/>
<path d="M514.279 175.703H558.833V193.481C558.833 194.549 557.934 195.424 556.816 195.424H516.295C515.187 195.424 514.279 194.558 514.279 193.481V175.703Z" fill="white" fill-opacity="0.5"/>
<path d="M541.095 189.789H529.923C529.622 189.789 529.378 190.024 529.378 190.314V192.441C529.378 192.73 529.622 192.965 529.923 192.965H541.095C541.396 192.965 541.64 192.73 541.64 192.441V190.314C541.64 190.024 541.396 189.789 541.095 189.789Z" fill="#93A5A7"/>
<path d="M563.18 170.667H604.437C605.345 170.667 606.081 171.376 606.081 172.251V176.053H561.527V172.251C561.527 171.376 562.263 170.667 563.171 170.667H563.18Z" fill="white"/>
<path d="M561.527 175.703H606.081V193.481C606.081 194.549 605.182 195.424 604.064 195.424H563.543C562.435 195.424 561.527 194.558 561.527 193.481V175.703Z" fill="white" fill-opacity="0.5"/>
<path d="M588.353 189.789H577.181C576.88 189.789 576.636 190.024 576.636 190.314V192.441C576.636 192.73 576.88 192.965 577.181 192.965H588.353C588.654 192.965 588.898 192.73 588.898 192.441V190.314C588.898 190.024 588.654 189.789 588.353 189.789Z" fill="#93A5A7"/>
<path d="M458.639 120.086H486.516" stroke="#D8E3E3" stroke-width="1.5" stroke-miterlimit="10" stroke-linecap="round"/>
<path d="M471.11 91.2422H457.004C456.461 91.2422 456.02 91.6667 456.02 92.1905V101.94C456.02 102.464 456.461 102.888 457.004 102.888H471.11C471.654 102.888 472.095 102.464 472.095 101.94V92.1905C472.095 91.6667 471.654 91.2422 471.11 91.2422Z" fill="white"/>
<path d="M460.427 100.292C460.427 100.292 460.216 100.504 460.169 100.532C460.063 100.596 459.949 100.642 459.834 100.679C459.595 100.743 459.337 100.725 459.098 100.642C458.506 100.44 458.228 99.7584 458.4 99.1968C458.506 98.8377 458.792 98.5155 459.175 98.4142C459.643 98.2946 460.207 98.4603 460.427 98.8469H469.181L469.764 100.292H460.427Z" fill="#F8572E"/>
<path d="M460.455 94.8411C459.881 95.4855 458.505 95.2554 458.371 94.3255C458.19 93.0458 459.595 92.429 460.503 93.3404H467.078L467.661 94.8319H460.455V94.8411Z" fill="#3DBFCE"/>
<path d="M459.441 96.0571H463.809C464.678 96.2688 464.65 97.4657 463.771 97.6314H459.527C459.03 97.6314 458.619 97.2079 458.677 96.7291C458.705 96.4898 458.839 96.2688 459.088 96.1399C459.202 96.0755 459.327 96.0479 459.451 96.0479L459.441 96.0571Z" fill="#A3D00B"/>
<path d="M468.712 97.6406H466.007C465.462 97.6406 465.032 97.1526 465.147 96.6371C465.195 96.4253 465.338 96.232 465.568 96.1215C465.682 96.0663 465.806 96.0479 465.94 96.0479L468.11 96.0755L468.712 97.6498V97.6406Z" fill="#FDBA09"/>
</g>
<path d="M482.325 64H443.287C441.137 64 439.395 65.7425 439.395 67.8919V106.934C439.395 109.084 441.137 110.826 443.287 110.826H482.325C484.474 110.826 486.217 109.084 486.217 106.934V67.8919C486.217 65.7425 484.474 64 482.325 64Z" fill="#192124" stroke="#22292A" stroke-width="0.79" stroke-miterlimit="10"/>
<path d="M455.305 94.8788C455.244 94.8788 454.864 95.3288 454.767 95.3906C454.555 95.5318 454.317 95.6377 454.07 95.6994C453.576 95.8318 453.038 95.8053 452.561 95.6288C451.343 95.1876 450.77 93.7405 451.114 92.5227C451.334 91.755 451.926 91.0579 452.72 90.8549C453.682 90.6078 454.846 90.9608 455.305 91.7726H473.386L474.586 94.87C474.586 94.87 455.314 94.87 455.297 94.87L455.305 94.8788Z" fill="#F8572E"/>
<path d="M455.358 83.1762C454.176 84.5527 451.334 84.0674 451.061 82.082C450.681 79.3464 453.584 78.0228 455.455 79.973H469.027L470.236 83.1762H455.358Z" fill="#3DBFCE"/>
<path d="M453.267 85.7891H462.285C464.086 86.2479 464.024 88.8158 462.197 89.1688L453.435 89.1511C452.402 89.1511 451.564 88.2599 451.687 87.2362C451.749 86.7333 452.023 86.2568 452.526 85.9744C452.755 85.842 453.011 85.7891 453.276 85.7891H453.267Z" fill="#A3D00B"/>
<path d="M472.416 89.1777H466.839C465.701 89.1777 464.818 88.1364 465.074 87.0245C465.18 86.5657 465.471 86.1509 465.939 85.9215C466.177 85.8068 466.442 85.7538 466.698 85.7627L471.172 85.8156L472.416 89.1777Z" fill="#FDBA09"/>
<path d="M43.3251 64H4.28652C2.13731 64 0.39502 65.7425 0.39502 67.8919V106.934C0.39502 109.084 2.13731 110.826 4.28652 110.826H43.3251C45.4743 110.826 47.2166 109.084 47.2166 106.934V67.8919C47.2166 65.7425 45.4743 64 43.3251 64Z" fill="#ECF1F1" stroke="#22292A" stroke-width="0.79" stroke-miterlimit="10"/>
<path d="M31.4155 80C35.2642 80 38.395 83.1401 38.395 87C38.395 90.8599 35.2642 94 31.4155 94C28.0563 94 25.2183 92.2576 23.395 89.0859C21.5718 92.2576 18.7338 94 15.3745 94C11.5259 94 8.39502 90.8599 8.39502 87C8.39502 83.1401 11.5259 80 15.3745 80C18.7338 80 21.5718 81.7424 23.395 84.9141C25.2183 81.7424 28.0563 80 31.4155 80ZM15.3745 82C12.6289 82 10.395 84.2432 10.395 87C10.395 89.7568 12.6289 92 15.3745 92C18.0972 92 20.313 90.5718 21.7837 87.8691L22.2563 87L21.7837 86.1309C20.313 83.4282 18.0972 82 15.3745 82ZM31.4155 82C28.6929 82 26.477 83.4282 25.0063 86.1309L24.5337 87L25.0063 87.8691C26.477 90.5718 28.6929 92 31.4155 92C34.1611 92 36.395 89.7568 36.395 87C36.395 84.2432 34.1611 82 31.4155 82ZM31.6479 86.2891H33.1763V87.75H31.6479V89.2881H30.188V87.75H28.6577V86.2891H30.188V84.751H31.6479V86.2891ZM18.0894 87.75H13.5688V86.2891H18.0894V87.75Z" fill="#171E21"/>
<g filter="url(#filter1_d_1700_27477)">
<path d="M63.7281 164H189.552C190.561 164 191.379 164.818 191.379 165.827V180.583C191.379 181.592 190.561 182.411 189.552 182.411H63.819C62.7645 182.411 61.9009 181.556 61.9009 180.492V165.827C61.9009 164.818 62.719 164 63.7281 164Z" fill="#22292A" stroke="#95A5A6" stroke-width="0.75" stroke-miterlimit="10"/>
<path d="M65.7373 178.301H81.5187" stroke="#26AEB3" stroke-width="1.5" stroke-miterlimit="10" stroke-linecap="round"/>
<path d="M65.7373 173.41H137.845" stroke="#4E5A5B" stroke-width="1.5" stroke-miterlimit="10" stroke-linecap="round"/>
<path d="M65.7373 169.118H88.5367" stroke="#90A5A5" stroke-width="1.5" stroke-linecap="round" stroke-linejoin="round"/>
<path d="M100.845 166.927H92.5274C92.0304 166.927 91.6274 167.33 91.6274 167.827V170.208C91.6274 170.706 92.0304 171.108 92.5274 171.108H100.845C101.342 171.108 101.745 170.706 101.745 170.208V167.827C101.745 167.33 101.342 166.927 100.845 166.927Z" fill="#26AEB3"/>
<path d="M98.7452 170.082L98.5361 169.491H97.727L97.5179 170.082H97.1543L97.9452 167.945H98.3361L99.127 170.082H98.7543H98.7452ZM98.4452 169.191L98.2452 168.609C98.2452 168.609 98.227 168.545 98.2088 168.5C98.1906 168.454 98.1815 168.409 98.1634 168.354C98.1452 168.309 98.1361 168.263 98.127 168.236C98.1179 168.273 98.1088 168.318 98.0906 168.373C98.0816 168.418 98.0634 168.463 98.0543 168.509C98.0452 168.554 98.0361 168.582 98.027 168.609L97.827 169.191H98.4543H98.4452ZM99.427 170.082V167.954H99.7724V170.082H99.427Z" fill="#D8E3E3"/>
<path d="M95.7727 170.009L95.509 169.746V169.327C95.509 169.327 95.509 169.282 95.4908 169.264L95.2999 169.073C95.2999 169.073 95.2545 169.046 95.2363 169.046H94.9545V168.855H95.1545C95.1545 168.855 95.1999 168.846 95.2181 168.827L95.4908 168.546C95.4908 168.546 95.5181 168.5 95.5181 168.482V168.191C95.6818 168.155 95.7999 168.009 95.7999 167.837C95.7999 167.627 95.6363 167.464 95.4272 167.464C95.2181 167.464 95.0545 167.627 95.0545 167.837C95.0545 168.009 95.1727 168.155 95.3272 168.191V168.446L95.109 168.673H94.9545V168.582C94.9545 168.482 94.8727 168.4 94.7727 168.4H94.4909V168.218C94.6545 168.173 94.7818 168.027 94.7818 167.846C94.7818 167.637 94.6091 167.464 94.4 167.464C94.1909 167.464 94.0182 167.637 94.0182 167.846C94.0182 168.027 94.1454 168.173 94.3091 168.218V168.4H94.0273C93.9273 168.4 93.8454 168.482 93.8454 168.582V168.682H93.6L93.4636 168.546V168.2C93.6273 168.155 93.7454 168.009 93.7454 167.837C93.7454 167.627 93.5818 167.464 93.3727 167.464C93.1636 167.464 93 167.627 93 167.837C93 168.009 93.1182 168.155 93.2818 168.2V168.582C93.2818 168.582 93.2909 168.627 93.3091 168.646L93.5 168.837C93.5 168.837 93.5454 168.864 93.5636 168.864H93.8454V169.046H93.6636C93.6636 169.046 93.6182 169.055 93.6 169.073L93.3182 169.355C93.3182 169.355 93.2909 169.4 93.2909 169.418V169.718C93.1273 169.755 93.0091 169.9 93.0091 170.073C93.0091 170.282 93.1727 170.446 93.3818 170.446C93.5909 170.446 93.7545 170.282 93.7545 170.073C93.7545 169.9 93.6363 169.764 93.4818 169.718V169.455L93.7091 169.227H93.8545V169.327C93.8545 169.427 93.9363 169.509 94.0363 169.509H94.3182V169.691C94.1545 169.737 94.0273 169.882 94.0273 170.064C94.0273 170.273 94.2 170.446 94.4091 170.446C94.6181 170.446 94.7909 170.273 94.7909 170.064C94.7909 169.882 94.6636 169.737 94.5 169.691V169.509H94.7818C94.8818 169.509 94.9636 169.427 94.9636 169.327V169.237H95.209L95.3454 169.373V169.737L95.0636 170.018C95.0363 170.046 95.0363 170.091 95.0636 170.118L95.3818 170.437C95.3818 170.437 95.4181 170.455 95.4363 170.455C95.4545 170.455 95.4727 170.455 95.4908 170.437L95.809 170.118C95.809 170.118 95.8363 170.046 95.809 170.018L95.7727 170.009Z" fill="#D8E3E3"/>
</g>
<path d="M254.925 245.471C255.218 245.764 255.218 246.238 254.925 246.531L250.152 251.304C249.859 251.597 249.385 251.597 249.092 251.304C248.799 251.011 248.799 250.537 249.092 250.244L253.334 246.001L249.092 241.758C248.799 241.465 248.799 240.991 249.092 240.698C249.385 240.405 249.859 240.405 250.152 240.698L254.925 245.471ZM116.183 246.001L116.183 246.751V246.751L116.183 246.001ZM103.395 234.824L104.145 234.824L104.145 234.824L103.395 234.824ZM254.395 246.001L254.395 246.751L116.183 246.751L116.183 246.001L116.183 245.251L254.395 245.251L254.395 246.001ZM116.183 246.001L116.183 246.751C113.784 246.751 111.734 246.752 110.034 246.572C108.334 246.392 106.888 246.024 105.739 245.218C104.568 244.396 103.793 243.181 103.314 241.49C102.841 239.818 102.645 237.64 102.645 234.824L103.395 234.824L104.145 234.824C104.145 237.596 104.341 239.609 104.758 241.081C105.169 242.533 105.781 243.415 106.601 243.99C107.442 244.581 108.589 244.911 110.192 245.08C111.795 245.25 113.756 245.251 116.183 245.251L116.183 246.001ZM103.395 234.824L102.645 234.824L102.645 204.001L103.395 204.001L104.145 204.001L104.145 234.824L103.395 234.824Z" fill="#93A5A7"/>
<path d="M516.098 246.001L516.098 246.751V246.751L516.098 246.001ZM527.395 239.88L526.645 239.88V239.88L527.395 239.88ZM527.925 222.471C527.632 222.178 527.158 222.178 526.865 222.471L522.092 227.244C521.799 227.537 521.799 228.011 522.092 228.304C522.385 228.597 522.859 228.597 523.152 228.304L527.395 224.062L531.638 228.304C531.931 228.597 532.405 228.597 532.698 228.304C532.991 228.011 532.991 227.537 532.698 227.244L527.925 222.471ZM393.395 246.001L393.395 246.751L516.098 246.751L516.098 246.001L516.098 245.251L393.395 245.251L393.395 246.001ZM516.098 246.001L516.098 246.751C518.221 246.751 520.02 246.751 521.509 246.654C522.991 246.557 524.242 246.359 525.243 245.924C526.279 245.473 527.036 244.772 527.511 243.73C527.97 242.725 528.145 241.451 528.145 239.88L527.395 239.88L526.645 239.88C526.645 241.37 526.474 242.391 526.147 243.107C525.836 243.787 525.367 244.234 524.645 244.548C523.887 244.878 522.847 245.063 521.411 245.157C519.982 245.251 518.238 245.251 516.098 245.251L516.098 246.001ZM527.395 239.88L528.145 239.88L528.145 223.001L527.395 223.001L526.645 223.001L526.645 239.88L527.395 239.88Z" fill="#93A5A7"/>
<path d="M436.365 42.5303C436.072 42.2374 436.072 41.7626 436.365 41.4697L441.138 36.6967C441.431 36.4038 441.905 36.4038 442.198 36.6967C442.491 36.9896 442.491 37.4645 442.198 37.7574L437.956 42L442.198 46.2426C442.491 46.5355 442.491 47.0104 442.198 47.3033C441.905 47.5962 441.431 47.5962 441.138 47.3033L436.365 42.5303ZM527.846 42L527.846 41.25L527.846 42ZM534.895 53.1774L534.145 53.1774V53.1774L534.895 53.1774ZM436.895 42L436.895 41.25L527.846 41.25L527.846 42L527.846 42.75L436.895 42.75L436.895 42ZM527.846 42L527.846 41.25C529.151 41.25 530.338 41.2471 531.333 41.4381C532.366 41.6363 533.265 42.0548 533.955 42.934C534.621 43.7812 535.03 44.9788 535.283 46.5999C535.537 48.2297 535.645 50.3715 535.645 53.1774L534.895 53.1774L534.145 53.1774C534.145 50.3946 534.037 48.3449 533.801 46.8311C533.563 45.3085 533.208 44.4103 532.776 43.8604C532.369 43.3424 531.838 43.0623 531.051 42.9112C530.226 42.7529 529.201 42.75 527.846 42.75L527.846 42ZM534.895 53.1774L535.645 53.1774L535.645 84L534.895 84L534.145 84L534.145 53.1774L534.895 53.1774Z" fill="#8BF4EE"/>
<path d="M111.041 42L111.041 41.25L111.041 42ZM103.895 53.1774L104.645 53.1774L104.645 53.1774L103.895 53.1774ZM103.365 84.5303C103.658 84.8232 104.132 84.8232 104.425 84.5303L109.198 79.7574C109.491 79.4645 109.491 78.9896 109.198 78.6967C108.905 78.4038 108.431 78.4038 108.138 78.6967L103.895 82.9393L99.6524 78.6967C99.3595 78.4038 98.8846 78.4038 98.5917 78.6967C98.2988 78.9896 98.2988 79.4645 98.5917 79.7574L103.365 84.5303ZM201.895 42L201.895 41.25L111.041 41.25L111.041 42L111.041 42.75L201.895 42.75L201.895 42ZM111.041 42L111.041 41.25C109.717 41.25 108.517 41.2471 107.51 41.4377C106.466 41.6352 105.558 42.0519 104.859 42.93C104.184 43.7776 103.769 44.9761 103.512 46.5983C103.254 48.2289 103.145 50.3714 103.145 53.1774L103.895 53.1774L104.645 53.1774C104.645 50.3948 104.755 48.3457 104.994 46.8326C105.235 45.3112 105.595 44.414 106.032 43.8643C106.445 43.3453 106.986 43.0634 107.789 42.9116C108.627 42.7529 109.668 42.75 111.041 42.75L111.041 42ZM103.895 53.1774L103.145 53.1774L103.145 84L103.895 84L104.645 84L104.645 53.1774L103.895 53.1774Z" fill="#8BF4EE"/>
<rect x="238.895" y="231" width="174" height="32" rx="8" fill="#192124"/>
<rect x="238.895" y="231" width="174" height="32" rx="8" stroke="#22292A" stroke-miterlimit="10"/>
<path d="M258.933 244.501C258.149 244.501 257.528 244.763 257.073 245.287C256.62 245.808 256.394 246.522 256.394 247.431C256.394 248.365 256.612 249.088 257.048 249.599C257.488 250.106 258.113 250.36 258.923 250.36C259.421 250.36 259.989 250.271 260.627 250.092V250.819C260.133 251.005 259.522 251.098 258.796 251.098C257.745 251.098 256.933 250.779 256.36 250.141C255.79 249.503 255.505 248.596 255.505 247.421C255.505 246.685 255.642 246.041 255.916 245.487C256.192 244.934 256.589 244.507 257.107 244.208C257.628 243.909 258.24 243.759 258.943 243.759C259.692 243.759 260.346 243.896 260.906 244.169L260.554 244.882C260.014 244.628 259.473 244.501 258.933 244.501ZM264.604 245.551C264.842 245.551 265.055 245.57 265.244 245.609L265.132 246.361C264.91 246.312 264.715 246.288 264.546 246.288C264.113 246.288 263.742 246.464 263.433 246.815C263.127 247.167 262.974 247.605 262.974 248.129V251H262.163V245.648H262.832L262.925 246.64H262.964C263.162 246.291 263.402 246.023 263.682 245.834C263.961 245.645 264.269 245.551 264.604 245.551ZM268.606 251.098C267.815 251.098 267.19 250.857 266.731 250.375C266.275 249.893 266.047 249.224 266.047 248.368C266.047 247.506 266.259 246.82 266.682 246.312C267.108 245.805 267.68 245.551 268.396 245.551C269.066 245.551 269.597 245.772 269.988 246.215C270.378 246.654 270.574 247.235 270.574 247.958V248.471H266.887C266.903 249.099 267.061 249.576 267.361 249.901C267.663 250.227 268.088 250.39 268.635 250.39C269.211 250.39 269.781 250.269 270.344 250.028V250.751C270.058 250.875 269.786 250.963 269.529 251.015C269.275 251.07 268.967 251.098 268.606 251.098ZM268.386 246.229C267.956 246.229 267.613 246.369 267.356 246.649C267.102 246.929 266.952 247.317 266.907 247.812H269.704C269.704 247.3 269.59 246.91 269.363 246.64C269.135 246.366 268.809 246.229 268.386 246.229ZM275.351 251L275.19 250.238H275.151C274.884 250.574 274.617 250.801 274.35 250.922C274.087 251.039 273.756 251.098 273.359 251.098C272.828 251.098 272.412 250.961 272.109 250.688C271.81 250.414 271.66 250.025 271.66 249.521C271.66 248.44 272.524 247.873 274.253 247.821L275.161 247.792V247.46C275.161 247.04 275.07 246.731 274.887 246.532C274.708 246.33 274.42 246.229 274.023 246.229C273.577 246.229 273.073 246.366 272.509 246.64L272.26 246.02C272.524 245.876 272.812 245.764 273.125 245.683C273.44 245.601 273.756 245.561 274.072 245.561C274.71 245.561 275.182 245.702 275.488 245.985C275.797 246.269 275.952 246.723 275.952 247.348V251H275.351ZM273.52 250.429C274.025 250.429 274.42 250.29 274.707 250.014C274.996 249.737 275.141 249.35 275.141 248.852V248.368L274.331 248.402C273.686 248.425 273.221 248.526 272.934 248.705C272.651 248.881 272.509 249.156 272.509 249.53C272.509 249.823 272.597 250.046 272.773 250.199C272.952 250.352 273.201 250.429 273.52 250.429ZM279.455 250.429C279.598 250.429 279.737 250.419 279.87 250.399C280.004 250.377 280.109 250.354 280.188 250.331V250.951C280.1 250.993 279.969 251.028 279.797 251.054C279.628 251.083 279.475 251.098 279.338 251.098C278.303 251.098 277.785 250.552 277.785 249.462V246.278H277.019V245.888L277.785 245.551L278.127 244.408H278.596V245.648H280.149V246.278H278.596V249.428C278.596 249.75 278.672 249.997 278.825 250.17C278.978 250.342 279.188 250.429 279.455 250.429ZM283.623 251.098C282.832 251.098 282.207 250.857 281.748 250.375C281.292 249.893 281.064 249.224 281.064 248.368C281.064 247.506 281.276 246.82 281.699 246.312C282.125 245.805 282.696 245.551 283.413 245.551C284.083 245.551 284.614 245.772 285.004 246.215C285.395 246.654 285.59 247.235 285.59 247.958V248.471H281.904C281.92 249.099 282.078 249.576 282.377 249.901C282.68 250.227 283.105 250.39 283.652 250.39C284.228 250.39 284.798 250.269 285.361 250.028V250.751C285.074 250.875 284.803 250.963 284.545 251.015C284.292 251.07 283.984 251.098 283.623 251.098ZM283.403 246.229C282.973 246.229 282.63 246.369 282.373 246.649C282.119 246.929 281.969 247.317 281.923 247.812H284.721C284.721 247.3 284.607 246.91 284.379 246.64C284.152 246.366 283.826 246.229 283.403 246.229ZM293.066 251L292.905 250.238H292.866C292.599 250.574 292.332 250.801 292.065 250.922C291.801 251.039 291.471 251.098 291.074 251.098C290.543 251.098 290.126 250.961 289.824 250.688C289.524 250.414 289.374 250.025 289.374 249.521C289.374 248.44 290.239 247.873 291.967 247.821L292.875 247.792V247.46C292.875 247.04 292.784 246.731 292.602 246.532C292.423 246.33 292.135 246.229 291.738 246.229C291.292 246.229 290.787 246.366 290.224 246.64L289.975 246.02C290.239 245.876 290.527 245.764 290.839 245.683C291.155 245.601 291.471 245.561 291.786 245.561C292.424 245.561 292.896 245.702 293.202 245.985C293.512 246.269 293.666 246.723 293.666 247.348V251H293.066ZM291.235 250.429C291.739 250.429 292.135 250.29 292.421 250.014C292.711 249.737 292.856 249.35 292.856 248.852V248.368L292.045 248.402C291.401 248.425 290.935 248.526 290.649 248.705C290.366 248.881 290.224 249.156 290.224 249.53C290.224 249.823 290.312 250.046 290.488 250.199C290.667 250.352 290.916 250.429 291.235 250.429ZM299.103 251V247.538C299.103 247.102 299.004 246.776 298.805 246.562C298.607 246.347 298.296 246.239 297.873 246.239C297.313 246.239 296.903 246.391 296.642 246.693C296.382 246.996 296.252 247.496 296.252 248.192V251H295.441V245.648H296.1L296.232 246.381H296.271C296.437 246.117 296.67 245.914 296.969 245.771C297.269 245.624 297.603 245.551 297.97 245.551C298.615 245.551 299.1 245.707 299.425 246.02C299.751 246.329 299.914 246.825 299.914 247.509V251H299.103ZM308.991 251L308.102 248.729H305.241L304.362 251H303.522L306.344 243.832H307.042L309.85 251H308.991ZM307.843 247.982L307.013 245.771C306.906 245.491 306.795 245.147 306.681 244.74C306.61 245.053 306.507 245.396 306.374 245.771L305.534 247.982H307.843ZM310.932 251V243.861H311.762V251H310.932ZM323.221 251V247.519C323.221 247.092 323.13 246.773 322.948 246.562C322.766 246.347 322.482 246.239 322.098 246.239C321.594 246.239 321.221 246.384 320.98 246.674C320.739 246.964 320.619 247.41 320.619 248.012V251H319.808V247.519C319.808 247.092 319.717 246.773 319.535 246.562C319.353 246.347 319.068 246.239 318.68 246.239C318.173 246.239 317.8 246.392 317.562 246.698C317.328 247.001 317.211 247.499 317.211 248.192V251H316.4V245.648H317.059L317.191 246.381H317.23C317.383 246.12 317.598 245.917 317.875 245.771C318.155 245.624 318.467 245.551 318.812 245.551C319.649 245.551 320.196 245.854 320.453 246.459H320.492C320.651 246.179 320.883 245.958 321.185 245.795C321.488 245.632 321.833 245.551 322.22 245.551C322.826 245.551 323.278 245.707 323.578 246.02C323.881 246.329 324.032 246.825 324.032 247.509V251H323.221ZM330.426 248.319C330.426 249.192 330.206 249.874 329.767 250.365C329.327 250.854 328.72 251.098 327.945 251.098C327.467 251.098 327.042 250.985 326.671 250.761C326.3 250.536 326.013 250.214 325.812 249.794C325.61 249.374 325.509 248.882 325.509 248.319C325.509 247.447 325.727 246.768 326.163 246.283C326.599 245.795 327.205 245.551 327.98 245.551C328.728 245.551 329.322 245.8 329.762 246.298C330.205 246.796 330.426 247.47 330.426 248.319ZM326.349 248.319C326.349 249.003 326.485 249.524 326.759 249.882C327.032 250.24 327.434 250.419 327.965 250.419C328.496 250.419 328.898 250.242 329.171 249.887C329.448 249.529 329.586 249.006 329.586 248.319C329.586 247.639 329.448 247.123 329.171 246.771C328.898 246.417 328.492 246.239 327.955 246.239C327.425 246.239 327.024 246.413 326.754 246.762C326.484 247.11 326.349 247.629 326.349 248.319ZM335.594 250.282H335.55C335.176 250.826 334.616 251.098 333.871 251.098C333.171 251.098 332.625 250.858 332.235 250.38C331.847 249.901 331.654 249.221 331.654 248.339C331.654 247.457 331.849 246.771 332.24 246.283C332.63 245.795 333.174 245.551 333.871 245.551C334.597 245.551 335.153 245.814 335.541 246.342H335.604L335.57 245.956L335.55 245.58V243.402H336.361V251H335.702L335.594 250.282ZM333.973 250.419C334.527 250.419 334.927 250.269 335.174 249.97C335.425 249.667 335.55 249.18 335.55 248.51V248.339C335.55 247.58 335.423 247.04 335.169 246.718C334.919 246.392 334.517 246.229 333.963 246.229C333.488 246.229 333.124 246.415 332.87 246.786C332.619 247.154 332.494 247.675 332.494 248.349C332.494 249.032 332.619 249.548 332.87 249.896C333.12 250.245 333.488 250.419 333.973 250.419ZM340.445 251.098C339.654 251.098 339.029 250.857 338.57 250.375C338.114 249.893 337.887 249.224 337.887 248.368C337.887 247.506 338.098 246.82 338.521 246.312C338.948 245.805 339.519 245.551 340.235 245.551C340.906 245.551 341.436 245.772 341.827 246.215C342.218 246.654 342.413 247.235 342.413 247.958V248.471H338.726C338.743 249.099 338.901 249.576 339.2 249.901C339.503 250.227 339.928 250.39 340.475 250.39C341.051 250.39 341.62 250.269 342.183 250.028V250.751C341.897 250.875 341.625 250.963 341.368 251.015C341.114 251.07 340.807 251.098 340.445 251.098ZM340.225 246.229C339.796 246.229 339.452 246.369 339.195 246.649C338.941 246.929 338.792 247.317 338.746 247.812H341.544C341.544 247.3 341.43 246.91 341.202 246.64C340.974 246.366 340.649 246.229 340.225 246.229ZM344.71 251H343.9V243.402H344.71V251ZM351.639 246.278H350.276V251H349.466V246.278H348.509V245.912L349.466 245.619V245.321C349.466 244.006 350.04 243.349 351.19 243.349C351.473 243.349 351.805 243.406 352.186 243.52L351.976 244.169C351.663 244.068 351.396 244.018 351.175 244.018C350.869 244.018 350.643 244.12 350.496 244.325C350.35 244.527 350.276 244.853 350.276 245.302V245.648H351.639V246.278ZM357.334 248.319C357.334 249.192 357.115 249.874 356.675 250.365C356.236 250.854 355.629 251.098 354.854 251.098C354.375 251.098 353.951 250.985 353.58 250.761C353.208 250.536 352.922 250.214 352.72 249.794C352.518 249.374 352.417 248.882 352.417 248.319C352.417 247.447 352.636 246.768 353.072 246.283C353.508 245.795 354.113 245.551 354.888 245.551C355.637 245.551 356.231 245.8 356.67 246.298C357.113 246.796 357.334 247.47 357.334 248.319ZM353.257 248.319C353.257 249.003 353.394 249.524 353.667 249.882C353.941 250.24 354.343 250.419 354.874 250.419C355.404 250.419 355.806 250.242 356.08 249.887C356.356 249.529 356.495 249.006 356.495 248.319C356.495 247.639 356.356 247.123 356.08 246.771C355.806 246.417 355.401 246.239 354.864 246.239C354.333 246.239 353.933 246.413 353.663 246.762C353.392 247.11 353.257 247.629 353.257 248.319ZM361.302 245.551C361.539 245.551 361.753 245.57 361.941 245.609L361.829 246.361C361.608 246.312 361.412 246.288 361.243 246.288C360.81 246.288 360.439 246.464 360.13 246.815C359.824 247.167 359.671 247.605 359.671 248.129V251H358.86V245.648H359.529L359.622 246.64H359.661C359.86 246.291 360.099 246.023 360.379 245.834C360.659 245.645 360.966 245.551 361.302 245.551ZM369.031 251L368.87 250.238H368.831C368.564 250.574 368.297 250.801 368.03 250.922C367.766 251.039 367.436 251.098 367.039 251.098C366.508 251.098 366.092 250.961 365.789 250.688C365.489 250.414 365.34 250.025 365.34 249.521C365.34 248.44 366.204 247.873 367.932 247.821L368.841 247.792V247.46C368.841 247.04 368.749 246.731 368.567 246.532C368.388 246.33 368.1 246.229 367.703 246.229C367.257 246.229 366.752 246.366 366.189 246.64L365.94 246.02C366.204 245.876 366.492 245.764 366.804 245.683C367.12 245.601 367.436 245.561 367.752 245.561C368.39 245.561 368.862 245.702 369.168 245.985C369.477 246.269 369.632 246.723 369.632 247.348V251H369.031ZM367.2 250.429C367.704 250.429 368.1 250.29 368.386 250.014C368.676 249.737 368.821 249.35 368.821 248.852V248.368L368.01 248.402C367.366 248.425 366.9 248.526 366.614 248.705C366.331 248.881 366.189 249.156 366.189 249.53C366.189 249.823 366.277 250.046 366.453 250.199C366.632 250.352 366.881 250.429 367.2 250.429ZM374.226 243.861H376.243C377.19 243.861 377.875 244.003 378.298 244.286C378.722 244.569 378.933 245.017 378.933 245.629C378.933 246.052 378.814 246.402 378.577 246.679C378.342 246.952 377.999 247.13 377.546 247.211V247.26C378.63 247.445 379.172 248.015 379.172 248.969C379.172 249.607 378.956 250.105 378.523 250.463C378.093 250.821 377.491 251 376.716 251H374.226V243.861ZM375.056 246.918H376.423C377.009 246.918 377.431 246.827 377.688 246.645C377.945 246.459 378.074 246.148 378.074 245.712C378.074 245.312 377.931 245.023 377.644 244.848C377.358 244.669 376.902 244.579 376.277 244.579H375.056V246.918ZM375.056 247.621V250.292H376.545C377.122 250.292 377.555 250.181 377.844 249.96C378.137 249.735 378.284 249.385 378.284 248.91C378.284 248.467 378.134 248.142 377.834 247.934C377.538 247.725 377.086 247.621 376.477 247.621H375.056ZM383.13 245.551C383.367 245.551 383.581 245.57 383.769 245.609L383.657 246.361C383.436 246.312 383.24 246.288 383.071 246.288C382.638 246.288 382.267 246.464 381.958 246.815C381.652 247.167 381.499 247.605 381.499 248.129V251H380.688V245.648H381.357L381.45 246.64H381.489C381.688 246.291 381.927 246.023 382.207 245.834C382.487 245.645 382.794 245.551 383.13 245.551ZM385.681 251H384.87V245.648H385.681V251ZM384.802 244.198C384.802 244.013 384.848 243.878 384.939 243.793C385.03 243.705 385.144 243.661 385.281 243.661C385.411 243.661 385.523 243.705 385.617 243.793C385.712 243.881 385.759 244.016 385.759 244.198C385.759 244.381 385.712 244.517 385.617 244.608C385.523 244.696 385.411 244.74 385.281 244.74C385.144 244.74 385.03 244.696 384.939 244.608C384.848 244.517 384.802 244.381 384.802 244.198ZM389.638 251.098C388.864 251.098 388.263 250.86 387.837 250.385C387.413 249.906 387.202 249.231 387.202 248.358C387.202 247.463 387.417 246.771 387.846 246.283C388.279 245.795 388.895 245.551 389.692 245.551C389.949 245.551 390.206 245.578 390.464 245.634C390.721 245.689 390.923 245.754 391.069 245.829L390.82 246.518C390.641 246.446 390.446 246.387 390.234 246.342C390.022 246.293 389.835 246.269 389.673 246.269C388.585 246.269 388.042 246.962 388.042 248.349C388.042 249.006 388.174 249.511 388.437 249.862C388.704 250.214 389.098 250.39 389.619 250.39C390.065 250.39 390.522 250.294 390.991 250.102V250.819C390.633 251.005 390.182 251.098 389.638 251.098ZM393.166 248.261C393.306 248.062 393.519 247.802 393.806 247.479L395.534 245.648H396.496L394.328 247.929L396.648 251H395.666L393.776 248.471L393.166 248.998V251H392.365V243.402H393.166V247.431C393.166 247.61 393.153 247.886 393.127 248.261H393.166Z" fill="white"/>
<path d="M472.574 215H471.744V208.599H469.483V207.861H474.834V208.599H472.574V215ZM478.333 209.551C478.571 209.551 478.784 209.57 478.973 209.609L478.86 210.361C478.639 210.312 478.444 210.288 478.274 210.288C477.841 210.288 477.47 210.464 477.161 210.815C476.855 211.167 476.702 211.605 476.702 212.129V215H475.892V209.648H476.56L476.653 210.64H476.692C476.891 210.291 477.13 210.023 477.41 209.834C477.69 209.645 477.998 209.551 478.333 209.551ZM483.365 215L483.203 214.238H483.164C482.897 214.574 482.631 214.801 482.364 214.922C482.1 215.039 481.769 215.098 481.372 215.098C480.842 215.098 480.425 214.961 480.122 214.688C479.823 214.414 479.673 214.025 479.673 213.521C479.673 212.44 480.537 211.873 482.266 211.821L483.174 211.792V211.46C483.174 211.04 483.083 210.731 482.901 210.532C482.722 210.33 482.434 210.229 482.036 210.229C481.59 210.229 481.086 210.366 480.523 210.64L480.274 210.02C480.537 209.876 480.825 209.764 481.138 209.683C481.454 209.601 481.769 209.561 482.085 209.561C482.723 209.561 483.195 209.702 483.501 209.985C483.811 210.269 483.965 210.723 483.965 211.348V215H483.365ZM481.533 214.429C482.038 214.429 482.434 214.29 482.72 214.014C483.01 213.737 483.155 213.35 483.155 212.852V212.368L482.344 212.402C481.7 212.425 481.234 212.526 480.948 212.705C480.664 212.881 480.523 213.156 480.523 213.53C480.523 213.823 480.611 214.046 480.786 214.199C480.965 214.352 481.214 214.429 481.533 214.429ZM486.55 215H485.74V209.648H486.55V215ZM485.672 208.198C485.672 208.013 485.717 207.878 485.808 207.793C485.899 207.705 486.013 207.661 486.15 207.661C486.28 207.661 486.393 207.705 486.487 207.793C486.581 207.881 486.629 208.016 486.629 208.198C486.629 208.381 486.581 208.517 486.487 208.608C486.393 208.696 486.28 208.74 486.15 208.74C486.013 208.74 485.899 208.696 485.808 208.608C485.717 208.517 485.672 208.381 485.672 208.198ZM492.031 215V211.538C492.031 211.102 491.932 210.776 491.733 210.562C491.535 210.347 491.224 210.239 490.801 210.239C490.241 210.239 489.831 210.391 489.57 210.693C489.31 210.996 489.18 211.496 489.18 212.192V215H488.369V209.648H489.028L489.16 210.381H489.199C489.365 210.117 489.598 209.914 489.898 209.771C490.197 209.624 490.531 209.551 490.899 209.551C491.543 209.551 492.028 209.707 492.354 210.02C492.679 210.329 492.842 210.825 492.842 211.509V215H492.031ZM498.12 215H497.309V209.648H498.12V215ZM497.241 208.198C497.241 208.013 497.287 207.878 497.378 207.793C497.469 207.705 497.583 207.661 497.72 207.661C497.85 207.661 497.962 207.705 498.057 207.793C498.151 207.881 498.198 208.016 498.198 208.198C498.198 208.381 498.151 208.517 498.057 208.608C497.962 208.696 497.85 208.74 497.72 208.74C497.583 208.74 497.469 208.696 497.378 208.608C497.287 208.517 497.241 208.381 497.241 208.198ZM501.667 214.429C501.811 214.429 501.949 214.419 502.082 214.399C502.216 214.377 502.322 214.354 502.4 214.331V214.951C502.312 214.993 502.182 215.028 502.009 215.054C501.84 215.083 501.687 215.098 501.55 215.098C500.515 215.098 499.997 214.552 499.997 213.462V210.278H499.231V209.888L499.997 209.551L500.339 208.408H500.808V209.648H502.361V210.278H500.808V213.428C500.808 213.75 500.884 213.997 501.037 214.17C501.19 214.342 501.4 214.429 501.667 214.429ZM510.891 212.319C510.891 213.192 510.671 213.874 510.232 214.365C509.792 214.854 509.185 215.098 508.41 215.098C507.932 215.098 507.507 214.985 507.136 214.761C506.765 214.536 506.478 214.214 506.276 213.794C506.075 213.374 505.974 212.882 505.974 212.319C505.974 211.447 506.192 210.768 506.628 210.283C507.064 209.795 507.67 209.551 508.444 209.551C509.193 209.551 509.787 209.8 510.227 210.298C510.669 210.796 510.891 211.47 510.891 212.319ZM506.814 212.319C506.814 213.003 506.95 213.524 507.224 213.882C507.497 214.24 507.899 214.419 508.43 214.419C508.96 214.419 509.362 214.242 509.636 213.887C509.913 213.529 510.051 213.006 510.051 212.319C510.051 211.639 509.913 211.123 509.636 210.771C509.362 210.417 508.957 210.239 508.42 210.239C507.889 210.239 507.489 210.413 507.219 210.762C506.949 211.11 506.814 211.629 506.814 212.319ZM516.079 215V211.538C516.079 211.102 515.979 210.776 515.781 210.562C515.582 210.347 515.271 210.239 514.848 210.239C514.288 210.239 513.878 210.391 513.618 210.693C513.357 210.996 513.227 211.496 513.227 212.192V215H512.417V209.648H513.076L513.208 210.381H513.247C513.413 210.117 513.645 209.914 513.945 209.771C514.244 209.624 514.578 209.551 514.946 209.551C515.59 209.551 516.075 209.707 516.401 210.02C516.726 210.329 516.889 210.825 516.889 211.509V215H516.079ZM525.507 215H521.396V207.861H525.507V209.102H522.909V210.669H525.326V211.909H522.909V213.75H525.507V215ZM528.713 215.098C528.071 215.098 527.567 214.849 527.199 214.351C526.834 213.853 526.652 213.162 526.652 212.28C526.652 211.385 526.838 210.688 527.209 210.19C527.583 209.689 528.097 209.438 528.752 209.438C529.439 209.438 529.963 209.705 530.324 210.239H530.373C530.298 209.832 530.26 209.469 530.26 209.15V207.402H531.755V215H530.612L530.324 214.292H530.26C529.922 214.829 529.406 215.098 528.713 215.098ZM529.235 213.911C529.616 213.911 529.894 213.8 530.07 213.579C530.249 213.358 530.347 212.982 530.363 212.451V212.29C530.363 211.704 530.272 211.284 530.09 211.03C529.911 210.776 529.618 210.649 529.211 210.649C528.879 210.649 528.62 210.791 528.434 211.074C528.252 211.354 528.161 211.763 528.161 212.3C528.161 212.837 528.254 213.241 528.439 213.511C528.625 213.778 528.89 213.911 529.235 213.911ZM538.163 209.541V210.298L537.309 210.518C537.465 210.762 537.543 211.035 537.543 211.338C537.543 211.924 537.338 212.381 536.928 212.71C536.521 213.035 535.955 213.198 535.229 213.198L534.96 213.184L534.74 213.159C534.587 213.276 534.511 213.407 534.511 213.55C534.511 213.765 534.784 213.872 535.331 213.872H536.259C536.858 213.872 537.314 214.001 537.626 214.258C537.942 214.515 538.1 214.893 538.1 215.391C538.1 216.029 537.833 216.523 537.299 216.875C536.768 217.227 536.005 217.402 535.009 217.402C534.247 217.402 533.664 217.269 533.261 217.002C532.86 216.738 532.66 216.367 532.66 215.889C532.66 215.56 532.763 215.285 532.968 215.063C533.173 214.842 533.474 214.684 533.871 214.59C533.718 214.525 533.585 214.419 533.471 214.272C533.357 214.123 533.3 213.965 533.3 213.799C533.3 213.59 533.36 213.418 533.481 213.281C533.601 213.141 533.775 213.005 534.003 212.871C533.717 212.747 533.489 212.549 533.319 212.275C533.153 212.002 533.07 211.68 533.07 211.309C533.07 210.713 533.264 210.252 533.651 209.927C534.039 209.601 534.592 209.438 535.312 209.438C535.465 209.438 535.645 209.453 535.854 209.482C536.065 209.508 536.2 209.528 536.259 209.541H538.163ZM533.949 215.771C533.949 215.977 534.047 216.138 534.242 216.255C534.441 216.372 534.718 216.431 535.072 216.431C535.606 216.431 536.025 216.357 536.327 216.211C536.63 216.064 536.781 215.864 536.781 215.61C536.781 215.405 536.692 215.264 536.513 215.186C536.334 215.107 536.057 215.068 535.683 215.068H534.911C534.638 215.068 534.408 215.132 534.223 215.259C534.04 215.389 533.949 215.56 533.949 215.771ZM534.491 211.328C534.491 211.624 534.558 211.859 534.692 212.031C534.828 212.204 535.035 212.29 535.312 212.29C535.592 212.29 535.797 212.204 535.927 212.031C536.057 211.859 536.122 211.624 536.122 211.328C536.122 210.671 535.852 210.342 535.312 210.342C534.765 210.342 534.491 210.671 534.491 211.328ZM541.427 210.498C541.111 210.498 540.864 210.599 540.685 210.801C540.506 210.999 540.403 211.283 540.377 211.65H542.467C542.461 211.283 542.365 210.999 542.179 210.801C541.994 210.599 541.743 210.498 541.427 210.498ZM541.637 215.098C540.758 215.098 540.071 214.855 539.577 214.37C539.082 213.885 538.834 213.198 538.834 212.31C538.834 211.395 539.062 210.688 539.518 210.19C539.977 209.689 540.61 209.438 541.417 209.438C542.189 209.438 542.79 209.658 543.219 210.098C543.649 210.537 543.864 211.144 543.864 211.919V212.642H540.343C540.36 213.065 540.485 213.395 540.719 213.633C540.954 213.87 541.282 213.989 541.706 213.989C542.034 213.989 542.345 213.955 542.638 213.887C542.931 213.818 543.237 213.709 543.556 213.56V214.712C543.296 214.842 543.017 214.938 542.721 215C542.425 215.065 542.064 215.098 541.637 215.098ZM547.809 208.13C547.809 207.645 548.079 207.402 548.619 207.402C549.16 207.402 549.43 207.645 549.43 208.13C549.43 208.361 549.362 208.542 549.225 208.672C549.091 208.799 548.89 208.862 548.619 208.862C548.079 208.862 547.809 208.618 547.809 208.13ZM549.362 215H547.872V209.541H549.362V215ZM555.917 215H554.427V211.812C554.427 211.418 554.361 211.123 554.227 210.928C554.097 210.729 553.89 210.63 553.607 210.63C553.226 210.63 552.95 210.77 552.777 211.05C552.605 211.33 552.518 211.79 552.518 212.432V215H551.029V209.541H552.167L552.367 210.239H552.45C552.596 209.989 552.808 209.793 553.085 209.653C553.361 209.51 553.679 209.438 554.037 209.438C554.854 209.438 555.407 209.705 555.697 210.239H555.829C555.975 209.985 556.19 209.788 556.473 209.648C556.76 209.508 557.082 209.438 557.44 209.438C558.059 209.438 558.526 209.598 558.842 209.917C559.161 210.233 559.32 210.741 559.32 211.44V215H557.826V211.812C557.826 211.418 557.759 211.123 557.626 210.928C557.495 210.729 557.289 210.63 557.006 210.63C556.641 210.63 556.368 210.76 556.185 211.021C556.006 211.281 555.917 211.694 555.917 212.261V215ZM563.951 215.098C563.31 215.098 562.807 214.865 562.442 214.399H562.364C562.416 214.855 562.442 215.119 562.442 215.19V217.402H560.953V209.541H562.164L562.374 210.249H562.442C562.791 209.709 563.307 209.438 563.99 209.438C564.635 209.438 565.139 209.688 565.504 210.186C565.869 210.684 566.051 211.375 566.051 212.261C566.051 212.843 565.965 213.35 565.792 213.779C565.623 214.209 565.38 214.536 565.065 214.761C564.749 214.985 564.378 215.098 563.951 215.098ZM563.512 210.63C563.144 210.63 562.875 210.744 562.706 210.972C562.537 211.196 562.449 211.569 562.442 212.09V212.251C562.442 212.837 562.529 213.257 562.701 213.511C562.877 213.765 563.154 213.892 563.531 213.892C564.199 213.892 564.532 213.341 564.532 212.241C564.532 211.704 564.449 211.302 564.283 211.035C564.121 210.765 563.863 210.63 563.512 210.63ZM571.249 215L571.048 214.302H570.97C570.811 214.556 570.584 214.753 570.292 214.893C569.999 215.029 569.665 215.098 569.291 215.098C568.649 215.098 568.166 214.927 567.84 214.585C567.515 214.24 567.352 213.745 567.352 213.101V209.541H568.841V212.729C568.841 213.123 568.911 213.42 569.051 213.618C569.191 213.813 569.414 213.911 569.72 213.911C570.137 213.911 570.438 213.773 570.624 213.496C570.809 213.216 570.902 212.754 570.902 212.109V209.541H572.391V215H571.249ZM575.543 215H574.054V207.402H575.543V215ZM581.019 213.379C581.019 213.939 580.824 214.365 580.433 214.658C580.046 214.951 579.464 215.098 578.69 215.098C578.293 215.098 577.954 215.07 577.674 215.015C577.394 214.963 577.132 214.884 576.888 214.78V213.55C577.165 213.68 577.476 213.789 577.821 213.877C578.169 213.965 578.475 214.009 578.739 214.009C579.279 214.009 579.549 213.853 579.549 213.54C579.549 213.423 579.513 213.328 579.442 213.257C579.37 213.182 579.246 213.099 579.071 213.008C578.895 212.913 578.66 212.804 578.367 212.681C577.948 212.505 577.638 212.342 577.44 212.192C577.244 212.043 577.101 211.872 577.01 211.68C576.922 211.484 576.878 211.245 576.878 210.962C576.878 210.477 577.065 210.103 577.44 209.839C577.817 209.572 578.351 209.438 579.041 209.438C579.699 209.438 580.339 209.582 580.96 209.868L580.511 210.942C580.238 210.825 579.982 210.729 579.744 210.654C579.507 210.579 579.264 210.542 579.017 210.542C578.577 210.542 578.358 210.661 578.358 210.898C578.358 211.032 578.428 211.147 578.568 211.245C578.711 211.343 579.022 211.488 579.5 211.68C579.927 211.852 580.239 212.013 580.438 212.163C580.636 212.313 580.783 212.485 580.877 212.681C580.972 212.876 581.019 213.109 581.019 213.379ZM584.542 210.498C584.226 210.498 583.979 210.599 583.8 210.801C583.62 210.999 583.518 211.283 583.492 211.65H585.582C585.575 211.283 585.479 210.999 585.294 210.801C585.108 210.599 584.857 210.498 584.542 210.498ZM584.752 215.098C583.873 215.098 583.186 214.855 582.691 214.37C582.196 213.885 581.949 213.198 581.949 212.31C581.949 211.395 582.177 210.688 582.633 210.19C583.092 209.689 583.725 209.438 584.532 209.438C585.303 209.438 585.904 209.658 586.334 210.098C586.763 210.537 586.978 211.144 586.978 211.919V212.642H583.458C583.474 213.065 583.599 213.395 583.834 213.633C584.068 213.87 584.397 213.989 584.82 213.989C585.149 213.989 585.46 213.955 585.753 213.887C586.046 213.818 586.352 213.709 586.671 213.56V214.712C586.41 214.842 586.132 214.938 585.836 215C585.539 215.065 585.178 215.098 584.752 215.098Z" fill="white"/>
<rect x="208.895" y="11" width="220" height="61" rx="8" fill="#192124"/>
<rect x="208.895" y="11" width="220" height="61" rx="8" stroke="#AEB8B8" stroke-miterlimit="10"/>
<path d="M308.541 26.8536C308.737 27.0488 309.053 27.0488 309.249 26.8536L312.431 23.6716C312.626 23.4763 312.626 23.1597 312.431 22.9645C312.235 22.7692 311.919 22.7692 311.723 22.9645L308.895 25.7929L306.067 22.9645C305.871 22.7692 305.555 22.7692 305.359 22.9645C305.164 23.1597 305.164 23.4763 305.359 23.6716L308.541 26.8536ZM327.541 26.8536C327.737 27.0488 328.053 27.0488 328.249 26.8536L331.431 23.6716C331.626 23.4763 331.626 23.1597 331.431 22.9645C331.235 22.7692 330.919 22.7692 330.723 22.9645L327.895 25.7929L325.067 22.9645C324.871 22.7692 324.555 22.7692 324.359 22.9645C324.164 23.1597 324.164 23.4763 324.359 23.6716L327.541 26.8536ZM308.895 26.5H309.395C309.395 21.5294 313.424 17.5 318.395 17.5V17V16.5C312.872 16.5 308.395 20.9772 308.395 26.5H308.895ZM318.395 17V17.5C323.366 17.5 327.395 21.5294 327.395 26.5H327.895H328.395C328.395 20.9772 323.918 16.5 318.395 16.5V17Z" fill="white"/>
<rect x="296.895" y="24" width="20" height="20" rx="4" fill="#15ADDF" fill-opacity="0.2"/>
<path d="M306.896 30.626C307.959 30.626 309.002 30.9285 309.901 31.4971C310.801 32.0656 311.52 32.8778 311.977 33.8389C312 33.8892 312.013 33.9443 312.013 34C312.013 34.0557 312.001 34.1108 311.977 34.1611C311.52 35.1222 310.801 35.9344 309.901 36.5029C309.002 37.0715 307.959 37.373 306.896 37.373C305.831 37.373 304.789 37.0715 303.89 36.5029C302.99 35.9344 302.271 35.1222 301.814 34.1611C301.79 34.1108 301.777 34.0557 301.777 34C301.777 33.9442 301.79 33.8892 301.814 33.8389C302.271 32.8777 302.99 32.0657 303.89 31.4971C304.789 30.9285 305.831 30.626 306.896 30.626ZM307.612 32.2676C307.27 32.1258 306.893 32.0888 306.529 32.1611C306.166 32.2335 305.832 32.4117 305.569 32.6738C305.307 32.936 305.129 33.2702 305.057 33.6338C304.984 33.9975 305.021 34.3752 305.163 34.7178C305.305 35.0602 305.545 35.3527 305.854 35.5586C306.162 35.7646 306.525 35.875 306.896 35.875C307.393 35.8749 307.869 35.6768 308.221 35.3252C308.572 34.9736 308.77 34.4972 308.771 34C308.771 33.6292 308.66 33.2663 308.454 32.958C308.248 32.6497 307.955 32.4095 307.612 32.2676ZM306.896 32.875C307.517 32.8752 308.021 33.3788 308.021 34C308.02 34.6212 307.517 35.1248 306.896 35.125C306.274 35.125 305.771 34.6212 305.771 34C305.771 33.3787 306.274 32.875 306.896 32.875Z" fill="#15ADDF"/>
<rect x="320.895" y="24" width="20" height="20" rx="4" fill="#2AC62B" fill-opacity="0.2"/>
<path d="M333.785 28.8623C333.883 28.8624 333.978 28.9011 334.048 28.9707C335.383 30.3067 336.133 32.1182 336.133 34.0068C336.133 35.8956 335.383 37.7069 334.048 39.043C333.98 39.1091 333.889 39.1471 333.793 39.1484C333.717 39.152 333.641 39.1317 333.576 39.0908C333.511 39.05 333.46 38.9904 333.43 38.9199C333.4 38.8492 333.393 38.7704 333.409 38.6953C333.425 38.6203 333.464 38.5524 333.52 38.5C334.711 37.3052 335.379 35.6868 335.379 34C335.379 32.3132 334.711 30.6949 333.52 29.5C333.45 29.4298 333.411 29.3344 333.411 29.2354C333.411 29.1363 333.45 29.041 333.52 28.9707C333.59 28.9009 333.686 28.8623 333.785 28.8623ZM332.196 30.4229C332.247 30.4248 332.299 30.4375 332.345 30.46C332.392 30.4825 332.433 30.5146 332.466 30.5537C333.38 31.4679 333.893 32.7076 333.893 34C333.893 35.2923 333.38 36.5322 332.466 37.4463C332.397 37.5168 332.302 37.5572 332.204 37.5586C332.154 37.5584 332.105 37.5476 332.059 37.5283C332.014 37.5091 331.973 37.4814 331.938 37.4463C331.868 37.3761 331.829 37.2806 331.829 37.1816C331.829 37.0826 331.868 36.9873 331.938 36.917C332.321 36.534 332.625 36.0786 332.833 35.5781C333.04 35.0778 333.146 34.5415 333.146 34C333.146 33.4583 333.04 32.9214 332.833 32.4209C332.625 31.9204 332.321 31.4651 331.938 31.082C331.899 31.0485 331.867 31.0073 331.844 30.9609C331.822 30.9144 331.809 30.8632 331.807 30.8115C331.805 30.7599 331.814 30.7082 331.833 30.6602C331.851 30.6122 331.88 30.5687 331.917 30.5322C331.953 30.4958 331.996 30.4671 332.044 30.4482C332.093 30.4294 332.144 30.4209 332.196 30.4229ZM328.977 30.6309C329.043 30.6243 329.11 30.6347 329.17 30.6621C329.236 30.6909 329.293 30.7381 329.333 30.7979C329.372 30.8576 329.394 30.9282 329.395 31V37C329.395 37.069 329.376 37.1366 329.339 37.1953C329.303 37.2541 329.251 37.3018 329.189 37.333C329.129 37.3609 329.062 37.3731 328.997 37.3672C328.931 37.3612 328.868 37.3379 328.814 37.2998L327.396 36.25H326.02C325.921 36.25 325.825 36.21 325.754 36.1396C325.684 36.0694 325.645 35.9742 325.645 35.875V32.125C325.645 32.0256 325.684 31.9297 325.754 31.8594C325.825 31.789 325.921 31.75 326.02 31.75H327.396L328.795 30.6992C328.849 30.6607 328.912 30.6375 328.977 30.6309ZM330.612 32.0342C330.711 32.0342 330.806 32.0737 330.876 32.1436C331.124 32.3863 331.321 32.6757 331.457 32.9951C331.592 33.3146 331.662 33.658 331.664 34.0049C331.665 34.3518 331.598 34.6957 331.466 35.0166C331.334 35.3375 331.14 35.6297 330.895 35.875C330.856 35.9086 330.811 35.9338 330.762 35.9492C330.713 35.9647 330.661 35.9702 330.61 35.9648C330.512 35.9644 330.417 35.9247 330.347 35.8555C330.278 35.7853 330.239 35.6906 330.239 35.5918C330.239 35.4928 330.277 35.3974 330.347 35.3271C330.522 35.153 330.661 34.9456 330.755 34.7178C330.85 34.4902 330.898 34.2463 330.898 34C330.898 33.7535 330.85 33.509 330.755 33.2812C330.661 33.0535 330.522 32.846 330.347 32.6719C330.278 32.6018 330.239 32.507 330.239 32.4082C330.239 32.3093 330.277 32.2138 330.347 32.1436C330.417 32.0737 330.513 32.0342 330.612 32.0342Z" fill="#2AC62B"/>
<path d="M225.876 60V52.8613H226.707V60H225.876ZM232.309 60V56.5381C232.309 56.1019 232.21 55.7764 232.012 55.5615C231.813 55.3467 231.502 55.2393 231.079 55.2393C230.519 55.2393 230.109 55.3906 229.849 55.6934C229.588 55.9961 229.458 56.4958 229.458 57.1924V60H228.647V54.6484H229.307L229.438 55.3809H229.477C229.643 55.1172 229.876 54.9137 230.176 54.7705C230.475 54.624 230.809 54.5508 231.177 54.5508C231.821 54.5508 232.306 54.707 232.632 55.0195C232.957 55.3288 233.12 55.8252 233.12 56.5088V60H232.309ZM238.342 58.54C238.342 59.0381 238.157 59.4222 237.785 59.6924C237.414 59.9626 236.894 60.0977 236.223 60.0977C235.513 60.0977 234.96 59.9854 234.563 59.7607V59.0088C234.82 59.139 235.095 59.2415 235.388 59.3164C235.684 59.3913 235.969 59.4287 236.242 59.4287C236.666 59.4287 236.991 59.362 237.219 59.2285C237.447 59.0918 237.561 58.8851 237.561 58.6084C237.561 58.4001 237.47 58.2227 237.287 58.0762C237.108 57.9264 236.757 57.7507 236.233 57.5488C235.735 57.3633 235.38 57.2021 235.168 57.0654C234.96 56.9255 234.804 56.7676 234.7 56.5918C234.599 56.416 234.548 56.2061 234.548 55.9619C234.548 55.5257 234.726 55.1823 235.08 54.9316C235.435 54.6777 235.922 54.5508 236.54 54.5508C237.117 54.5508 237.68 54.668 238.23 54.9023L237.942 55.5615C237.405 55.3402 236.918 55.2295 236.482 55.2295C236.098 55.2295 235.808 55.2897 235.613 55.4102C235.417 55.5306 235.32 55.6966 235.32 55.9082C235.32 56.0514 235.355 56.1735 235.427 56.2744C235.502 56.3753 235.621 56.4714 235.783 56.5625C235.946 56.6536 236.259 56.7855 236.721 56.958C237.356 57.1891 237.784 57.4219 238.005 57.6562C238.23 57.8906 238.342 58.1852 238.342 58.54ZM241.494 59.4287C241.637 59.4287 241.775 59.4189 241.909 59.3994C242.042 59.3766 242.148 59.3538 242.226 59.3311V59.9512C242.138 59.9935 242.008 60.0277 241.836 60.0537C241.666 60.083 241.513 60.0977 241.377 60.0977C240.342 60.0977 239.824 59.5524 239.824 58.4619V55.2783H239.057V54.8877L239.824 54.5508L240.166 53.4082H240.634V54.6484H242.187V55.2783H240.634V58.4277C240.634 58.75 240.711 58.9974 240.864 59.1699C241.017 59.3424 241.227 59.4287 241.494 59.4287ZM246.692 60L246.53 59.2383H246.491C246.224 59.5736 245.957 59.8014 245.691 59.9219C245.427 60.0391 245.096 60.0977 244.699 60.0977C244.169 60.0977 243.752 59.9609 243.449 59.6875C243.15 59.4141 243 59.0251 243 58.5205C243 57.4398 243.864 56.8734 245.593 56.8213L246.501 56.792V56.46C246.501 56.04 246.41 55.7308 246.228 55.5322C246.049 55.3304 245.761 55.2295 245.363 55.2295C244.917 55.2295 244.413 55.3662 243.85 55.6396L243.601 55.0195C243.864 54.8763 244.152 54.764 244.465 54.6826C244.781 54.6012 245.096 54.5605 245.412 54.5605C246.05 54.5605 246.522 54.7021 246.828 54.9854C247.137 55.2686 247.292 55.7227 247.292 56.3477V60H246.692ZM244.86 59.4287C245.365 59.4287 245.761 59.2904 246.047 59.0137C246.337 58.737 246.482 58.3496 246.482 57.8516V57.3682L245.671 57.4023C245.026 57.4251 244.561 57.526 244.275 57.7051C243.991 57.8809 243.85 58.1559 243.85 58.5303C243.85 58.8232 243.938 59.0462 244.113 59.1992C244.292 59.3522 244.541 59.4287 244.86 59.4287ZM249.877 60H249.067V52.4023H249.877V60ZM252.507 60H251.696V52.4023H252.507V60ZM258.752 59.4287C258.895 59.4287 259.033 59.4189 259.167 59.3994C259.3 59.3766 259.406 59.3538 259.484 59.3311V59.9512C259.396 59.9935 259.266 60.0277 259.093 60.0537C258.924 60.083 258.771 60.0977 258.634 60.0977C257.599 60.0977 257.082 59.5524 257.082 58.4619V55.2783H256.315V54.8877L257.082 54.5508L257.424 53.4082H257.892V54.6484H259.445V55.2783H257.892V58.4277C257.892 58.75 257.969 58.9974 258.122 59.1699C258.275 59.3424 258.485 59.4287 258.752 59.4287ZM264.32 60V56.5381C264.32 56.1019 264.221 55.7764 264.023 55.5615C263.824 55.3467 263.513 55.2393 263.09 55.2393C262.527 55.2393 262.115 55.3923 261.855 55.6982C261.597 56.0042 261.469 56.5055 261.469 57.2021V60H260.658V52.4023H261.469V54.7021C261.469 54.9788 261.456 55.2083 261.43 55.3906H261.479C261.638 55.1335 261.864 54.9316 262.157 54.7852C262.454 54.6354 262.79 54.5605 263.168 54.5605C263.822 54.5605 264.312 54.7168 264.638 55.0293C264.967 55.3385 265.131 55.8317 265.131 56.5088V60H264.32ZM269.162 60.0977C268.371 60.0977 267.746 59.8568 267.287 59.375C266.831 58.8932 266.603 58.2243 266.603 57.3682C266.603 56.5055 266.815 55.8203 267.238 55.3125C267.664 54.8047 268.236 54.5508 268.952 54.5508C269.622 54.5508 270.153 54.7721 270.543 55.2148C270.934 55.6543 271.129 56.2354 271.129 56.958V57.4707H267.443C267.459 58.099 267.617 58.5758 267.917 58.9014C268.219 59.2269 268.644 59.3896 269.191 59.3896C269.767 59.3896 270.337 59.2692 270.9 59.0283V59.751C270.613 59.8747 270.342 59.9626 270.084 60.0146C269.831 60.07 269.523 60.0977 269.162 60.0977ZM268.942 55.2295C268.512 55.2295 268.169 55.3695 267.912 55.6494C267.658 55.9294 267.508 56.3167 267.462 56.8115H270.26C270.26 56.3005 270.146 55.9098 269.918 55.6396C269.691 55.3662 269.365 55.2295 268.942 55.2295ZM277.535 58.9111C277.796 58.9111 278.108 58.8542 278.473 58.7402V59.8486C278.102 60.0146 277.646 60.0977 277.106 60.0977C276.51 60.0977 276.075 59.9479 275.802 59.6484C275.532 59.3457 275.397 58.8932 275.397 58.291V55.6592H274.684V55.0293L275.504 54.5312L275.934 53.3789H276.886V54.541H278.414V55.6592H276.886V58.291C276.886 58.5026 276.945 58.6589 277.062 58.7598C277.182 58.8607 277.34 58.9111 277.535 58.9111ZM282.728 54.4385C282.93 54.4385 283.098 54.4531 283.231 54.4824L283.119 55.8789C282.998 55.8464 282.852 55.8301 282.679 55.8301C282.204 55.8301 281.833 55.9521 281.566 56.1963C281.302 56.4404 281.171 56.7822 281.171 57.2217V60H279.681V54.541H280.809L281.029 55.459H281.102C281.272 55.153 281.499 54.9072 281.786 54.7217C282.076 54.5329 282.39 54.4385 282.728 54.4385ZM287.789 60L287.501 59.2578H287.462C287.211 59.5736 286.953 59.7933 286.686 59.917C286.422 60.0374 286.077 60.0977 285.65 60.0977C285.126 60.0977 284.713 59.9479 284.41 59.6484C284.111 59.349 283.961 58.9225 283.961 58.3691C283.961 57.7897 284.163 57.3633 284.567 57.0898C284.973 56.8132 285.585 56.6602 286.402 56.6309L287.35 56.6016V56.3623C287.35 55.8089 287.067 55.5322 286.5 55.5322C286.064 55.5322 285.551 55.6641 284.962 55.9277L284.469 54.9219C285.097 54.5931 285.794 54.4287 286.559 54.4287C287.291 54.4287 287.853 54.5882 288.243 54.9072C288.634 55.2262 288.829 55.7113 288.829 56.3623V60H287.789ZM287.35 57.4707L286.774 57.4902C286.341 57.5033 286.018 57.5814 285.807 57.7246C285.595 57.8678 285.489 58.0859 285.489 58.3789C285.489 58.7988 285.73 59.0088 286.212 59.0088C286.557 59.0088 286.832 58.9095 287.037 58.7109C287.246 58.5124 287.35 58.2487 287.35 57.9199V57.4707ZM290.404 53.1299C290.404 52.6449 290.674 52.4023 291.214 52.4023C291.755 52.4023 292.025 52.6449 292.025 53.1299C292.025 53.361 291.957 53.5417 291.82 53.6719C291.686 53.7988 291.485 53.8623 291.214 53.8623C290.674 53.8623 290.404 53.6182 290.404 53.1299ZM291.957 60H290.467V54.541H291.957V60ZM298.663 60H297.174V56.8115C297.174 56.4176 297.104 56.123 296.964 55.9277C296.824 55.7292 296.601 55.6299 296.295 55.6299C295.878 55.6299 295.577 55.7699 295.392 56.0498C295.206 56.3265 295.113 56.7871 295.113 57.4316V60H293.624V54.541H294.762L294.962 55.2393H295.045C295.211 54.9756 295.439 54.777 295.728 54.6436C296.021 54.5068 296.353 54.4385 296.725 54.4385C297.359 54.4385 297.841 54.611 298.17 54.9561C298.499 55.2979 298.663 55.7926 298.663 56.4404V60ZM302.557 55.498C302.241 55.498 301.994 55.599 301.815 55.8008C301.636 55.9993 301.533 56.2826 301.507 56.6504H303.597C303.59 56.2826 303.494 55.9993 303.309 55.8008C303.123 55.599 302.873 55.498 302.557 55.498ZM302.767 60.0977C301.888 60.0977 301.201 59.8551 300.706 59.3701C300.212 58.8851 299.964 58.1982 299.964 57.3096C299.964 56.3949 300.192 55.6885 300.648 55.1904C301.107 54.6891 301.74 54.4385 302.547 54.4385C303.319 54.4385 303.919 54.6582 304.349 55.0977C304.779 55.5371 304.993 56.1442 304.993 56.9189V57.6416H301.473C301.489 58.0648 301.615 58.3952 301.849 58.6328C302.083 58.8704 302.412 58.9893 302.835 58.9893C303.164 58.9893 303.475 58.9551 303.768 58.8867C304.061 58.8184 304.367 58.7093 304.686 58.5596V59.7119C304.425 59.8421 304.147 59.9382 303.851 60C303.555 60.0651 303.193 60.0977 302.767 60.0977ZM308.033 60.0977C307.392 60.0977 306.887 59.8486 306.519 59.3506C306.155 58.8525 305.972 58.1624 305.972 57.2803C305.972 56.3851 306.158 55.6885 306.529 55.1904C306.903 54.6891 307.418 54.4385 308.072 54.4385C308.759 54.4385 309.283 54.7054 309.644 55.2393H309.693C309.618 54.8324 309.581 54.4694 309.581 54.1504V52.4023H311.075V60H309.932L309.644 59.292H309.581C309.242 59.8291 308.726 60.0977 308.033 60.0977ZM308.555 58.9111C308.936 58.9111 309.215 58.8005 309.39 58.5791C309.569 58.3577 309.667 57.9818 309.683 57.4512V57.29C309.683 56.7041 309.592 56.2842 309.41 56.0303C309.231 55.7764 308.938 55.6494 308.531 55.6494C308.199 55.6494 307.94 55.791 307.755 56.0742C307.572 56.3542 307.481 56.7627 307.481 57.2998C307.481 57.8369 307.574 58.2406 307.759 58.5107C307.945 58.7777 308.21 58.9111 308.555 58.9111ZM320.318 60H318.829V56.8115C318.829 56.4176 318.762 56.123 318.628 55.9277C318.498 55.7292 318.292 55.6299 318.008 55.6299C317.627 55.6299 317.351 55.7699 317.178 56.0498C317.006 56.3298 316.919 56.7904 316.919 57.4316V60H315.43V54.541H316.568L316.768 55.2393H316.851C316.998 54.9886 317.209 54.7933 317.486 54.6533C317.763 54.5101 318.08 54.4385 318.438 54.4385C319.255 54.4385 319.808 54.7054 320.098 55.2393H320.23C320.376 54.9854 320.591 54.7884 320.875 54.6484C321.161 54.5085 321.483 54.4385 321.841 54.4385C322.46 54.4385 322.927 54.598 323.243 54.917C323.562 55.2327 323.721 55.7406 323.721 56.4404V60H322.227V56.8115C322.227 56.4176 322.16 56.123 322.027 55.9277C321.897 55.7292 321.69 55.6299 321.407 55.6299C321.042 55.6299 320.769 55.7601 320.586 56.0205C320.407 56.2809 320.318 56.6943 320.318 57.2607V60ZM326.541 57.2607C326.541 57.8011 326.629 58.2096 326.805 58.4863C326.984 58.763 327.273 58.9014 327.674 58.9014C328.071 58.9014 328.356 58.7646 328.528 58.4912C328.704 58.2145 328.792 57.8044 328.792 57.2607C328.792 56.7204 328.704 56.3151 328.528 56.0449C328.352 55.7747 328.064 55.6396 327.664 55.6396C327.267 55.6396 326.98 55.7747 326.805 56.0449C326.629 56.3118 326.541 56.7171 326.541 57.2607ZM330.315 57.2607C330.315 58.1494 330.081 58.8444 329.612 59.3457C329.143 59.847 328.491 60.0977 327.654 60.0977C327.13 60.0977 326.668 59.9837 326.267 59.7559C325.867 59.5247 325.559 59.1943 325.345 58.7646C325.13 58.335 325.022 57.8337 325.022 57.2607C325.022 56.3688 325.255 55.6755 325.721 55.1807C326.186 54.6859 326.84 54.4385 327.683 54.4385C328.208 54.4385 328.67 54.5524 329.07 54.7803C329.471 55.0081 329.778 55.3353 329.993 55.7617C330.208 56.1882 330.315 56.6878 330.315 57.2607ZM333.374 60.0977C332.733 60.0977 332.228 59.8486 331.861 59.3506C331.496 58.8525 331.314 58.1624 331.314 57.2803C331.314 56.3851 331.499 55.6885 331.87 55.1904C332.245 54.6891 332.759 54.4385 333.413 54.4385C334.1 54.4385 334.624 54.7054 334.986 55.2393H335.034C334.96 54.8324 334.922 54.4694 334.922 54.1504V52.4023H336.416V60H335.274L334.986 59.292H334.922C334.584 59.8291 334.068 60.0977 333.374 60.0977ZM333.897 58.9111C334.278 58.9111 334.556 58.8005 334.732 58.5791C334.911 58.3577 335.008 57.9818 335.025 57.4512V57.29C335.025 56.7041 334.934 56.2842 334.751 56.0303C334.572 55.7764 334.279 55.6494 333.872 55.6494C333.54 55.6494 333.282 55.791 333.096 56.0742C332.914 56.3542 332.823 56.7627 332.823 57.2998C332.823 57.8369 332.915 58.2406 333.101 58.5107C333.286 58.7777 333.552 58.9111 333.897 58.9111ZM340.335 55.498C340.019 55.498 339.772 55.599 339.592 55.8008C339.413 55.9993 339.311 56.2826 339.285 56.6504H341.375C341.368 56.2826 341.272 55.9993 341.087 55.8008C340.901 55.599 340.65 55.498 340.335 55.498ZM340.545 60.0977C339.666 60.0977 338.979 59.8551 338.484 59.3701C337.989 58.8851 337.742 58.1982 337.742 57.3096C337.742 56.3949 337.97 55.6885 338.425 55.1904C338.884 54.6891 339.518 54.4385 340.325 54.4385C341.096 54.4385 341.697 54.6582 342.127 55.0977C342.556 55.5371 342.771 56.1442 342.771 56.9189V57.6416H339.251C339.267 58.0648 339.392 58.3952 339.627 58.6328C339.861 58.8704 340.19 58.9893 340.613 58.9893C340.942 58.9893 341.253 58.9551 341.546 58.8867C341.839 58.8184 342.145 58.7093 342.464 58.5596V59.7119C342.203 59.8421 341.925 59.9382 341.629 60C341.332 60.0651 340.971 60.0977 340.545 60.0977ZM345.571 60H344.082V52.4023H345.571V60ZM354.634 57.3193C354.634 58.1917 354.414 58.8737 353.975 59.3652C353.535 59.8535 352.928 60.0977 352.153 60.0977C351.675 60.0977 351.25 59.9854 350.879 59.7607C350.508 59.5361 350.221 59.2139 350.019 58.7939C349.818 58.374 349.717 57.8825 349.717 57.3193C349.717 56.4469 349.935 55.7682 350.371 55.2832C350.807 54.7949 351.413 54.5508 352.187 54.5508C352.936 54.5508 353.53 54.7998 353.97 55.2979C354.412 55.7959 354.634 56.4697 354.634 57.3193ZM350.557 57.3193C350.557 58.0029 350.693 58.5238 350.967 58.8818C351.24 59.2399 351.642 59.4189 352.173 59.4189C352.703 59.4189 353.105 59.2415 353.379 58.8867C353.655 58.5286 353.794 58.0062 353.794 57.3193C353.794 56.639 353.655 56.123 353.379 55.7715C353.105 55.4167 352.7 55.2393 352.163 55.2393C351.632 55.2393 351.232 55.4134 350.962 55.7617C350.692 56.11 350.557 56.6292 350.557 57.3193ZM359.822 60V56.5381C359.822 56.1019 359.722 55.7764 359.524 55.5615C359.325 55.3467 359.014 55.2393 358.591 55.2393C358.031 55.2393 357.621 55.3906 357.361 55.6934C357.1 55.9961 356.97 56.4958 356.97 57.1924V60H356.159V54.6484H356.819L356.95 55.3809H356.99C357.156 55.1172 357.388 54.9137 357.688 54.7705C357.987 54.624 358.321 54.5508 358.689 54.5508C359.333 54.5508 359.818 54.707 360.144 55.0195C360.469 55.3288 360.632 55.8252 360.632 56.5088V60H359.822ZM364.25 54.6484H365.119L366.291 57.7002C366.548 58.3968 366.708 58.8997 366.77 59.209H366.809C366.851 59.043 366.939 58.7598 367.072 58.3594C367.209 57.9557 367.652 56.7188 368.4 54.6484H369.27L366.97 60.7422C366.742 61.3444 366.475 61.7708 366.169 62.0215C365.866 62.2754 365.494 62.4023 365.051 62.4023C364.803 62.4023 364.559 62.3747 364.318 62.3193V61.6699C364.497 61.709 364.698 61.7285 364.919 61.7285C365.476 61.7285 365.873 61.416 366.11 60.791L366.408 60.0293L364.25 54.6484ZM374.858 57.3193C374.858 58.1917 374.638 58.8737 374.199 59.3652C373.759 59.8535 373.152 60.0977 372.377 60.0977C371.899 60.0977 371.474 59.9854 371.103 59.7607C370.732 59.5361 370.445 59.2139 370.244 58.7939C370.042 58.374 369.941 57.8825 369.941 57.3193C369.941 56.4469 370.159 55.7682 370.595 55.2832C371.031 54.7949 371.637 54.5508 372.412 54.5508C373.16 54.5508 373.754 54.7998 374.194 55.2979C374.637 55.7959 374.858 56.4697 374.858 57.3193ZM370.781 57.3193C370.781 58.0029 370.917 58.5238 371.191 58.8818C371.464 59.2399 371.866 59.4189 372.397 59.4189C372.928 59.4189 373.33 59.2415 373.603 58.8867C373.88 58.5286 374.018 58.0062 374.018 57.3193C374.018 56.639 373.88 56.123 373.603 55.7715C373.33 55.4167 372.924 55.2393 372.387 55.2393C371.857 55.2393 371.456 55.4134 371.186 55.7617C370.916 56.11 370.781 56.6292 370.781 57.3193ZM377.145 54.6484V58.1201C377.145 58.5563 377.245 58.8818 377.443 59.0967C377.642 59.3115 377.953 59.4189 378.376 59.4189C378.936 59.4189 379.344 59.266 379.601 58.96C379.862 58.654 379.992 58.1543 379.992 57.4609V54.6484H380.803V60H380.134L380.017 59.2822H379.973C379.807 59.5459 379.575 59.7477 379.279 59.8877C378.986 60.0277 378.651 60.0977 378.273 60.0977C377.622 60.0977 377.134 59.943 376.809 59.6338C376.486 59.3245 376.325 58.8298 376.325 58.1494V54.6484H377.145ZM385.068 54.5508C385.305 54.5508 385.519 54.5703 385.707 54.6094L385.595 55.3613C385.374 55.3125 385.178 55.2881 385.009 55.2881C384.576 55.2881 384.205 55.4639 383.896 55.8154C383.59 56.167 383.437 56.6048 383.437 57.1289V60H382.626V54.6484H383.295L383.388 55.6396H383.427C383.626 55.2913 383.865 55.0228 384.145 54.834C384.425 54.6452 384.732 54.5508 385.068 54.5508ZM389.628 52.8613H391.645C392.592 52.8613 393.277 53.0029 393.7 53.2861C394.123 53.5693 394.335 54.0169 394.335 54.6289C394.335 55.0521 394.216 55.402 393.979 55.6787C393.744 55.9521 393.401 56.1296 392.948 56.2109V56.2598C394.032 56.4453 394.574 57.015 394.574 57.9688C394.574 58.6068 394.358 59.1048 393.925 59.4629C393.495 59.821 392.893 60 392.118 60H389.628V52.8613ZM390.458 55.918H391.825C392.411 55.918 392.833 55.8268 393.09 55.6445C393.347 55.459 393.476 55.1481 393.476 54.7119C393.476 54.3115 393.332 54.0234 393.046 53.8477C392.76 53.6686 392.304 53.5791 391.679 53.5791H390.458V55.918ZM390.458 56.6211V59.292H391.947C392.524 59.292 392.956 59.1813 393.246 58.96C393.539 58.7354 393.686 58.3854 393.686 57.9102C393.686 57.4674 393.536 57.1419 393.236 56.9336C392.94 56.7253 392.488 56.6211 391.879 56.6211H390.458ZM398.532 54.5508C398.769 54.5508 398.983 54.5703 399.171 54.6094L399.059 55.3613C398.838 55.3125 398.642 55.2881 398.473 55.2881C398.04 55.2881 397.669 55.4639 397.36 55.8154C397.054 56.167 396.901 56.6048 396.901 57.1289V60H396.09V54.6484H396.759L396.852 55.6396H396.891C397.09 55.2913 397.329 55.0228 397.609 54.834C397.889 54.6452 398.196 54.5508 398.532 54.5508ZM401.083 60H400.272V54.6484H401.083V60ZM400.204 53.1982C400.204 53.0127 400.25 52.8776 400.341 52.793C400.432 52.7051 400.546 52.6611 400.683 52.6611C400.813 52.6611 400.925 52.7051 401.019 52.793C401.114 52.8809 401.161 53.016 401.161 53.1982C401.161 53.3805 401.114 53.5173 401.019 53.6084C400.925 53.6963 400.813 53.7402 400.683 53.7402C400.546 53.7402 400.432 53.6963 400.341 53.6084C400.25 53.5173 400.204 53.3805 400.204 53.1982ZM405.04 60.0977C404.266 60.0977 403.665 59.86 403.239 59.3848C402.815 58.9062 402.604 58.2308 402.604 57.3584C402.604 56.4632 402.819 55.7715 403.248 55.2832C403.681 54.7949 404.297 54.5508 405.094 54.5508C405.351 54.5508 405.608 54.5785 405.866 54.6338C406.123 54.6891 406.325 54.7542 406.471 54.8291L406.222 55.5176C406.043 55.446 405.848 55.3874 405.636 55.3418C405.424 55.293 405.237 55.2686 405.075 55.2686C403.987 55.2686 403.444 55.9619 403.444 57.3486C403.444 58.0062 403.575 58.5107 403.839 58.8623C404.106 59.2139 404.5 59.3896 405.021 59.3896C405.467 59.3896 405.924 59.2936 406.393 59.1016V59.8193C406.035 60.0049 405.584 60.0977 405.04 60.0977ZM408.568 57.2607C408.708 57.0622 408.921 56.8018 409.208 56.4795L410.936 54.6484H411.898L409.73 56.9287L412.05 60H411.068L409.178 57.4707L408.568 57.998V60H407.767V52.4023H408.568V56.4307C408.568 56.6097 408.555 56.8864 408.529 57.2607H408.568Z" fill="#C9D2D2"/>
<rect x="308.395" width="20" height="20" rx="10" fill="#ECF1F1"/>
<path d="M320.698 10.375C320.866 11.0201 321.448 11.5 322.145 11.5C322.972 11.5 323.645 10.8271 323.645 10C323.645 9.17291 322.972 8.5 322.145 8.5C321.448 8.5 320.866 8.97989 320.698 9.625H318.77V8.125H319.897C319.994 8.125 320.092 8.08375 320.159 8.01626L320.638 7.53751C320.861 7.66921 321.118 7.75 321.395 7.75C322.222 7.75 322.895 7.07709 322.895 6.25C322.895 5.42291 322.222 4.75 321.395 4.75C320.568 4.75 319.895 5.42291 319.895 6.25C319.895 6.52718 319.976 6.7838 320.107 7.00682L319.739 7.375H318.77V6.4375C318.77 5.50696 318.013 4.75 317.083 4.75C316.356 4.75 315.724 5.21545 315.491 5.87738C314.603 5.92536 313.895 6.66272 313.895 7.5625C313.895 7.84558 313.968 8.12207 314.102 8.36707C313.526 8.69372 313.145 9.31446 313.145 10C313.145 10.6855 313.526 11.3063 314.102 11.6329C313.968 11.8779 313.895 12.1544 313.895 12.4375C313.895 13.3373 314.603 14.0746 315.491 14.1226C315.724 14.7845 316.356 15.25 317.083 15.25C318.013 15.25 318.77 14.493 318.77 13.5625V12.625H319.739L320.107 12.9932C319.976 13.2162 319.895 13.4728 319.895 13.75C319.895 14.5771 320.568 15.25 321.395 15.25C322.222 15.25 322.895 14.5771 322.895 13.75C322.895 12.9229 322.222 12.25 321.395 12.25C321.118 12.25 320.861 12.3308 320.638 12.4625L320.159 11.9837C320.092 11.9162 319.994 11.875 319.897 11.875H318.77V10.375H320.698ZM322.145 9.25C322.558 9.25 322.895 9.58636 322.895 10C322.895 10.4136 322.558 10.75 322.145 10.75C321.732 10.75 321.395 10.4136 321.395 10C321.395 9.58636 321.732 9.25 322.145 9.25ZM321.395 5.5C321.808 5.5 322.145 5.83636 322.145 6.25C322.145 6.66364 321.808 7 321.395 7C320.982 7 320.645 6.66364 320.645 6.25C320.645 5.83636 320.982 5.5 321.395 5.5ZM322.145 13.75C322.145 14.1636 321.808 14.5 321.395 14.5C320.982 14.5 320.645 14.1636 320.645 13.75C320.645 13.3364 320.982 13 321.395 13C321.808 13 322.145 13.3364 322.145 13.75ZM317.083 14.5C316.722 14.5 316.405 14.2929 316.249 13.9868C316.849 13.7279 317.27 13.1314 317.27 12.4375C317.27 12.2304 317.102 12.0625 316.895 12.0625C316.688 12.0625 316.52 12.2304 316.52 12.4375C316.52 12.9544 316.1 13.375 315.583 13.375C315.065 13.375 314.645 12.9544 314.645 12.4375C314.645 12.1716 314.756 11.9257 314.956 11.745C315.061 11.6507 315.104 11.5059 315.067 11.3698C315.031 11.2338 314.922 11.1294 314.784 11.0997C314.269 10.9886 313.895 10.5262 313.895 10C313.895 9.52955 314.195 9.11219 314.626 8.94913C314.913 9.14725 315.247 9.24927 315.583 9.24927C316.015 9.24927 316.447 9.08466 316.776 8.7558C316.922 8.60949 316.922 8.372 316.776 8.22552C316.63 8.07904 316.392 8.07904 316.246 8.22552C315.892 8.57912 315.324 8.58759 314.956 8.25532C314.956 8.25523 314.956 8.25509 314.956 8.255C314.756 8.07428 314.645 7.82837 314.645 7.5625C314.645 7.04559 315.065 6.625 315.583 6.625C315.633 6.625 315.67 6.62793 315.696 6.63397C315.799 6.65686 315.908 6.63709 315.996 6.57666C316.082 6.51605 316.14 6.42139 316.153 6.31629C316.213 5.85083 316.612 5.5 317.083 5.5C317.6 5.5 318.02 5.92059 318.02 6.4375V9.72767C317.426 9.51832 316.738 9.645 316.264 10.1192C316.118 10.2655 316.118 10.503 316.264 10.6495C316.411 10.796 316.648 10.796 316.795 10.6495C317.129 10.315 317.653 10.2903 318.02 10.5672V13.5625C318.02 14.0794 317.6 14.5 317.083 14.5Z" fill="#171E21"/>
<defs>
<filter id="filter0_d_1700_27477" x="446.395" y="88.6182" width="165" height="116" filterUnits="userSpaceOnUse" color-interpolation-filters="sRGB">
<feFlood flood-opacity="0" result="BackgroundImageFix"/>
<feColorMatrix in="SourceAlpha" type="matrix" values="0 0 0 0 0 0 0 0 0 0 0 0 0 0 0 0 0 0 127 0" result="hardAlpha"/>
<feOffset dx="-3" dy="4"/>
<feGaussianBlur stdDeviation="1"/>
<feColorMatrix type="matrix" values="0 0 0 0 0 0 0 0 0 0 0 0 0 0 0 0 0 0 1 0"/>
<feBlend mode="normal" in2="BackgroundImageFix" result="effect1_dropShadow_1700_27477"/>
<feBlend mode="normal" in="SourceGraphic" in2="effect1_dropShadow_1700_27477" result="shape"/>
</filter>
<filter id="filter1_d_1700_27477" x="56.5259" y="163.625" width="135.229" height="25.1602" filterUnits="userSpaceOnUse" color-interpolation-filters="sRGB">
<feFlood flood-opacity="0" result="BackgroundImageFix"/>
<feColorMatrix in="SourceAlpha" type="matrix" values="0 0 0 0 0 0 0 0 0 0 0 0 0 0 0 0 0 0 127 0" result="hardAlpha"/>
<feOffset dx="-3" dy="4"/>
<feGaussianBlur stdDeviation="1"/>
<feColorMatrix type="matrix" values="0 0 0 0 0 0 0 0 0 0 0 0 0 0 0 0 0 0 1 0"/>
<feBlend mode="normal" in2="BackgroundImageFix" result="effect1_dropShadow_1700_27477"/>
<feBlend mode="normal" in="SourceGraphic" in2="effect1_dropShadow_1700_27477" result="shape"/>
</filter>
</defs>
</svg>
