<svg width="16" height="16" viewBox="0 0 16 16" fill="none" xmlns="http://www.w3.org/2000/svg">
<path d="M13.5 10C13.6326 10 13.7597 10.0527 13.8535 10.1465C13.9473 10.2403 14 10.3674 14 10.5V13.5C14 13.6326 13.9473 13.7597 13.8535 13.8535C13.7597 13.9473 13.6326 14 13.5 14H2.5C2.36739 14 2.24025 13.9473 2.14648 13.8535C2.05272 13.7597 2 13.6326 2 13.5V10.5C2 10.3674 2.05272 10.2403 2.14648 10.1465C2.24025 10.0527 2.36739 10 2.5 10C2.63261 10 2.75975 10.0527 2.85352 10.1465C2.94728 10.2403 3 10.3674 3 10.5V13H13V10.5C13 10.3674 13.0527 10.2403 13.1465 10.1465C13.2403 10.0527 13.3674 10 13.5 10ZM8 1C8.13261 1 8.25975 1.05272 8.35352 1.14648C8.44728 1.24025 8.5 1.36739 8.5 1.5V9.79492L11.6445 6.64453C11.7387 6.55038 11.8668 6.49805 12 6.49805C12.1332 6.49805 12.2613 6.55038 12.3555 6.64453C12.4496 6.73868 12.502 6.86685 12.502 7C12.502 7.13315 12.4496 7.26132 12.3555 7.35547L8.35547 11.3555C8.30899 11.4023 8.25331 11.4395 8.19238 11.4648C8.13147 11.4902 8.06598 11.5029 8 11.5029C7.93402 11.5029 7.86853 11.4902 7.80762 11.4648C7.74669 11.4395 7.69101 11.4023 7.64453 11.3555L3.64453 7.35547C3.59796 7.3089 3.56136 7.25321 3.53613 7.19238C3.5109 7.13147 3.49805 7.06593 3.49805 7C3.49805 6.86685 3.55038 6.73868 3.64453 6.64453C3.73868 6.55038 3.86685 6.49805 4 6.49805C4.13315 6.49805 4.26132 6.55038 4.35547 6.64453L7.5 9.79492V1.5C7.5 1.36739 7.55272 1.24025 7.64648 1.14648C7.74025 1.05272 7.86739 1 8 1Z" fill="currentColor"/>
</svg>
