<svg width="18" height="20" viewBox="0 0 18 20" fill="none" xmlns="http://www.w3.org/2000/svg">
<path fill-rule="evenodd" clip-rule="evenodd" d="M9.5325 16.0325L15.5325 10.0325C15.6737 9.89127 15.7531 9.69973 15.7531 9.5C15.7531 9.30027 15.6737 9.10873 15.5325 8.9675C15.3913 8.82627 15.1997 8.74693 15 8.74693C14.8003 8.74693 14.6087 8.82627 14.4675 8.9675L9.75 13.6925V1.25C9.75 1.05109 9.67099 0.860322 9.53033 0.71967C9.38968 0.579018 9.19891 0.5 9 0.5C8.80109 0.5 8.61032 0.579018 8.46967 0.71967C8.32902 0.860322 8.25 1.05109 8.25 1.25V13.6925L3.5325 8.9675C3.39127 8.82627 3.19973 8.74693 3 8.74693C2.80028 8.74693 2.60873 8.82627 2.4675 8.9675C2.32627 9.10873 2.24693 9.30027 2.24693 9.5C2.24693 9.59889 2.26641 9.69682 2.30426 9.78819C2.3421 9.87955 2.39757 9.96257 2.4675 10.0325L8.4675 16.0325C8.53722 16.1028 8.62017 16.1586 8.71157 16.1967C8.80296 16.2347 8.90099 16.2543 9 16.2543C9.09901 16.2543 9.19704 16.2347 9.28843 16.1967C9.37983 16.1586 9.46278 16.1028 9.5325 16.0325ZM0.75 20H17.25C17.4489 20 17.6397 19.921 17.7803 19.7803C17.921 19.6397 18 19.4489 18 19.25V14.75C18 14.5511 17.921 14.3603 17.7803 14.2197C17.6397 14.079 17.4489 14 17.25 14C17.0511 14 16.8603 14.079 16.7197 14.2197C16.579 14.3603 16.5 14.5511 16.5 14.75V18.5H1.5V14.75C1.5 14.5511 1.42098 14.3603 1.28033 14.2197C1.13968 14.079 0.948912 14 0.75 14C0.551088 14 0.360322 14.079 0.21967 14.2197C0.0790178 14.3603 0 14.5511 0 14.75V19.25C0 19.4489 0.0790178 19.6397 0.21967 19.7803C0.360322 19.921 0.551088 20 0.75 20Z" fill="currentColor"/>
</svg>
