<svg width="16" height="16" viewBox="0 0 16 16" fill="none" xmlns="http://www.w3.org/2000/svg">
<path d="M2.91216 13.1539C2.87023 13.1539 2.61267 13.4646 2.54678 13.5072C2.40302 13.6047 2.2413 13.6778 2.07358 13.7205C1.73815 13.8119 1.37277 13.7936 1.04932 13.6717C0.222716 13.3671 -0.166625 12.368 0.0669797 11.5273C0.216726 10.9972 0.618046 10.516 1.15713 10.3758C1.81003 10.2052 2.60069 10.4489 2.91216 11.0094H15.1854L16 13.1478C16 13.1478 2.91815 13.1478 2.90617 13.1478L2.91216 13.1539Z" fill="#E68165"/>
<path d="M2.9478 5.07437C2.14516 6.02476 0.216428 5.68969 0.030742 4.31893C-0.226822 2.43033 1.74384 1.5165 3.01369 2.86288H12.2261L13.0467 5.07437H2.9478Z" fill="#3DBFCE"/>
<path d="M1.52963 6.87842H7.65126C8.87319 7.19522 8.83126 8.96806 7.59136 9.21175L1.64343 9.19957C0.942621 9.19957 0.373582 8.58425 0.45744 7.87755C0.499369 7.53029 0.685053 7.20131 1.02648 7.00636C1.18221 6.91498 1.35592 6.87842 1.53562 6.87842H1.52963Z" fill="#A3D00B"/>
<path d="M14.5255 9.21773H10.7399C9.9672 9.21773 9.36821 8.49884 9.54192 7.73122C9.6138 7.41442 9.81146 7.12808 10.1289 6.96968C10.2906 6.89048 10.4703 6.85394 10.644 6.86003L13.6809 6.89658L14.5255 9.21773Z" fill="#FDBA09"/>
</svg>
