<svg width="16" height="16" viewBox="0 0 16 16" fill="none" xmlns="http://www.w3.org/2000/svg">
<path d="M13.5032 3.79638L12.2039 2.49707C11.5403 1.83301 10.4597 1.83301 9.79614 2.49707L3.14648 9.14673C3.08227 9.21069 3.03686 9.29101 3.01489 9.37891L2.01489 13.3789C1.97241 13.5493 2.02222 13.7295 2.14648 13.8538C2.24145 13.9487 2.36914 14.0002 2.5 14.0002C2.54028 14.0002 2.58105 13.9954 2.62134 13.9854L6.62134 12.9854C6.70923 12.9634 6.78955 12.918 6.85352 12.8538L13.5032 6.2041C14.167 5.54028 14.167 4.4602 13.5032 3.79638ZM6.24438 12.0488L4.25329 12.5465L3.45373 11.7469L3.95141 9.75585L9.25 4.45727L10.043 5.25024L7.14648 8.14672C6.95117 8.34203 6.95117 8.65844 7.14648 8.85375C7.24414 8.95141 7.37207 9.00024 7.5 9.00024C7.62793 9.00024 7.75586 8.95141 7.85351 8.85375L10.75 5.95727L11.543 6.75024L6.24438 12.0488ZM12.7961 5.49706L12.25 6.04321L9.95703 3.75024L10.5032 3.20409C10.7688 2.93847 11.2312 2.93847 11.4968 3.20409L12.7961 4.50341C12.9289 4.63622 13.0019 4.81273 13.0019 5.00023C13.0019 5.18773 12.929 5.36425 12.7961 5.49706Z" fill="currentColor"/>
</svg>
