<svg width="12" height="13" viewBox="0 0 12 13" fill="none" xmlns="http://www.w3.org/2000/svg">
<path d="M12.0039 3.50195C12.0039 3.56789 11.9912 3.63346 11.9658 3.69434C11.9404 3.75524 11.9033 3.81095 11.8564 3.85742L8.85645 6.85742C8.80996 6.90429 8.75429 6.94141 8.69336 6.9668C8.63244 6.99217 8.56697 7.00488 8.50098 7.00488C8.43499 7.00488 8.3695 6.99217 8.30859 6.9668C8.24785 6.94148 8.19288 6.9041 8.14648 6.85742C8.10019 6.81075 8.06297 6.75518 8.03809 6.69434C8.0132 6.63342 8.0006 6.56776 8.00098 6.50195C8.00062 6.43633 8.01332 6.37131 8.03809 6.31055C8.06297 6.24963 8.10014 6.19418 8.14648 6.14746L10.2959 4.00195L0.500976 4.00195C0.36839 4.00194 0.241215 3.94922 0.147461 3.85547C0.0537699 3.76171 0.000976404 3.6345 0.000976409 3.50195C0.00102505 3.36941 0.0537365 3.24216 0.147461 3.14844C0.241209 3.05472 0.36842 3.00197 0.500976 3.00195L10.2959 3.00195L8.14648 0.857422C8.05233 0.76327 7.99902 0.635104 7.99902 0.501953C7.99907 0.368869 8.05238 0.241569 8.14648 0.147461C8.24062 0.0533627 8.36788 1.6522e-05 8.50098 3.71548e-07C8.63413 3.75965e-07 8.76229 0.0533095 8.85645 0.147461L11.8564 3.14746C11.9031 3.19384 11.9405 3.24885 11.9658 3.30957C11.9912 3.37044 12.0039 3.43601 12.0039 3.50195ZM12.001 9.50195C12.001 9.63453 11.9482 9.76171 11.8545 9.85547C11.7607 9.94924 11.6336 10.002 11.501 10.002L1.71094 10.002L3.85644 12.1475C3.95032 12.2415 4.00288 12.369 4.00293 12.502C4.00293 12.6351 3.95056 12.7633 3.85644 12.8574C3.76229 12.9516 3.63413 13.0039 3.50098 13.0039C3.36802 13.0039 3.24059 12.9513 3.14648 12.8574L0.146484 9.85742C0.100191 9.81075 0.0629669 9.75518 0.0380855 9.69434C0.0132032 9.63342 0.000595628 9.56776 0.000976147 9.50195C0.000621383 9.43633 0.0133167 9.37131 0.0380855 9.31055C0.0629678 9.24963 0.100143 9.19418 0.146484 9.14746L3.14648 6.14746C3.24062 6.05336 3.36788 6.00002 3.50098 6C3.63413 6 3.76229 6.05331 3.85645 6.14746C3.95032 6.24153 4.00288 6.36904 4.00293 6.50195C4.00293 6.63507 3.95056 6.76328 3.85645 6.85742L1.71094 9.00195L11.501 9.00195C11.6335 9.00195 11.7607 9.05475 11.8545 9.14844C11.9482 9.24216 12.0009 9.36941 12.001 9.50195Z" fill="white"/>
</svg>
