<svg width="16" height="16" viewBox="0 0 16 16" fill="none" xmlns="http://www.w3.org/2000/svg">
<path d="M14 2.5V13.5C14 13.775 13.775 14 13.5 14H10C9.72497 14 9.5 13.775 9.5 13.5C9.5 13.225 9.72497 13 10 13H13V3H10C9.72497 3 9.5 2.77499 9.5 2.5C9.5 2.22501 9.72497 2 10 2H13.5C13.775 2 14 2.22501 14 2.5Z" fill="white"/>
<path d="M11.355 8.35527L7.35498 12.3553C7.255 12.4503 7.13001 12.5003 7 12.5003C6.86999 12.5003 6.745 12.4503 6.64502 12.3553C6.45002 12.1603 6.45002 11.8403 6.64502 11.6453L9.79504 8.50026H2C1.72497 8.50026 1.5 8.27526 1.5 8.00026C1.5 7.72527 1.72497 7.50026 2 7.50026H9.79504L6.64502 4.35527C6.45002 4.16027 6.45002 3.84026 6.64502 3.64525C6.83997 3.45028 7.16003 3.45028 7.35498 3.64525L11.355 7.64525C11.55 7.84026 11.55 8.16027 11.355 8.35527Z" fill="white"/>
</svg>
