<svg width="16" height="16" viewBox="0 0 16 16" fill="none" xmlns="http://www.w3.org/2000/svg">
  <g clip-path="url(#clip0_952_1946)">
    <path
      d="M14 2.5V13.5C14 13.775 13.775 14 13.5 14H10C9.72497 14 9.5 13.775 9.5 13.5C9.5 13.225 9.72497 13 10 13H13V3H10C9.72497 3 9.5 2.77499 9.5 2.5C9.5 2.22501 9.72497 2 10 2H13.5C13.775 2 14 2.22501 14 2.5Z"
      fill="white" />
    <path
      d="M11.355 8.35479L7.35498 12.3548C7.255 12.4498 7.13001 12.4998 7 12.4998C6.86999 12.4998 6.745 12.4498 6.64502 12.3548C6.45002 12.1598 6.45002 11.8398 6.64502 11.6448L9.79504 8.49978H2C1.72497 8.49978 1.5 8.27477 1.5 7.99978C1.5 7.72478 1.72497 7.49978 2 7.49978H9.79504L6.64502 4.35479C6.45002 4.15978 6.45002 3.83977 6.64502 3.64477C6.83997 3.44979 7.16003 3.44979 7.35498 3.64477L11.355 7.64477C11.55 7.83977 11.55 8.15978 11.355 8.35479Z"
      fill="white" />
  </g>
  <defs>
    <clipPath id="clip0_952_1946">
      <rect width="16" height="16" fill="white" />
    </clipPath>
  </defs>
</svg>