<svg width="20" height="20" viewBox="0 0 20 20" fill="none" xmlns="http://www.w3.org/2000/svg">
<path d="M13.125 11.875C13.2908 11.875 13.4502 11.9404 13.5674 12.0576C13.6846 12.1748 13.75 12.3342 13.75 12.5C13.75 12.6658 13.6846 12.8252 13.5674 12.9424C13.4502 13.0596 13.2908 13.125 13.125 13.125H6.875C6.70924 13.125 6.54983 13.0596 6.43262 12.9424C6.31541 12.8252 6.25 12.6658 6.25 12.5C6.25 12.3342 6.31541 12.1748 6.43262 12.0576C6.54983 11.9404 6.70924 11.875 6.875 11.875H13.125ZM11.875 9.375C12.0408 9.375 12.2002 9.44041 12.3174 9.55762C12.4346 9.67483 12.5 9.83424 12.5 10C12.5 10.1658 12.4346 10.3252 12.3174 10.4424C12.2002 10.5596 12.0408 10.625 11.875 10.625H6.875C6.70924 10.625 6.54983 10.5596 6.43262 10.4424C6.31541 10.3252 6.25 10.1658 6.25 10C6.25 9.83424 6.31541 9.67483 6.43262 9.55762C6.54983 9.44041 6.70924 9.375 6.875 9.375H11.875ZM13.125 6.875C13.2908 6.875 13.4502 6.94041 13.5674 7.05762C13.6846 7.17483 13.75 7.33424 13.75 7.5C13.75 7.66576 13.6846 7.82517 13.5674 7.94238C13.4502 8.05959 13.2908 8.125 13.125 8.125H6.875C6.70924 8.125 6.54983 8.05959 6.43262 7.94238C6.31541 7.82517 6.25 7.66576 6.25 7.5C6.25 7.33424 6.31541 7.17483 6.43262 7.05762C6.54983 6.94041 6.70924 6.875 6.875 6.875H13.125Z" fill="currentColor"/>
</svg>
