<svg width="16" height="16" viewBox="0 0 16 16" fill="none" xmlns="http://www.w3.org/2000/svg">
<path d="M12.0692 10.625L9.75047 6.56937V3.625H10.188C10.304 3.625 10.4153 3.57891 10.4973 3.49686C10.5794 3.41481 10.6255 3.30353 10.6255 3.1875C10.6255 3.07147 10.5794 2.96019 10.4973 2.87814C10.4153 2.79609 10.304 2.75 10.188 2.75H5.81297C5.69694 2.75 5.58566 2.79609 5.50361 2.87814C5.42157 2.96019 5.37547 3.07147 5.37547 3.1875C5.37547 3.30353 5.42157 3.41481 5.50361 3.49686C5.58566 3.57891 5.69694 3.625 5.81297 3.625H6.25047V6.56937L3.93172 10.625C3.77802 10.8912 3.69715 11.1932 3.69727 11.5006C3.69738 11.8081 3.77847 12.11 3.93237 12.3761C4.08627 12.6422 4.30755 12.8631 4.57394 13.0165C4.84034 13.1699 5.14244 13.2505 5.44985 13.25H10.5511C10.8585 13.2505 11.1606 13.1699 11.427 13.0165C11.6934 12.8631 11.9147 12.6422 12.0686 12.3761C12.2225 12.11 12.3036 11.8081 12.3037 11.5006C12.3038 11.1932 12.2229 10.8912 12.0692 10.625ZM7.0686 6.90625C7.10419 6.8387 7.12366 6.76383 7.12547 6.6875V3.625H8.87547V6.6875C8.87728 6.76383 8.89675 6.8387 8.93235 6.90625L10.0567 8.875H5.94422L7.0686 6.90625ZM11.308 11.9375C11.2313 12.0704 11.1209 12.1808 10.9881 12.2575C10.8552 12.3343 10.7045 12.3748 10.5511 12.375H5.44985C5.29641 12.3748 5.1457 12.3343 5.01286 12.2575C4.88001 12.1808 4.76969 12.0704 4.69297 11.9375C4.61617 11.8045 4.57574 11.6536 4.57574 11.5C4.57574 11.3464 4.61617 11.1955 4.69297 11.0625L5.44547 9.75H10.5642L11.3167 11.0625C11.3922 11.1963 11.4311 11.3476 11.4296 11.5012C11.428 11.6548 11.3861 11.8053 11.308 11.9375Z" fill="#BC38EB" stroke="#BC38EB" stroke-width="0.3"/>
</svg>
