<svg width="28" height="35" viewBox="0 0 28 35" fill="none" xmlns="http://www.w3.org/2000/svg">
<path d="M27.4925 14.5075L13.4925 0.5075C13.1589 0.18505 12.714 0.0033294 12.25 0H1.75C1.28628 0.00133896 0.841941 0.186143 0.514042 0.514042C0.186143 0.841941 0.00133896 1.28628 0 1.75V33.25C0.00133896 33.7137 0.186143 34.1581 0.514042 34.486C0.841941 34.8139 1.28628 34.9987 1.75 35H26.25C26.7137 34.9987 27.1581 34.8139 27.486 34.486C27.8139 34.1581 27.9987 33.7137 28 33.25V15.75C27.9966 15.286 27.8149 14.8412 27.4925 14.5075ZM14 5.9675L21.98 13.9475L14 14V5.9675ZM24.5 31.5H3.5V3.5H10.5V15.75C10.5034 16.214 10.6851 16.6588 11.0075 16.9925C11.3385 17.3189 11.7851 17.5013 12.25 17.5L24.5 17.4475V31.5Z" fill="#FF8878"/>
</svg>
