<svg width="16" height="16" viewBox="0 0 16 16" fill="none" xmlns="http://www.w3.org/2000/svg">
<path fill-rule="evenodd" clip-rule="evenodd" d="M6.74144 2.85231C7.13687 2.78474 7.53728 2.75056 7.93844 2.75013C8.37555 2.74762 8.81209 2.7818 9.24348 2.85231C9.57253 2.88615 9.87893 3.03554 10.1082 3.27393C10.3376 3.51233 10.4749 3.8243 10.496 4.15442V6.5397C10.4974 6.70555 10.4661 6.87005 10.404 7.0238C10.3418 7.17756 10.2499 7.31755 10.1336 7.43577C10.0172 7.55399 9.87877 7.64812 9.72604 7.71278C9.57331 7.77745 9.40934 7.81137 9.24349 7.81262H6.74143C6.33005 7.8195 5.93731 7.98538 5.64557 8.27549C5.35382 8.56561 5.18573 8.95741 5.17655 9.36874V10.5132H4.31528C3.58728 10.5132 3.16203 9.9848 2.98397 9.2432C2.74883 8.41087 2.74883 7.52968 2.98397 6.69735C3.05324 6.33516 3.24825 6.00908 3.53458 5.77671C3.82092 5.54433 4.18014 5.4206 4.54884 5.42735H7.99393V5.10912H5.48896V4.15443C5.48896 3.43156 5.68142 3.03956 6.74144 2.85231ZM6.85083 3.59473C6.77139 3.54323 6.67843 3.51651 6.58377 3.51797C6.45802 3.51935 6.33794 3.57052 6.24983 3.66026C6.16173 3.75001 6.11279 3.87101 6.11373 3.99677C6.11402 4.09144 6.14245 4.18389 6.19541 4.26236C6.24837 4.34084 6.32346 4.40179 6.41115 4.43749C6.49883 4.47318 6.59515 4.48199 6.68786 4.46281C6.78057 4.44362 6.86548 4.39731 6.9318 4.32975C6.99812 4.26219 7.04286 4.17644 7.06033 4.0834C7.0778 3.99035 7.06721 3.89421 7.0299 3.8072C6.9926 3.72019 6.93027 3.64623 6.85083 3.59473ZM10.8084 6.53969V5.42734H11.7484C12.4774 5.42734 12.821 5.9726 13.0009 6.69734C13.258 7.52649 13.258 8.41403 13.0009 9.24319C12.7477 10.0054 12.4764 10.5132 11.7484 10.5132H7.9939V10.8314H10.496V11.7861C10.496 12.509 9.87412 12.8764 9.24348 13.059C8.42892 13.3138 7.55598 13.3138 6.74142 13.059C6.07925 12.8643 5.48893 12.465 5.48893 11.7861V9.40084C5.49015 9.06714 5.62187 8.74715 5.85592 8.50928C6.08996 8.27141 6.40778 8.13454 6.74142 8.12792H9.24348C9.65914 8.11713 10.0544 7.94562 10.3463 7.64944C10.6381 7.35325 10.8037 6.95546 10.8084 6.53969ZM9.6685 11.5449C9.589 11.4932 9.49592 11.4664 9.40114 11.4679L9.40115 11.4679C9.33903 11.4682 9.27759 11.4808 9.22034 11.5049C9.16308 11.5291 9.11114 11.5642 9.06749 11.6084C9.02383 11.6526 8.98932 11.705 8.96591 11.7625C8.94251 11.8201 8.93067 11.8817 8.93109 11.9438C8.9308 12.0386 8.95874 12.1313 9.01134 12.2102C9.06395 12.289 9.13884 12.3505 9.22648 12.3866C9.31412 12.4227 9.41053 12.432 9.50343 12.4131C9.59634 12.3943 9.68153 12.3482 9.74814 12.2807C9.81476 12.2133 9.85979 12.1275 9.87749 12.0344C9.8952 11.9413 9.88478 11.845 9.84756 11.7578C9.81034 11.6706 9.748 11.5965 9.6685 11.5449Z" fill="#15ADDF"/>
</svg>
