<svg width="16" height="16" viewBox="0 0 16 16" fill="none" xmlns="http://www.w3.org/2000/svg">
<path d="M11.855 7.145L7.855 3.145C7.75968 3.05287 7.63256 3.00095 7.5 3H4.5C4.36751 3.00038 4.24055 3.05318 4.14687 3.14687C4.05318 3.24055 4.00038 3.36751 4 3.5V12.5C4.00038 12.6325 4.05318 12.7594 4.14687 12.8531C4.24055 12.9468 4.36751 12.9996 4.5 13H11.5C11.6325 12.9996 11.7594 12.9468 11.8531 12.8531C11.9468 12.7594 11.9996 12.6325 12 12.5V7.5C11.999 7.36744 11.9471 7.24033 11.855 7.145ZM8 4.705L10.28 6.985L8 7V4.705ZM11 12H5V4H7V7.5C7.00097 7.63256 7.05289 7.75967 7.145 7.855C7.23958 7.94826 7.36718 8.00037 7.5 8L11 7.985V12Z" fill="currentColor"/>
</svg>
