<svg width="20" height="20" viewBox="0 0 20 20" fill="none" xmlns="http://www.w3.org/2000/svg">
<path d="M13.125 6.875V13.125C13.125 13.2908 13.0592 13.4497 12.9419 13.5669C12.8247 13.6842 12.6658 13.75 12.5 13.75C12.3342 13.75 12.1753 13.6842 12.0581 13.5669C11.9408 13.4497 11.875 13.2908 11.875 13.125V10.625H8.125V13.125C8.125 13.2908 8.05915 13.4497 7.94194 13.5669C7.82473 13.6842 7.66576 13.75 7.5 13.75C7.33424 13.75 7.17527 13.6842 7.05806 13.5669C6.94085 13.4497 6.875 13.2908 6.875 13.125V6.875C6.875 6.70924 6.94085 6.55027 7.05806 6.43306C7.17527 6.31585 7.33424 6.25 7.5 6.25C7.66576 6.25 7.82473 6.31585 7.94194 6.43306C8.05915 6.55027 8.125 6.70924 8.125 6.875V9.375H11.875V6.875C11.875 6.70924 11.9408 6.55027 12.0581 6.43306C12.1753 6.31585 12.3342 6.25 12.5 6.25C12.6658 6.25 12.8247 6.31585 12.9419 6.43306C13.0592 6.55027 13.125 6.70924 13.125 6.875Z" fill="#E77F60"/>
</svg>
