<svg width="16" height="16" viewBox="0 0 16 16" fill="none" xmlns="http://www.w3.org/2000/svg">
<path fill-rule="evenodd" clip-rule="evenodd" d="M12.125 3.5C12.2245 3.5 12.3203 3.53905 12.3906 3.60938C12.461 3.6797 12.5 3.77554 12.5 3.875V12.125C12.5 12.2245 12.461 12.3203 12.3906 12.3906C12.3203 12.461 12.2245 12.5 12.125 12.5H3.875C3.77554 12.5 3.6797 12.461 3.60938 12.3906C3.53905 12.3203 3.5 12.2245 3.5 12.125V3.875C3.5 3.77554 3.53905 3.6797 3.60938 3.60938C3.6797 3.53905 3.77554 3.5 3.875 3.5H12.125ZM4.25 7.09277L5.1084 6.2334C5.14322 6.19829 5.18484 6.1704 5.23047 6.15137C5.27617 6.13233 5.3255 6.12305 5.375 6.12305C5.4245 6.12305 5.47383 6.13233 5.51953 6.15137C5.56516 6.1704 5.60678 6.19829 5.6416 6.2334L8.2666 8.8584C8.30171 8.89322 8.3296 8.93484 8.34863 8.98047C8.36767 9.02617 8.37695 9.0755 8.37695 9.125C8.37695 9.1745 8.36767 9.22383 8.34863 9.26953C8.3296 9.31516 8.30171 9.35678 8.2666 9.3916C8.23156 9.42636 8.18924 9.45302 8.14355 9.47168C8.09792 9.49029 8.04929 9.50029 8 9.5C7.90086 9.50158 7.80478 9.46335 7.7334 9.39453L5.375 7.03223L4.25 8.15723V11.75H9.5V11C9.5 10.9005 9.53905 10.8047 9.60938 10.7344C9.6797 10.664 9.77554 10.625 9.875 10.625C9.97446 10.625 10.0703 10.664 10.1406 10.7344C10.211 10.8047 10.25 10.9005 10.25 11V11.75H11.75V4.25H4.25V7.09277ZM9.875 8.74805C9.9245 8.74805 9.97383 8.75733 10.0195 8.77637C10.0652 8.7954 10.1068 8.82329 10.1416 8.8584L11.2666 9.9834C11.3017 10.0182 11.3296 10.0598 11.3486 10.1055C11.3677 10.1512 11.377 10.2005 11.377 10.25C11.377 10.2995 11.3677 10.3488 11.3486 10.3945C11.3296 10.4402 11.3017 10.4818 11.2666 10.5166C11.2316 10.5514 11.1892 10.578 11.1436 10.5967C11.0979 10.6153 11.0493 10.6253 11 10.625C10.9507 10.6253 10.9021 10.6153 10.8564 10.5967C10.8108 10.578 10.7684 10.5514 10.7334 10.5166L9.875 9.65332L9.0166 10.5166C8.98175 10.5514 8.94004 10.5787 8.89453 10.5977C8.84885 10.6166 8.79945 10.627 8.75 10.627C8.70055 10.627 8.65115 10.6166 8.60547 10.5977C8.55997 10.5787 8.51825 10.5514 8.4834 10.5166C8.44855 10.4818 8.42126 10.44 8.40234 10.3945C8.38342 10.3489 8.37305 10.2994 8.37305 10.25C8.37305 10.2006 8.38342 10.1512 8.40234 10.1055C8.42126 10.06 8.44855 10.0183 8.4834 9.9834L9.6084 8.8584C9.64322 8.82329 9.68484 8.7954 9.73047 8.77637C9.77617 8.75733 9.8255 8.74805 9.875 8.74805ZM9.875 6.87305C9.9245 6.87305 9.97383 6.88233 10.0195 6.90137C10.0652 6.9204 10.1068 6.94829 10.1416 6.9834L10.8916 7.7334C10.9267 7.76822 10.9546 7.80983 10.9736 7.85547C10.9927 7.90117 11.002 7.9505 11.002 8C11.002 8.0495 10.9927 8.09884 10.9736 8.14453C10.9546 8.19016 10.9267 8.23179 10.8916 8.2666C10.8566 8.30135 10.8142 8.32802 10.7686 8.34668C10.7229 8.36529 10.6743 8.37529 10.625 8.375C10.5757 8.37529 10.5271 8.36529 10.4814 8.34668C10.4358 8.32802 10.3934 8.30135 10.3584 8.2666L9.875 7.77832L9.3916 8.2666C9.32099 8.33721 9.22486 8.37695 9.125 8.37695C9.02514 8.37695 8.92901 8.33721 8.8584 8.2666C8.78779 8.19599 8.74805 8.09985 8.74805 8C8.74805 7.90014 8.78779 7.80401 8.8584 7.7334L9.6084 6.9834C9.64322 6.94829 9.68484 6.9204 9.73047 6.90137C9.77617 6.88233 9.8255 6.87305 9.875 6.87305ZM8 5C8.41421 5 8.75 5.33579 8.75 5.75C8.75 6.16421 8.41421 6.5 8 6.5C7.58579 6.5 7.25 6.16421 7.25 5.75C7.25 5.33579 7.58579 5 8 5Z" fill="#EB477E"/>
<path d="M12.3906 3.60938L12.4967 3.50331V3.50331L12.3906 3.60938ZM3.60938 12.3906L3.50331 12.4967H3.50331L3.60938 12.3906ZM4.25 7.09277H4.1V7.4552L4.35613 7.19878L4.25 7.09277ZM5.1084 6.2334L5.21453 6.3394L5.2149 6.33903L5.1084 6.2334ZM5.23047 6.15137L5.17278 6.0129L5.17272 6.01293L5.23047 6.15137ZM5.375 6.12305V6.27305V6.12305ZM5.51953 6.15137L5.57728 6.01293L5.57722 6.0129L5.51953 6.15137ZM5.6416 6.2334L5.5351 6.33903L5.53554 6.33946L5.6416 6.2334ZM8.2666 8.8584L8.16053 8.96447L8.16097 8.9649L8.2666 8.8584ZM8.34863 8.98047L8.4871 8.92278L8.48707 8.92272L8.34863 8.98047ZM8.34863 9.26953L8.48707 9.32728L8.4871 9.32722L8.34863 9.26953ZM8.2666 9.3916L8.16097 9.2851L8.16097 9.2851L8.2666 9.3916ZM8.14355 9.47168L8.2002 9.61057L8.20027 9.61054L8.14355 9.47168ZM8 9.5L8.00087 9.34997L7.99762 9.35002L8 9.5ZM7.7334 9.39453L7.62723 9.50053L7.62928 9.50251L7.7334 9.39453ZM5.375 7.03223L5.48115 6.92625L5.37509 6.82001L5.26893 6.92616L5.375 7.03223ZM4.25 8.15723L4.14393 8.05116L4.1 8.09509V8.15723H4.25ZM4.25 11.75H4.1V11.9H4.25V11.75ZM9.5 11.75V11.9H9.65V11.75H9.5ZM10.25 11.75H10.1V11.9H10.25V11.75ZM11.75 11.75V11.9H11.9V11.75H11.75ZM11.75 4.25H11.9V4.1H11.75V4.25ZM4.25 4.25V4.1H4.1V4.25H4.25ZM9.875 8.74805V8.59805H9.875L9.875 8.74805ZM10.0195 8.77637L10.0773 8.63793L10.0772 8.6379L10.0195 8.77637ZM10.1416 8.8584L10.0351 8.96403L10.0355 8.96446L10.1416 8.8584ZM11.2666 9.9834L11.1605 10.0895L11.161 10.0899L11.2666 9.9834ZM11.3486 10.1055L11.4871 10.0478L11.4871 10.0477L11.3486 10.1055ZM11.377 10.25L11.527 10.25V10.25H11.377ZM11.3486 10.3945L11.4871 10.4523L11.4871 10.4522L11.3486 10.3945ZM11.2666 10.5166L11.3722 10.6231L11.3722 10.6231L11.2666 10.5166ZM11.1436 10.5967L11.2002 10.7356L11.2003 10.7355L11.1436 10.5967ZM11 10.625L11.0009 10.475L10.9991 10.475L11 10.625ZM10.8564 10.5967L10.7997 10.7355L10.7998 10.7356L10.8564 10.5967ZM10.7334 10.5166L10.627 10.6224L10.6278 10.6231L10.7334 10.5166ZM9.875 9.65332L9.98137 9.54756L9.875 9.44058L9.76863 9.54756L9.875 9.65332ZM9.0166 10.5166L9.12266 10.6227L9.12297 10.6224L9.0166 10.5166ZM8.89453 10.5977L8.95193 10.7362L8.95211 10.7362L8.89453 10.5977ZM8.75 10.627L8.75 10.777H8.75V10.627ZM8.60547 10.5977L8.54789 10.7362L8.54807 10.7362L8.60547 10.5977ZM8.4834 10.5166L8.37733 10.6227L8.37734 10.6227L8.4834 10.5166ZM8.40234 10.3945L8.26376 10.4519L8.26384 10.4521L8.40234 10.3945ZM8.37305 10.25H8.22305V10.25L8.37305 10.25ZM8.40234 10.1055L8.26383 10.0479L8.26376 10.0481L8.40234 10.1055ZM8.4834 9.9834L8.37733 9.87733L8.37733 9.87734L8.4834 9.9834ZM9.6084 8.8584L9.71447 8.96447L9.7149 8.96403L9.6084 8.8584ZM9.73047 8.77637L9.67278 8.6379L9.67271 8.63793L9.73047 8.77637ZM9.875 6.87305V6.72305H9.875L9.875 6.87305ZM10.0195 6.90137L10.0773 6.76293L10.0772 6.7629L10.0195 6.90137ZM10.1416 6.9834L10.0351 7.08903L10.0355 7.08946L10.1416 6.9834ZM10.8916 7.7334L10.7855 7.83947L10.786 7.83989L10.8916 7.7334ZM10.9736 7.85547L11.1121 7.79778L11.1121 7.79773L10.9736 7.85547ZM11.002 8L11.152 8.00001V8H11.002ZM10.9736 8.14453L11.1121 8.20229L11.1121 8.20222L10.9736 8.14453ZM10.8916 8.2666L10.9972 8.3731L10.9972 8.3731L10.8916 8.2666ZM10.7686 8.34668L10.8252 8.48557L10.8253 8.48554L10.7686 8.34668ZM10.625 8.375L10.6259 8.22499L10.6241 8.225L10.625 8.375ZM10.4814 8.34668L10.4247 8.48554L10.4248 8.48557L10.4814 8.34668ZM10.3584 8.2666L10.2518 8.37214L10.2528 8.3731L10.3584 8.2666ZM9.875 7.77832L9.9816 7.67279L9.875 7.56511L9.7684 7.67279L9.875 7.77832ZM9.3916 8.2666L9.49766 8.37267L9.4982 8.37213L9.3916 8.2666ZM9.125 8.37695L9.125 8.52695H9.125V8.37695ZM8.8584 8.2666L8.75233 8.37267L8.75234 8.37267L8.8584 8.2666ZM8.74805 8H8.59805V8.00001L8.74805 8ZM8.8584 7.7334L8.75233 7.62733L8.75233 7.62734L8.8584 7.7334ZM9.6084 6.9834L9.71447 7.08947L9.7149 7.08903L9.6084 6.9834ZM9.73047 6.90137L9.67278 6.7629L9.67271 6.76293L9.73047 6.90137ZM12.125 3.5V3.65C12.1853 3.65 12.2428 3.67371 12.2846 3.71544L12.3906 3.60938L12.4967 3.50331C12.3978 3.40438 12.2636 3.35 12.125 3.35V3.5ZM12.3906 3.60938L12.2846 3.71544C12.3263 3.75717 12.35 3.81466 12.35 3.875H12.5H12.65C12.65 3.73643 12.5956 3.60223 12.4967 3.50331L12.3906 3.60938ZM12.5 3.875H12.35V12.125H12.5H12.65V3.875H12.5ZM12.5 12.125H12.35C12.35 12.1853 12.3263 12.2428 12.2846 12.2846L12.3906 12.3906L12.4967 12.4967C12.5956 12.3978 12.65 12.2636 12.65 12.125H12.5ZM12.3906 12.3906L12.2846 12.2846C12.2428 12.3263 12.1853 12.35 12.125 12.35V12.5V12.65C12.2636 12.65 12.3978 12.5956 12.4967 12.4967L12.3906 12.3906ZM12.125 12.5V12.35H3.875V12.5V12.65H12.125V12.5ZM3.875 12.5V12.35C3.81466 12.35 3.75717 12.3263 3.71544 12.2846L3.60938 12.3906L3.50331 12.4967C3.60223 12.5956 3.73643 12.65 3.875 12.65V12.5ZM3.60938 12.3906L3.71544 12.2846C3.67371 12.2428 3.65 12.1853 3.65 12.125H3.5H3.35C3.35 12.2636 3.40438 12.3978 3.50331 12.4967L3.60938 12.3906ZM3.5 12.125H3.65V3.875H3.5H3.35V12.125H3.5ZM3.5 3.875H3.65C3.65 3.81466 3.67371 3.75717 3.71544 3.71544L3.60938 3.60938L3.50331 3.50331C3.40438 3.60223 3.35 3.73643 3.35 3.875H3.5ZM3.60938 3.60938L3.71544 3.71544C3.75717 3.67371 3.81466 3.65 3.875 3.65V3.5V3.35C3.73643 3.35 3.60223 3.40438 3.50331 3.50331L3.60938 3.60938ZM3.875 3.5V3.65H12.125V3.5V3.35H3.875V3.5ZM4.25 7.09277L4.35613 7.19878L5.21452 6.3394L5.1084 6.2334L5.00227 6.12739L4.14387 6.98677L4.25 7.09277ZM5.1084 6.2334L5.2149 6.33903C5.23565 6.31811 5.26065 6.3013 5.28822 6.2898L5.23047 6.15137L5.17272 6.01293C5.10902 6.0395 5.05079 6.07847 5.0019 6.12777L5.1084 6.2334ZM5.23047 6.15137L5.28816 6.28983C5.3145 6.27886 5.3441 6.27305 5.375 6.27305V6.12305V5.97305C5.30689 5.97305 5.23783 5.9858 5.17278 6.0129L5.23047 6.15137ZM5.375 6.12305V6.27305C5.4059 6.27305 5.4355 6.27886 5.46184 6.28983L5.51953 6.15137L5.57722 6.0129C5.51217 5.9858 5.44311 5.97305 5.375 5.97305V6.12305ZM5.51953 6.15137L5.46178 6.2898C5.48935 6.3013 5.51435 6.31811 5.5351 6.33903L5.6416 6.2334L5.7481 6.12777C5.69921 6.07847 5.64098 6.0395 5.57728 6.01293L5.51953 6.15137ZM5.6416 6.2334L5.53554 6.33946L8.16054 8.96446L8.2666 8.8584L8.37267 8.75233L5.74767 6.12733L5.6416 6.2334ZM8.2666 8.8584L8.16097 8.9649C8.18189 8.98565 8.1987 9.01065 8.2102 9.03822L8.34863 8.98047L8.48707 8.92272C8.4605 8.85902 8.42153 8.80079 8.37223 8.7519L8.2666 8.8584ZM8.34863 8.98047L8.21017 9.03816C8.22114 9.0645 8.22695 9.0941 8.22695 9.125H8.37695H8.52695C8.52695 9.05689 8.5142 8.98783 8.4871 8.92278L8.34863 8.98047ZM8.37695 9.125H8.22695C8.22695 9.1559 8.22114 9.1855 8.21017 9.21184L8.34863 9.26953L8.4871 9.32722C8.5142 9.26217 8.52695 9.19311 8.52695 9.125H8.37695ZM8.34863 9.26953L8.2102 9.21178C8.1987 9.23935 8.18189 9.26435 8.16097 9.2851L8.2666 9.3916L8.37223 9.4981C8.42153 9.44921 8.4605 9.39098 8.48707 9.32728L8.34863 9.26953ZM8.2666 9.3916L8.16097 9.2851C8.14154 9.30437 8.11645 9.32072 8.08684 9.33282L8.14355 9.47168L8.20027 9.61054C8.26203 9.58532 8.32158 9.54834 8.37223 9.4981L8.2666 9.3916ZM8.14355 9.47168L8.08691 9.33279C8.05837 9.34443 8.02923 9.35017 8.00087 9.35L8 9.5L7.99913 9.65C8.06935 9.6504 8.13747 9.63616 8.2002 9.61057L8.14355 9.47168ZM8 9.5L7.99762 9.35002C7.93847 9.35096 7.88059 9.32808 7.83751 9.28655L7.7334 9.39453L7.62928 9.50251C7.72897 9.59863 7.86325 9.65219 8.00238 9.64998L8 9.5ZM7.7334 9.39453L7.83955 9.28855L5.48115 6.92625L5.375 7.03223L5.26885 7.1382L7.62724 9.50051L7.7334 9.39453ZM5.375 7.03223L5.26893 6.92616L4.14393 8.05116L4.25 8.15723L4.35607 8.26329L5.48107 7.13829L5.375 7.03223ZM4.25 8.15723H4.1V11.75H4.25H4.4V8.15723H4.25ZM4.25 11.75V11.9H9.5V11.75V11.6H4.25V11.75ZM9.5 11.75H9.65V11H9.5H9.35V11.75H9.5ZM9.5 11H9.65C9.65 10.9397 9.67371 10.8822 9.71544 10.8404L9.60938 10.7344L9.50331 10.6283C9.40438 10.7272 9.35 10.8614 9.35 11H9.5ZM9.60938 10.7344L9.71544 10.8404C9.75717 10.7987 9.81466 10.775 9.875 10.775V10.625V10.475C9.73643 10.475 9.60223 10.5294 9.50331 10.6283L9.60938 10.7344ZM9.875 10.625V10.775C9.93534 10.775 9.99283 10.7987 10.0346 10.8404L10.1406 10.7344L10.2467 10.6283C10.1478 10.5294 10.0136 10.475 9.875 10.475V10.625ZM10.1406 10.7344L10.0346 10.8404C10.0763 10.8822 10.1 10.9397 10.1 11H10.25H10.4C10.4 10.8614 10.3456 10.7272 10.2467 10.6283L10.1406 10.7344ZM10.25 11H10.1V11.75H10.25H10.4V11H10.25ZM10.25 11.75V11.9H11.75V11.75V11.6H10.25V11.75ZM11.75 11.75H11.9V4.25H11.75H11.6V11.75H11.75ZM11.75 4.25V4.1H4.25V4.25V4.4H11.75V4.25ZM4.25 4.25H4.1V7.09277H4.25H4.4V4.25H4.25ZM9.875 8.74805V8.89805C9.9059 8.89805 9.9355 8.90386 9.96184 8.91483L10.0195 8.77637L10.0772 8.6379C10.0122 8.6108 9.94311 8.59805 9.875 8.59805V8.74805ZM10.0195 8.77637L9.96178 8.9148C9.98935 8.9263 10.0144 8.94311 10.0351 8.96403L10.1416 8.8584L10.2481 8.75277C10.1992 8.70347 10.141 8.6645 10.0773 8.63793L10.0195 8.77637ZM10.1416 8.8584L10.0355 8.96446L11.1605 10.0895L11.2666 9.9834L11.3727 9.87733L10.2477 8.75233L10.1416 8.8584ZM11.2666 9.9834L11.161 10.0899C11.1819 10.1107 11.1987 10.1357 11.2102 10.1632L11.3486 10.1055L11.4871 10.0477C11.4605 9.98401 11.4215 9.92579 11.3722 9.8769L11.2666 9.9834ZM11.3486 10.1055L11.2102 10.1632C11.2211 10.1895 11.227 10.2191 11.227 10.25H11.377H11.527C11.527 10.1819 11.5142 10.1128 11.4871 10.0478L11.3486 10.1055ZM11.377 10.25L11.227 10.25C11.227 10.2809 11.2211 10.3105 11.2102 10.3368L11.3486 10.3945L11.4871 10.4522C11.5142 10.3872 11.5269 10.3181 11.527 10.25L11.377 10.25ZM11.3486 10.3945L11.2102 10.3368C11.1987 10.3643 11.1819 10.3894 11.161 10.4101L11.2666 10.5166L11.3722 10.6231C11.4215 10.5742 11.4605 10.516 11.4871 10.4523L11.3486 10.3945ZM11.2666 10.5166L11.161 10.4101C11.1415 10.4294 11.1164 10.4457 11.0868 10.4578L11.1436 10.5967L11.2003 10.7355C11.262 10.7103 11.3216 10.6733 11.3722 10.6231L11.2666 10.5166ZM11.1436 10.5967L11.0869 10.4578C11.0584 10.4694 11.0292 10.4752 11.0009 10.475L11 10.625L10.9991 10.775C11.0693 10.7754 11.1375 10.7612 11.2002 10.7356L11.1436 10.5967ZM11 10.625L10.9991 10.475C10.9708 10.4752 10.9416 10.4694 10.9131 10.4578L10.8564 10.5967L10.7998 10.7356C10.8625 10.7612 10.9307 10.7754 11.0009 10.775L11 10.625ZM10.8564 10.5967L10.9132 10.4578C10.8836 10.4457 10.8585 10.4294 10.839 10.4101L10.7334 10.5166L10.6278 10.6231C10.6784 10.6733 10.738 10.7103 10.7997 10.7355L10.8564 10.5967ZM10.7334 10.5166L10.8398 10.4108L9.98137 9.54756L9.875 9.65332L9.76863 9.75909L10.627 10.6224L10.7334 10.5166ZM9.875 9.65332L9.76863 9.54756L8.91023 10.4108L9.0166 10.5166L9.12297 10.6224L9.98137 9.75909L9.875 9.65332ZM9.0166 10.5166L8.91054 10.4105C8.89032 10.4308 8.86533 10.4474 8.83695 10.4591L8.89453 10.5977L8.95211 10.7362C9.01474 10.7101 9.07319 10.6721 9.12266 10.6227L9.0166 10.5166ZM8.89453 10.5977L8.83713 10.4591C8.80861 10.4709 8.77866 10.477 8.75 10.477V10.627V10.777C8.82024 10.777 8.88909 10.7623 8.95193 10.7362L8.89453 10.5977ZM8.75 10.627L8.75 10.477C8.72134 10.477 8.69139 10.4709 8.66287 10.4591L8.60547 10.5977L8.54807 10.7362C8.61091 10.7623 8.67976 10.777 8.75 10.777L8.75 10.627ZM8.60547 10.5977L8.66305 10.4591C8.63467 10.4474 8.60968 10.4308 8.58946 10.4105L8.4834 10.5166L8.37734 10.6227C8.42681 10.6721 8.48526 10.7101 8.54789 10.7362L8.60547 10.5977ZM8.4834 10.5166L8.58946 10.4105C8.56926 10.3903 8.55265 10.3653 8.54085 10.3369L8.40234 10.3945L8.26384 10.4521C8.28987 10.5147 8.32785 10.5732 8.37733 10.6227L8.4834 10.5166ZM8.40234 10.3945L8.54093 10.3371C8.52912 10.3086 8.52305 10.2787 8.52305 10.25L8.37305 10.25L8.22305 10.25C8.22305 10.3202 8.23773 10.3891 8.26376 10.4519L8.40234 10.3945ZM8.37305 10.25H8.52305C8.52305 10.2213 8.52911 10.1914 8.54093 10.1629L8.40234 10.1055L8.26376 10.0481C8.23773 10.1109 8.22305 10.1798 8.22305 10.25H8.37305ZM8.40234 10.1055L8.54085 10.163C8.55265 10.1347 8.56924 10.1097 8.58947 10.0895L8.4834 9.9834L8.37733 9.87734C8.32785 9.92681 8.28987 9.98525 8.26383 10.0479L8.40234 10.1055ZM8.4834 9.9834L8.58946 10.0895L9.71446 8.96446L9.6084 8.8584L9.50233 8.75233L8.37733 9.87733L8.4834 9.9834ZM9.6084 8.8584L9.7149 8.96403C9.73564 8.94311 9.76065 8.9263 9.78822 8.9148L9.73047 8.77637L9.67271 8.63793C9.60903 8.6645 9.55079 8.70347 9.5019 8.75277L9.6084 8.8584ZM9.73047 8.77637L9.78816 8.91483C9.8145 8.90386 9.8441 8.89805 9.875 8.89805L9.875 8.74805L9.875 8.59805C9.80689 8.59805 9.73783 8.6108 9.67278 8.6379L9.73047 8.77637ZM9.875 6.87305V7.02305C9.9059 7.02305 9.9355 7.02886 9.96184 7.03983L10.0195 6.90137L10.0772 6.7629C10.0122 6.7358 9.94311 6.72305 9.875 6.72305V6.87305ZM10.0195 6.90137L9.96178 7.0398C9.98935 7.05131 10.0144 7.06811 10.0351 7.08903L10.1416 6.9834L10.2481 6.87777C10.1992 6.82847 10.141 6.7895 10.0773 6.76293L10.0195 6.90137ZM10.1416 6.9834L10.0355 7.08946L10.7855 7.83946L10.8916 7.7334L10.9977 7.62733L10.2477 6.87733L10.1416 6.9834ZM10.8916 7.7334L10.786 7.83989C10.8069 7.86065 10.8237 7.88566 10.8352 7.91321L10.9736 7.85547L11.1121 7.79773C11.0855 7.73401 11.0465 7.67579 10.9972 7.6269L10.8916 7.7334ZM10.9736 7.85547L10.8352 7.91316C10.8461 7.9395 10.852 7.9691 10.852 8H11.002H11.152C11.152 7.93189 11.1392 7.86283 11.1121 7.79778L10.9736 7.85547ZM11.002 8L10.852 7.99999C10.852 8.0309 10.8461 8.06051 10.8352 8.08684L10.9736 8.14453L11.1121 8.20222C11.1392 8.13717 11.1519 8.0681 11.152 8.00001L11.002 8ZM10.9736 8.14453L10.8352 8.08677C10.8237 8.11434 10.8069 8.13936 10.786 8.1601L10.8916 8.2666L10.9972 8.3731C11.0465 8.32421 11.0855 8.26597 11.1121 8.20229L10.9736 8.14453ZM10.8916 8.2666L10.786 8.1601C10.7665 8.17937 10.7414 8.19572 10.7118 8.20782L10.7686 8.34668L10.8253 8.48554C10.887 8.46032 10.9466 8.42333 10.9972 8.3731L10.8916 8.2666ZM10.7686 8.34668L10.7119 8.20779C10.6834 8.21943 10.6542 8.22517 10.6259 8.225L10.625 8.375L10.6241 8.525C10.6943 8.5254 10.7625 8.51115 10.8252 8.48557L10.7686 8.34668ZM10.625 8.375L10.6241 8.225C10.5958 8.22517 10.5666 8.21943 10.5381 8.20779L10.4814 8.34668L10.4248 8.48557C10.4875 8.51115 10.5557 8.5254 10.6259 8.525L10.625 8.375ZM10.4814 8.34668L10.5382 8.20782C10.5086 8.19572 10.4835 8.17937 10.464 8.1601L10.3584 8.2666L10.2528 8.3731C10.3034 8.42334 10.363 8.46032 10.4247 8.48554L10.4814 8.34668ZM10.3584 8.2666L10.465 8.16107L9.9816 7.67279L9.875 7.77832L9.7684 7.88385L10.2518 8.37213L10.3584 8.2666ZM9.875 7.77832L9.7684 7.67279L9.285 8.16107L9.3916 8.2666L9.4982 8.37213L9.9816 7.88385L9.875 7.77832ZM9.3916 8.2666L9.28554 8.16053C9.24311 8.20296 9.18515 8.22695 9.125 8.22695V8.37695V8.52695C9.26456 8.52695 9.39887 8.47146 9.49766 8.37267L9.3916 8.2666ZM9.125 8.37695L9.125 8.22695C9.06485 8.22695 9.00689 8.20296 8.96446 8.16053L8.8584 8.2666L8.75234 8.37267C8.85113 8.47146 8.98544 8.52695 9.125 8.52695L9.125 8.37695ZM8.8584 8.2666L8.96446 8.16054C8.92205 8.11812 8.89805 8.06016 8.89805 7.99999L8.74805 8L8.59805 8.00001C8.59806 8.13955 8.65353 8.27387 8.75233 8.37267L8.8584 8.2666ZM8.74805 8H8.89805C8.89805 7.93985 8.92204 7.88189 8.96447 7.83946L8.8584 7.7334L8.75233 7.62734C8.65354 7.72613 8.59805 7.86044 8.59805 8H8.74805ZM8.8584 7.7334L8.96446 7.83946L9.71446 7.08946L9.6084 6.9834L9.50233 6.87733L8.75233 7.62733L8.8584 7.7334ZM9.6084 6.9834L9.7149 7.08903C9.73564 7.06811 9.76065 7.05131 9.78822 7.0398L9.73047 6.90137L9.67271 6.76293C9.60903 6.7895 9.55079 6.82847 9.5019 6.87777L9.6084 6.9834ZM9.73047 6.90137L9.78816 7.03983C9.8145 7.02886 9.8441 7.02305 9.875 7.02305L9.875 6.87305L9.875 6.72305C9.80689 6.72305 9.73783 6.7358 9.67278 6.7629L9.73047 6.90137ZM8 5V5.15C8.33137 5.15 8.6 5.41863 8.6 5.75H8.75H8.9C8.9 5.25294 8.49706 4.85 8 4.85V5ZM8.75 5.75H8.6C8.6 6.08137 8.33137 6.35 8 6.35V6.5V6.65C8.49706 6.65 8.9 6.24706 8.9 5.75H8.75ZM8 6.5V6.35C7.66863 6.35 7.4 6.08137 7.4 5.75H7.25H7.1C7.1 6.24706 7.50294 6.65 8 6.65V6.5ZM7.25 5.75H7.4C7.4 5.41863 7.66863 5.15 8 5.15V5V4.85C7.50294 4.85 7.1 5.25294 7.1 5.75H7.25Z" fill="#EB477E"/>
</svg>
