<svg width="20" height="20" viewBox="0 0 20 20" fill="none" xmlns="http://www.w3.org/2000/svg">
<path fill-rule="evenodd" clip-rule="evenodd" d="M7.8125 6.33138C8.11242 6.16268 8.49388 6.26204 8.66895 6.56185C8.83768 6.86182 8.73742 7.24327 8.4375 7.4183C7.47501 7.96829 6.87502 9.00601 6.875 10.1185C6.875 11.231 7.475 12.2687 8.4375 12.8187C8.73745 12.9937 8.83768 13.3752 8.66895 13.6751C8.55018 13.875 8.34369 13.9876 8.125 13.9876C8.01875 13.9876 7.9125 13.9619 7.8125 13.9056C6.46261 13.1243 5.625 11.6747 5.625 10.1185C5.62502 8.56232 6.4626 7.11265 7.8125 6.33138ZM11.3311 6.56185C11.5061 6.26205 11.8876 6.16268 12.1875 6.33138C13.5374 7.11265 14.375 8.56232 14.375 10.1185C14.375 11.6747 13.5374 13.1243 12.1875 13.9056C12.0875 13.9618 11.9812 13.9876 11.875 13.9876C11.6563 13.9876 11.4498 13.875 11.3311 13.6751C11.1561 13.3752 11.2625 12.9937 11.5625 12.8187C12.525 12.2687 13.125 11.231 13.125 10.1185C13.125 9.00601 12.525 7.96829 11.5625 7.4183C11.2626 7.24327 11.1623 6.86182 11.3311 6.56185Z" fill="#25C2C7"/>
</svg>
