<svg width="42" height="35" viewBox="0 0 42 35" fill="none" xmlns="http://www.w3.org/2000/svg">
<path d="M40.25 7.00003H21.7175L15.2425 0.507529C15.079 0.345337 14.8851 0.217018 14.6718 0.12993C14.4586 0.0428415 14.2303 -0.00130231 14 2.925e-05H1.75C1.28587 2.925e-05 0.840752 0.184404 0.512563 0.512593C0.184375 0.840781 0 1.2859 0 1.75003V33.25C0 33.7142 0.184375 34.1593 0.512563 34.4875C0.840752 34.8157 1.28587 35 1.75 35H40.25C40.7141 35 41.1592 34.8157 41.4874 34.4875C41.8156 34.1593 42 33.7142 42 33.25V8.75003C42 8.2859 41.8156 7.84078 41.4874 7.51259C41.1592 7.1844 40.7141 7.00003 40.25 7.00003ZM3.5 3.50003H13.2825L16.7825 7.00003H3.5V3.50003ZM38.5 31.5H3.5V10.5H38.5V31.5Z" fill="#FF8878"/>
</svg>
