<svg width="14" height="14" viewBox="0 0 14 14" fill="none" xmlns="http://www.w3.org/2000/svg">
<path d="M5.63443 0.134434C6.99216 -0.135614 8.39941 0.0031733 9.67838 0.532871C10.9574 1.06267 12.0508 1.95991 12.82 3.111C13.5891 4.26206 13.9996 5.61531 13.9997 6.99967C13.9997 8.85618 13.2626 10.6371 11.9499 11.9499C10.6371 13.2626 8.85618 13.9997 6.99967 13.9997C5.6153 13.9996 4.26206 13.5891 3.111 12.82C1.95991 12.0508 1.06267 10.9574 0.532872 9.67838C0.00317454 8.39941 -0.135615 6.99216 0.134435 5.63443C0.404531 4.27657 1.07148 3.02942 2.05045 2.05045C3.02942 1.07148 4.27657 0.40453 5.63443 0.134434ZM5.49967 5.49967C5.36717 5.49975 5.23985 5.55246 5.14615 5.64615C5.05246 5.73985 4.99975 5.86717 4.99967 5.99967C4.99967 6.13214 5.05257 6.25944 5.14615 6.35318C5.23985 6.44688 5.36717 6.49959 5.49967 6.49967H6.49967V9.49967H4.99967C4.86717 9.49975 4.73985 9.55246 4.64615 9.64615C4.55246 9.73985 4.49975 9.86717 4.49967 9.99967C4.49967 10.1321 4.55257 10.2594 4.64615 10.3532C4.73985 10.4469 4.86717 10.4996 4.99967 10.4997H8.99967C9.13228 10.4997 9.25942 10.447 9.35318 10.3532C9.44695 10.2594 9.49967 10.1323 9.49967 9.99967C9.49959 9.86717 9.44688 9.73985 9.35318 9.64615C9.25945 9.55257 9.13214 9.49967 8.99967 9.49967H7.49967V5.99967C7.49959 5.86717 7.44688 5.73985 7.35318 5.64615C7.25945 5.55257 7.13214 5.49967 6.99967 5.49967H5.49967ZM6.74967 2.99967C6.33569 2.99983 5.99983 3.33569 5.99967 3.74967C5.99967 4.16378 6.33559 4.49951 6.74967 4.49967C7.16388 4.49967 7.49967 4.16388 7.49967 3.74967C7.49951 3.33559 7.16378 2.99967 6.74967 2.99967Z" fill="currentColor"/>
</svg>
