<svg width="15" height="15" viewBox="0 0 15 15" fill="none" xmlns="http://www.w3.org/2000/svg">
<path d="M6.16309 0.633789C7.52095 0.363693 8.92892 0.502413 10.208 1.03223C11.487 1.56204 12.5805 2.45927 13.3496 3.61035C14.1188 4.7615 14.5293 6.11553 14.5293 7.5C14.5292 9.3564 13.7912 11.1365 12.4785 12.4492C11.1658 13.7619 9.38569 14.4999 7.5293 14.5C6.14483 14.5 4.79079 14.0895 3.63965 13.3203C2.48857 12.5512 1.59133 11.4577 1.06152 10.1787C0.53171 8.89963 0.392989 7.49166 0.663086 6.13379C0.933204 4.77599 1.60017 3.52873 2.5791 2.5498C3.55803 1.57088 4.80528 0.903907 6.16309 0.633789ZM7.5293 1.5C6.34261 1.5 5.18201 1.85145 4.19531 2.51074C3.20875 3.16997 2.43947 4.10692 1.98535 5.20312C1.53126 6.29941 1.41308 7.50611 1.64453 8.66992C1.87603 9.83373 2.4471 10.9031 3.28613 11.7422C4.12525 12.5813 5.19451 13.1533 6.3584 13.3848C7.52227 13.6163 8.72885 13.4971 9.8252 13.043C10.9215 12.5888 11.8583 11.8197 12.5176 10.833C13.1768 9.8464 13.5292 8.68657 13.5293 7.5C13.5293 5.9087 12.8967 4.38205 11.7715 3.25684C10.6464 2.13179 9.1204 1.50009 7.5293 1.5ZM7.5293 6C7.66178 6.00009 7.78912 6.05279 7.88281 6.14648C7.97637 6.24022 8.0293 6.36755 8.0293 6.5V10H9.5293C9.66179 10.0001 9.78912 10.0528 9.88281 10.1465C9.97637 10.2402 10.0293 10.3675 10.0293 10.5C10.0292 10.6325 9.9765 10.7598 9.88281 10.8535C9.78912 10.9472 9.66179 10.9999 9.5293 11H5.5293C5.39685 11 5.26952 10.9471 5.17578 10.8535C5.08209 10.7598 5.02939 10.6325 5.0293 10.5C5.0293 10.3674 5.08201 10.2403 5.17578 10.1465C5.26955 10.0527 5.39669 10 5.5293 10H7.0293V7H6.0293C5.89685 7 5.76952 6.94708 5.67578 6.85352C5.58209 6.75983 5.52939 6.63249 5.5293 6.5C5.5293 6.36739 5.58201 6.24025 5.67578 6.14648C5.76955 6.05272 5.89669 6 6.0293 6H7.5293ZM7.2793 3.5C7.69336 3.50018 8.0293 3.8359 8.0293 4.25C8.02912 4.66395 7.69325 4.99982 7.2793 5C6.86519 5 6.52948 4.66406 6.5293 4.25C6.5293 3.83579 6.86508 3.5 7.2793 3.5Z" fill="currentColor"/>
</svg>
