<svg width="234" height="247" viewBox="0 0 234 247" fill="none" xmlns="http://www.w3.org/2000/svg">
<rect width="234" height="247" rx="8" fill="#171E21"/>
<path d="M97.6362 54.8149C97.3579 55.292 97.5192 55.9043 97.9962 56.1825L105.771 60.7164C106.248 60.9946 106.86 60.8334 107.138 60.3563C107.417 59.8792 107.255 59.2669 106.778 58.9887L99.8676 54.9586L103.898 48.0479C104.176 47.5708 104.015 46.9585 103.538 46.6802C103.061 46.402 102.448 46.5632 102.17 47.0403L97.6362 54.8149ZM98.5 55.3187L98.7546 56.2857C104.418 54.7945 110.366 54 116.5 54V53V52C110.192 52 104.074 52.8171 98.2454 54.3516L98.5 55.3187ZM187 123.5H186C186 132.554 184.269 141.201 181.121 149.131L182.051 149.5L182.98 149.869C186.22 141.708 188 132.811 188 123.5H187ZM116.5 53V54C154.884 54 186 85.1162 186 123.5H187H188C188 84.0116 155.988 52 116.5 52V53Z" fill="#8BF4EE"/>
<path d="M138.364 192.685C138.642 192.208 138.481 191.596 138.004 191.317L130.229 186.784C129.752 186.505 129.14 186.667 128.862 187.144C128.583 187.621 128.745 188.233 129.222 188.511L136.132 192.541L132.102 199.452C131.824 199.929 131.985 200.542 132.462 200.82C132.939 201.098 133.552 200.937 133.83 200.46L138.364 192.685ZM49 124H50C50 117.15 50.9908 110.533 52.8362 104.283L51.8771 104L50.9181 103.717C49.0189 110.148 48 116.956 48 124H49ZM119.5 194.5V193.5C81.1162 193.5 50 162.384 50 124H49H48C48 163.488 80.0116 195.5 119.5 195.5V194.5ZM137.5 192.181L137.245 191.214C131.582 192.705 125.634 193.5 119.5 193.5V194.5V195.5C125.808 195.5 131.926 194.683 137.755 193.148L137.5 192.181Z" fill="#8BF4EE"/>
<path d="M89.9301 49H50.8915C48.7423 49 47 50.7425 47 52.8919V91.9345C47 94.0839 48.7423 95.8264 50.8915 95.8264H89.9301C92.0793 95.8264 93.8216 94.0839 93.8216 91.9345V52.8919C93.8216 50.7425 92.0793 49 89.9301 49Z" fill="#192124" stroke="#22292A" stroke-width="0.79" stroke-miterlimit="10"/>
<path d="M78.0205 65C81.8691 65 85 68.1401 85 72C85 75.8599 81.8691 79 78.0205 79C74.6613 79 71.8232 77.2576 70 74.0859C68.1768 77.2576 65.3387 79 61.9795 79C58.1309 79 55 75.8599 55 72C55 68.1401 58.1309 65 61.9795 65C65.3387 65 68.1768 66.7424 70 69.9141C71.8232 66.7424 74.6613 65 78.0205 65ZM61.9795 67C59.2339 67 57 69.2432 57 72C57 74.7568 59.2339 77 61.9795 77C64.7022 77 66.918 75.5718 68.3887 72.8691L68.8613 72L68.3887 71.1309C66.918 68.4282 64.7022 67 61.9795 67ZM78.0205 67C75.2978 67 73.082 68.4282 71.6113 71.1309L71.1387 72L71.6113 72.8691C73.082 75.5718 75.2978 77 78.0205 77C80.7661 77 83 74.7568 83 72C83 69.2432 80.7661 67 78.0205 67ZM78.2529 71.2891H79.7812V72.75H78.2529V74.2881H76.793V72.75H75.2627V71.2891H76.793V69.751H78.2529V71.2891ZM64.6943 72.75H60.1738V71.2891H64.6943V72.75Z" fill="#008184"/>
<path d="M183.93 152H144.892C142.742 152 141 153.742 141 155.892V194.934C141 197.084 142.742 198.826 144.892 198.826H183.93C186.079 198.826 187.822 197.084 187.822 194.934V155.892C187.822 153.742 186.079 152 183.93 152Z" fill="#192124" stroke="#22292A" stroke-width="0.79" stroke-miterlimit="10"/>
<path d="M156.911 182.879C156.85 182.879 156.47 183.329 156.373 183.391C156.161 183.532 155.923 183.638 155.676 183.699C155.182 183.832 154.643 183.805 154.167 183.629C152.949 183.188 152.376 181.74 152.72 180.523C152.94 179.755 153.532 179.058 154.326 178.855C155.288 178.608 156.452 178.961 156.911 179.773H174.992L176.192 182.87C176.192 182.87 156.92 182.87 156.902 182.87L156.911 182.879Z" fill="#F8572E"/>
<path d="M156.964 171.176C155.782 172.553 152.94 172.067 152.667 170.082C152.287 167.346 155.19 166.023 157.061 167.973H170.633L171.842 171.176H156.964Z" fill="#3DBFCE"/>
<path d="M154.873 173.789H163.891C165.691 174.248 165.63 176.816 163.803 177.169L155.041 177.151C154.008 177.151 153.17 176.26 153.293 175.236C153.355 174.733 153.629 174.257 154.132 173.974C154.361 173.842 154.617 173.789 154.882 173.789H154.873Z" fill="#A3D00B"/>
<path d="M174.021 177.178H168.444C167.306 177.178 166.423 176.136 166.679 175.025C166.785 174.566 167.076 174.151 167.544 173.921C167.782 173.807 168.047 173.754 168.303 173.763L172.777 173.816L174.021 177.178Z" fill="#FDBA09"/>
</svg>
