<svg width="16" height="16" viewBox="0 0 16 16" fill="none" xmlns="http://www.w3.org/2000/svg">
<path d="M12 2C13.6543 2 15 3.34571 15 5V8C15 9.65429 13.6543 11 12 11H8.5V13H11C11.2764 13 11.5 13.2236 11.5 13.5C11.5 13.7764 11.2764 14 11 14H5C4.72363 14 4.5 13.7764 4.5 13.5C4.5 13.2236 4.72363 13 5 13H7.5V11H4C2.34571 11 1 9.65429 1 8V5C1 3.34571 2.34571 2 4 2H12ZM4 3C2.89698 3 2 3.89746 2 5V8C2 9.10254 2.89698 10 4 10H12C13.103 10 14 9.10254 14 8V5C14 3.89746 13.103 3 12 3H4ZM8 4C9.37842 4 10.5 5.12158 10.5 6.5C10.5 7.87842 9.37842 9 8 9C6.62158 9 5.5 7.87842 5.5 6.5C5.5 5.12158 6.62158 4 8 4ZM8 5C7.17285 5 6.5 5.67285 6.5 6.5C6.5 7.32715 7.17285 8 8 8C8.82715 8 9.5 7.32715 9.5 6.5C9.5 5.67285 8.82715 5 8 5ZM12 4.5C12.2761 4.5 12.5 4.72386 12.5 5C12.5 5.27614 12.2761 5.5 12 5.5C11.7239 5.5 11.5 5.27614 11.5 5C11.5 4.72386 11.7239 4.5 12 4.5Z" fill="white"/>
</svg>
