<svg width="16" height="16" viewBox="0 0 16 16" fill="none" xmlns="http://www.w3.org/2000/svg">
<path d="M14.5 1.50049C14.6325 1.50088 14.7598 1.55427 14.8535 1.64795C14.9469 1.74154 14.9995 1.86826 15 2.00049V11.0005C14.9996 11.1329 14.9471 11.2603 14.8535 11.354C14.7598 11.4477 14.6325 11.5001 14.5 11.5005H10.5V13.5005H11C11.1326 13.5005 11.2598 13.5533 11.3535 13.647C11.4472 13.7407 11.4999 13.868 11.5 14.0005C11.5 14.133 11.4472 14.2602 11.3535 14.354C11.2597 14.4478 11.1326 14.5005 11 14.5005H5C4.86739 14.5005 4.74025 14.4478 4.64648 14.354C4.55279 14.2602 4.5 14.133 4.5 14.0005C4.50006 13.868 4.55277 13.7407 4.64648 13.647C4.74024 13.5533 4.86745 13.5005 5 13.5005H5.5V11.5005H1.5C1.36751 11.5001 1.24017 11.4477 1.14648 11.354C1.05288 11.2603 1.0004 11.1329 1 11.0005V2.00049C1.00046 1.86826 1.05309 1.74154 1.14648 1.64795C1.24017 1.55427 1.36751 1.50088 1.5 1.50049H14.5ZM6.5 13.5005H9.5V11.5005H6.5V13.5005ZM2 10.5005H14V2.50049H2V10.5005ZM7 4.99756C7.0661 4.99742 7.13226 5.01041 7.19336 5.03564C7.25427 5.06086 7.30982 5.09744 7.35645 5.14404C7.40312 5.19071 7.44059 5.24614 7.46582 5.30713C7.49105 5.36823 7.50404 5.43439 7.50391 5.50049C7.50374 5.56652 7.4903 5.63195 7.46484 5.69287C7.43938 5.75381 7.40235 5.80943 7.35547 5.85596L4.85547 8.35596C4.76068 8.4489 4.63275 8.50049 4.5 8.50049C4.36725 8.50049 4.23932 8.4489 4.14453 8.35596C4.05091 8.26157 3.99902 8.13344 3.99902 8.00049C3.99908 7.86775 4.05113 7.74031 4.14453 7.646L6.64453 5.146C6.69105 5.09909 6.74667 5.06113 6.80762 5.03564C6.86848 5.01022 6.93404 4.99775 7 4.99756ZM4.49805 4.00635C4.62915 4.00749 4.75495 4.06013 4.84766 4.15283C4.94013 4.24544 4.99293 4.3706 4.99414 4.50146C4.99528 4.63246 4.94445 4.75875 4.85352 4.85303L3.85352 5.85303C3.80715 5.89953 3.75207 5.93726 3.69141 5.9624C3.63077 5.98751 3.56563 5.99959 3.5 5.99951C3.40121 5.99949 3.30482 5.97038 3.22266 5.91553C3.14045 5.86059 3.07592 5.78227 3.03809 5.69092C3.00041 5.59977 2.9906 5.49958 3.00977 5.40283C3.02905 5.30586 3.07658 5.21592 3.14648 5.146L4.14648 4.146C4.24073 4.05509 4.36711 4.00525 4.49805 4.00635Z" fill="white"/>
</svg>
