<svg width="12" height="15" viewBox="0 0 12 15" fill="none" xmlns="http://www.w3.org/2000/svg">
<path d="M11.5 0C11.7764 0 12 0.223635 12 0.5V14.5C12 14.7764 11.7764 15 11.5 15H0.5C0.223635 15 0 14.7764 0 14.5V8C0 7.86719 0.0527344 7.74023 0.146484 7.64648L2 5.79297V0.5C2 0.223635 2.22363 0 2.5 0H11.5ZM3 6C3 6.13281 2.94727 6.25977 2.85352 6.35352L1 8.20703V14H11V1H3V6ZM5 2C5.27637 2 5.5 2.22363 5.5 2.5V4C5.5 4.27637 5.27637 4.5 5 4.5C4.72363 4.5 4.5 4.27637 4.5 4V2.5C4.5 2.22363 4.72363 2 5 2ZM7 2C7.27637 2 7.5 2.22363 7.5 2.5V4C7.5 4.27637 7.27637 4.5 7 4.5C6.72363 4.5 6.5 4.27637 6.5 4V2.5C6.5 2.22363 6.72363 2 7 2ZM9 2C9.27637 2 9.5 2.22363 9.5 2.5V4C9.5 4.27637 9.27637 4.5 9 4.5C8.72363 4.5 8.5 4.27637 8.5 4V2.5C8.5 2.22363 8.72363 2 9 2Z" fill="currentColor"/>
</svg>
