<svg width="11" height="11" viewBox="0 0 11 11" fill="none" xmlns="http://www.w3.org/2000/svg">
<g id="Icon">
<path id="Vector" d="M4 6.5C4.27614 6.5 4.5 6.72386 4.5 7V10.5C4.5 10.7761 4.27614 11 4 11H0.5C0.223858 11 0 10.7761 0 10.5V7C0 6.72386 0.223858 6.5 0.5 6.5H4ZM9.5 6.5C9.77614 6.5 10 6.72386 10 7V10.5C10 10.7761 9.77614 11 9.5 11H6C5.72386 11 5.5 10.7761 5.5 10.5V7C5.5 6.72386 5.72386 6.5 6 6.5H9.5ZM7.39648 0.896482C7.59179 0.701173 7.90821 0.701172 8.10352 0.896482L10.1035 2.89648C10.2988 3.09179 10.2988 3.4082 10.1035 3.60351L8.10352 5.60351C8.00586 5.70117 7.87793 5.75 7.75 5.75C7.62207 5.75 7.49414 5.70117 7.39648 5.60351L5.39648 3.60351C5.20117 3.4082 5.20117 3.09179 5.39648 2.89648L7.39648 0.896482ZM4 0.999998C4.27614 0.999998 4.5 1.22386 4.5 1.5V5C4.5 5.27614 4.27614 5.5 4 5.5H0.5C0.223858 5.5 0 5.27614 0 5V1.5C0 1.22386 0.223858 0.999998 0.5 0.999998H4Z" fill="currentColor"/>
</g>
</svg>
