<svg width="12" height="12" viewBox="0 0 12 12" fill="none" xmlns="http://www.w3.org/2000/svg">
<g clip-path="url(#clip0_1542_25526)">
<path d="M9.64132 5.51623C9.60646 5.55138 9.56498 5.57927 9.51929 5.59831C9.47359 5.61735 9.42457 5.62715 9.37507 5.62715C9.32556 5.62715 9.27655 5.61735 9.23085 5.59831C9.18516 5.57927 9.14368 5.55138 9.10882 5.51623L6.37507 2.77873V10.125C6.37507 10.2244 6.33556 10.3198 6.26523 10.3901C6.19491 10.4605 6.09953 10.5 6.00007 10.5C5.90061 10.5 5.80523 10.4605 5.7349 10.3901C5.66458 10.3198 5.62507 10.2244 5.62507 10.125V2.77873L2.89132 5.51623C2.82071 5.58684 2.72493 5.62651 2.62507 5.62651C2.52521 5.62651 2.42943 5.58684 2.35882 5.51623C2.28821 5.44561 2.24854 5.34984 2.24854 5.24998C2.24854 5.15011 2.28821 5.05434 2.35882 4.98373L5.73382 1.60873C5.76868 1.57358 5.81016 1.54568 5.85585 1.52664C5.90155 1.5076 5.95056 1.4978 6.00007 1.4978C6.04957 1.4978 6.09859 1.5076 6.14429 1.52664C6.18998 1.54568 6.23146 1.57358 6.26632 1.60873L9.64132 4.98373C9.67647 5.01859 9.70437 5.06006 9.7234 5.10576C9.74244 5.15146 9.75224 5.20047 9.75224 5.24998C9.75224 5.29948 9.74244 5.3485 9.7234 5.39419C9.70437 5.43989 9.67647 5.48137 9.64132 5.51623Z" fill="currentColor"/>
</g>
<defs>
<clipPath id="clip0_1542_25526">
<rect width="12" height="12" fill="currentColor"/>
</clipPath>
</defs>
</svg>
