<svg width="16" height="16" viewBox="0 0 16 16" fill="none" xmlns="http://www.w3.org/2000/svg">
<path fill-rule="evenodd" clip-rule="evenodd" d="M7 8.5C7.27636 8.5 7.5 8.72387 7.5 9V12.5C7.5 12.7761 7.27636 13 7 13H3.5C3.22364 13 3 12.7761 3 12.5V9C3 8.72387 3.22363 8.5 3.5 8.5H7ZM12.5 8.5C12.7764 8.5 13 8.72387 13 9V12.5C13 12.7761 12.7764 13 12.5 13H9C8.72364 13 8.5 12.7761 8.5 12.5V9C8.5 8.72387 8.72364 8.5 9 8.5H12.5ZM4 12H6.5V9.5H4V12ZM9.5 12H12V9.5H9.5V12ZM10.3965 2.89648C10.5918 2.70117 10.9082 2.70117 11.1035 2.89648L13.1035 4.89648C13.2988 5.09179 13.2988 5.40821 13.1035 5.60351L11.1035 7.60351C11.0059 7.70117 10.8779 7.75 10.75 7.75C10.6221 7.75 10.4941 7.70117 10.3965 7.60351L8.39648 5.60351C8.20117 5.4082 8.20118 5.09179 8.39648 4.89648L10.3965 2.89648ZM7 3C7.27636 3 7.5 3.22387 7.5 3.5V7C7.5 7.27612 7.27636 7.5 7 7.5H3.5C3.22364 7.5 3 7.27612 3 7V3.5C3 3.22387 3.22363 3 3.5 3H7ZM9.45703 5.25L10.75 6.54297L12.043 5.25L10.75 3.95703L9.45703 5.25ZM4 6.5H6.5V4H4V6.5Z" fill="currentColor"/>
</svg>
