<svg width="12" height="12" viewBox="0 0 12 12" fill="none" xmlns="http://www.w3.org/2000/svg">
<g clip-path="url(#clip0_2003_38246)">
<path d="M7.98474 6.10962C8.13114 5.96322 8.36851 5.96338 8.51502 6.10962C8.6615 6.2561 8.6615 6.49341 8.51502 6.63989L6.26502 8.88989C6.19184 8.96307 6.09623 9.00018 6.00037 9.00024C5.90442 9.00024 5.80798 8.96313 5.73474 8.88989L3.48474 6.63989C3.3385 6.49339 3.33834 6.25602 3.48474 6.10962C3.63114 5.96322 3.86851 5.96338 4.01502 6.10962L6.00037 8.09497L7.98474 6.10962ZM7.98474 3.48462C8.13114 3.33822 8.36851 3.33838 8.51502 3.48462C8.6615 3.6311 8.6615 3.86841 8.51502 4.01489L6.26502 6.26489C6.19184 6.33807 6.09623 6.37518 6.00037 6.37524C5.90442 6.37524 5.80798 6.33813 5.73474 6.26489L3.48474 4.01489C3.3385 3.86839 3.33834 3.63102 3.48474 3.48462C3.63114 3.33822 3.86851 3.33838 4.01502 3.48462L6.00037 5.46997L7.98474 3.48462Z" fill="currentColor"/>
</g>
<defs>
<clipPath id="clip0_2003_38246">
<rect width="12" height="12" fill="currentColor"/>
</clipPath>
</defs>
</svg>
