<svg width="16" height="16" viewBox="0 0 16 16" fill="none" xmlns="http://www.w3.org/2000/svg">
<path d="M1.99902 10.998C1.99907 10.9322 2.01177 10.8665 2.03711 10.8057C2.06247 10.7449 2.09977 10.6899 2.14648 10.6436L5.14648 7.64355C5.19297 7.59669 5.24864 7.55956 5.30957 7.53418C5.37044 7.50885 5.43602 7.49512 5.50195 7.49512C5.5677 7.49517 5.63265 7.50894 5.69336 7.53418C5.75429 7.55956 5.80996 7.59669 5.85645 7.64355C5.90277 7.69027 5.93997 7.74574 5.96484 7.80664C5.9896 7.86736 6.00228 7.93248 6.00195 7.99805C6.00233 8.06382 5.9897 8.12954 5.96484 8.19043C5.93996 8.25135 5.90279 8.3068 5.85645 8.35352L3.70605 10.498H13.502C13.6344 10.4982 13.7618 10.5509 13.8555 10.6445C13.9491 10.7382 14.0019 10.8656 14.002 10.998C14.002 11.1305 13.949 11.2578 13.8555 11.3516C13.7618 11.4452 13.6344 11.4979 13.502 11.498H3.70605L5.85645 13.6436C5.95049 13.7376 6.00381 13.865 6.00391 13.998C6.00391 14.1312 5.9506 14.2594 5.85645 14.3535C5.7624 14.4475 5.63491 14.4999 5.50195 14.5C5.36882 14.5 5.24063 14.4476 5.14648 14.3535L2.14648 11.3535C2.09962 11.307 2.06249 11.2514 2.03711 11.1904C2.01178 11.1296 1.99902 11.064 1.99902 10.998ZM2.00195 4.99805C2.00205 4.86557 2.05475 4.73821 2.14844 4.64453C2.24217 4.55101 2.36953 4.49805 2.50195 4.49805H12.292L10.1465 2.35352C10.0523 2.25936 9.99902 2.1312 9.99902 1.99805C9.99912 1.86507 10.0525 1.73761 10.1465 1.64355C10.2406 1.5494 10.3688 1.49609 10.502 1.49609C10.635 1.49621 10.7624 1.5495 10.8564 1.64355L13.8564 4.64355C13.9028 4.69027 13.94 4.74574 13.9648 4.80664C13.9896 4.86736 14.0023 4.93248 14.002 4.99805C14.0023 5.06382 13.9897 5.12954 13.9648 5.19043C13.94 5.25135 13.9028 5.3068 13.8564 5.35352L10.8564 8.35352C10.7624 8.44751 10.6349 8.49989 10.502 8.5C10.3688 8.5 10.2406 8.44765 10.1465 8.35352C10.0523 8.25936 9.99902 8.1312 9.99902 7.99805C9.99912 7.86507 10.0525 7.73761 10.1465 7.64355L12.292 5.49805H2.50195C2.36936 5.49805 2.2422 5.44531 2.14844 5.35156C2.05467 5.25779 2.00195 5.13066 2.00195 4.99805Z" fill="currentColor"/>
</svg>
