<svg width="16" height="16" viewBox="0 0 16 16" fill="none" xmlns="http://www.w3.org/2000/svg">
<path d="M1.5 7.5C1.63261 7.5 1.75975 7.55272 1.85352 7.64648C1.94728 7.74025 2 7.86739 2 8C1.99977 9.15493 2.33254 10.2856 2.95898 11.2559C3.58536 12.226 4.47875 12.9946 5.53125 13.4697C6.58383 13.9448 7.7516 14.1065 8.89355 13.9346C10.0355 13.7625 11.1038 13.2641 11.9697 12.5H9.5C9.36739 12.5 9.24025 12.4473 9.14648 12.3535C9.05272 12.2597 9 12.1326 9 12C9 11.8674 9.05272 11.7403 9.14648 11.6465C9.24025 11.5527 9.36739 11.5 9.5 11.5H13C13.1326 11.5 13.2597 11.5527 13.3535 11.6465C13.4473 11.7403 13.5 11.8674 13.5 12V15.5C13.5 15.6326 13.4473 15.7597 13.3535 15.8535C13.2597 15.9473 13.1326 16 13 16C12.8674 16 12.7403 15.9473 12.6465 15.8535C12.5527 15.7597 12.5 15.6326 12.5 15.5V13.3604C11.4795 14.2167 10.2358 14.7643 8.91504 14.9385C7.59413 15.1126 6.25059 14.9056 5.04297 14.3428C3.83532 13.7799 2.81282 12.8843 2.09668 11.7607C1.38056 10.6372 1.00036 9.33236 1 8C1 7.86739 1.05272 7.74025 1.14648 7.64648C1.24025 7.55272 1.36739 7.5 1.5 7.5ZM3 0C3.13261 0 3.25975 0.0527162 3.35352 0.146484C3.44728 0.240253 3.5 0.367392 3.5 0.5V2.63965C4.75716 1.57524 6.35276 0.994033 8 1C9.85652 1 11.6374 1.73705 12.9502 3.0498C14.2629 4.36256 15 6.14348 15 8C15 8.13261 14.9473 8.25975 14.8535 8.35352C14.7597 8.44728 14.6326 8.5 14.5 8.5C14.3674 8.5 14.2403 8.44728 14.1465 8.35352C14.0527 8.25975 14 8.13261 14 8C14.0002 6.84507 13.6675 5.71441 13.041 4.74414C12.4146 3.77399 11.5212 3.00542 10.4688 2.53027C9.41617 2.05519 8.2484 1.89345 7.10645 2.06543C5.96446 2.23748 4.89622 2.73589 4.03027 3.5H6.5C6.63261 3.5 6.75975 3.55272 6.85352 3.64648C6.94728 3.74025 7 3.86739 7 4C7 4.13261 6.94728 4.25975 6.85352 4.35352C6.75975 4.44728 6.63261 4.5 6.5 4.5H3C2.86739 4.5 2.74025 4.44728 2.64648 4.35352C2.55272 4.25975 2.5 4.13261 2.5 4V0.5C2.5 0.367392 2.55272 0.240253 2.64648 0.146484C2.74025 0.0527162 2.86739 0 3 0Z" fill="currentColor"/>
</svg>
