<svg width="16" height="16" viewBox="0 0 16 16" fill="none" xmlns="http://www.w3.org/2000/svg">
<g clip-path="url(#clip0_2033_9788)">
<path d="M3.33333 1C2.44928 1 1.60143 1.35119 0.976311 1.97631C0.351189 2.60143 0 3.44928 0 4.33333V11C0 11.8841 0.351189 12.7319 0.976311 13.357C1.60143 13.9821 2.44928 14.3333 3.33333 14.3333H12.6667C13.5507 14.3333 14.3986 13.9821 15.0237 13.357C15.6488 12.7319 16 11.8841 16 11V4.33333C16 3.44928 15.6488 2.60143 15.0237 1.97631C14.3986 1.35119 13.5507 1 12.6667 1H3.33333ZM6.66667 2.33333H12.6667C13.1971 2.33333 13.7058 2.54405 14.0809 2.91912C14.456 3.29419 14.6667 3.8029 14.6667 4.33333V11C14.6667 11.5304 14.456 12.0391 14.0809 12.4142C13.7058 12.7893 13.1971 13 12.6667 13H6.66667V2.33333Z" fill="currentColor"/>
</g>
<defs>
<clipPath id="clip0_2033_9788">
<rect width="16" height="16" fill="currentColor"/>
</clipPath>
</defs>
</svg>
