<svg width="16" height="16" viewBox="0 0 16 16" fill="none" xmlns="http://www.w3.org/2000/svg">
<path d="M10.0002 10C10.0989 10.0005 10.1957 10.0298 10.2775 10.085C10.3592 10.1401 10.4226 10.2185 10.4601 10.3096C10.4984 10.4006 10.5091 10.5016 10.4904 10.5986C10.4717 10.6955 10.424 10.7842 10.3547 10.8545L8.35468 12.8545C8.3082 12.9014 8.2535 12.9395 8.19257 12.9648C8.13167 12.9902 8.06616 13.0029 8.00019 13.0029C7.93422 13.0029 7.8687 12.9902 7.80781 12.9648C7.74688 12.9395 7.6912 12.9014 7.64472 12.8545L5.64472 10.8545C5.57564 10.7843 5.52864 10.6953 5.50995 10.5986C5.49127 10.5016 5.50194 10.4006 5.54023 10.3096C5.57774 10.2184 5.64114 10.1401 5.72285 10.085C5.80471 10.0298 5.90148 10.0005 6.00019 10H10.0002ZM8.00019 2.99707C8.06618 2.99707 8.13166 3.00978 8.19257 3.03516C8.25331 3.06046 8.30829 3.09787 8.35468 3.14453L10.3547 5.14453C10.424 5.21481 10.4717 5.30442 10.4904 5.40137C10.5091 5.49822 10.4983 5.59851 10.4601 5.68945C10.4227 5.78073 10.3593 5.85988 10.2775 5.91504C10.1957 5.9702 10.0989 5.9995 10.0002 6H6.00019C5.90148 5.99951 5.80471 5.97021 5.72285 5.91504C5.64101 5.85987 5.57773 5.78075 5.54023 5.68945C5.50207 5.5985 5.49129 5.49822 5.50995 5.40137C5.52866 5.30443 5.57538 5.21481 5.64472 5.14453L7.64472 3.14453C7.6912 3.09767 7.74688 3.06054 7.80781 3.03516C7.86872 3.00979 7.93421 2.99707 8.00019 2.99707Z" fill="currentColor"/>
</svg>
