<svg width="12" height="13" viewBox="0 0 12 13" fill="none" xmlns="http://www.w3.org/2000/svg">
<path d="M4 13.0007C3.89518 13.001 3.79292 12.9683 3.70769 12.9073C3.62245 12.8462 3.55854 12.76 3.525 12.6607L2.14 8.50068H0.5C0.367392 8.50068 0.240215 8.448 0.146447 8.35423C0.0526785 8.26047 0 8.13329 0 8.00068C0 7.86807 0.0526785 7.74089 0.146447 7.64713C0.240215 7.55336 0.367392 7.50068 0.5 7.50068H2.5C2.60482 7.50041 2.70708 7.53309 2.79231 7.5941C2.87755 7.65511 2.94146 7.74137 2.975 7.84068L4 10.9207L7.525 0.34068C7.55979 0.23719 7.6275 0.147931 7.71778 0.086537C7.80807 0.0251432 7.91597 -0.00501104 8.025 0.000679979C8.13505 0.00731281 8.23982 0.0501304 8.32301 0.122471C8.4062 0.194813 8.46315 0.292621 8.485 0.40068L9.91 7.50068H11.5C11.6326 7.50068 11.7598 7.55336 11.8536 7.64713C11.9473 7.74089 12 7.86807 12 8.00068C12 8.13329 11.9473 8.26047 11.8536 8.35423C11.7598 8.448 11.6326 8.50068 11.5 8.50068H9.5C9.38303 8.50304 9.26893 8.4643 9.17757 8.39122C9.08621 8.31813 9.02338 8.21532 9 8.10068L7.88 2.44568L4.5 12.6607C4.46521 12.7642 4.3975 12.8534 4.30722 12.9148C4.21693 12.9762 4.10903 13.0064 4 13.0007Z" fill="white"/>
</svg>
