<svg width="17" height="16" viewBox="0 0 17 16" fill="none" xmlns="http://www.w3.org/2000/svg">
<path d="M13 12C13.1326 12 13.2598 12.0528 13.3535 12.1465C13.4472 12.2402 13.4999 12.3675 13.5 12.5C13.5 12.6325 13.4472 12.7598 13.3535 12.8535C13.2598 12.9473 13.1326 13 13 13H8C7.86739 13 7.74025 12.9473 7.64648 12.8535C7.55276 12.7598 7.5 12.6326 7.5 12.5C7.50006 12.3675 7.55277 12.2402 7.64648 12.1465C7.74024 12.0528 7.86746 12 8 12H13ZM4.5 3.49805C4.56591 3.49805 4.63149 3.51091 4.69238 3.53613C4.75319 3.56135 4.80794 3.59897 4.85449 3.64551L7.85449 6.64551C7.90134 6.69197 7.93946 6.74672 7.96484 6.80762C7.9902 6.86849 8.00291 6.93406 8.00293 7C8.00293 7.06592 7.99016 7.13152 7.96484 7.19238C7.93946 7.25331 7.90136 7.30899 7.85449 7.35547L4.85449 10.3555C4.80785 10.4016 4.75217 10.4381 4.69141 10.4629C4.63061 10.4877 4.56566 10.5004 4.5 10.5C4.4342 10.5004 4.36854 10.4878 4.30762 10.4629C4.24685 10.438 4.19115 10.4017 4.14453 10.3555C4.0977 10.309 4.06053 10.2533 4.03516 10.1924C4.00983 10.1315 3.99707 10.0659 3.99707 10C3.99709 9.93406 4.0098 9.86849 4.03516 9.80762C4.06047 9.74689 4.09787 9.69188 4.14453 9.64551L6.79492 7L4.14453 4.35547C4.09796 4.30888 4.06135 4.25324 4.03613 4.19238C4.0109 4.13147 3.99805 4.06593 3.99805 4C3.99807 3.93413 4.01093 3.86847 4.03613 3.80762C4.06129 3.74702 4.09818 3.69195 4.14453 3.64551C4.19113 3.59891 4.24674 3.56136 4.30762 3.53613C4.36853 3.5109 4.43407 3.49805 4.5 3.49805Z" fill="currentColor"/>
</svg>
