<svg width="16" height="16" viewBox="0 0 16 16" fill="none" xmlns="http://www.w3.org/2000/svg">
<g clip-path="url(#clip0_1183_1869)">
<path d="M6.5 2C6.63261 2 6.75975 2.05272 6.85352 2.14648C6.94728 2.24025 7 2.36739 7 2.5C7 2.63261 6.94728 2.75975 6.85352 2.85352C6.75975 2.94728 6.63261 3 6.5 3H3V13H13V9.5C13 9.36739 13.0527 9.24025 13.1465 9.14648C13.2403 9.05272 13.3674 9 13.5 9C13.6326 9 13.7597 9.05272 13.8535 9.14648C13.9473 9.24025 14 9.36739 14 9.5V13.5C14 13.6326 13.9473 13.7597 13.8535 13.8535C13.7597 13.9473 13.6326 14 13.5 14H2.5C2.36739 14 2.24025 13.9473 2.14648 13.8535C2.05272 13.7597 2 13.6326 2 13.5V2.5C2 2.36739 2.05272 2.24025 2.14648 2.14648C2.24025 2.05272 2.36739 2 2.5 2H6.5ZM13.5 2C13.6326 2 13.7597 2.05272 13.8535 2.14648C13.9473 2.24025 14 2.36739 14 2.5V7C14 7.13261 13.9473 7.25975 13.8535 7.35352C13.7597 7.44728 13.6326 7.5 13.5 7.5C13.3674 7.5 13.2403 7.44728 13.1465 7.35352C13.0527 7.25975 13 7.13261 13 7V3.70996L8.35547 8.35547C8.30899 8.40233 8.25331 8.43946 8.19238 8.46484C8.13147 8.49021 8.06598 8.50293 8 8.50293C7.93402 8.50293 7.86853 8.49021 7.80762 8.46484C7.74669 8.43946 7.69101 8.40233 7.64453 8.35547C7.59767 8.30899 7.56054 8.25331 7.53516 8.19238C7.50979 8.13147 7.49707 8.06598 7.49707 8C7.49707 7.93402 7.50979 7.86853 7.53516 7.80762C7.56054 7.74669 7.59767 7.69101 7.64453 7.64453L12.29 3H9C8.86739 3 8.74025 2.94728 8.64648 2.85352C8.55272 2.75975 8.5 2.63261 8.5 2.5C8.5 2.36739 8.55272 2.24025 8.64648 2.14648C8.74025 2.05272 8.86739 2 9 2H13.5Z" fill="currentColor"/>
</g>
<defs>
<clipPath id="clip0_1183_1869">
<rect width="16" height="16" fill="currentColor"/>
</clipPath>
</defs>
</svg>

