<svg width="56" height="56" viewBox="0 0 56 56" fill="none" xmlns="http://www.w3.org/2000/svg">
  <path
    d="M17.5 31.4922C17.7308 31.4922 17.9597 31.5377 18.1729 31.626C18.3858 31.7142 18.5791 31.8439 18.7422 32.0068C18.9053 32.1699 19.0347 32.364 19.123 32.5771C19.2114 32.7903 19.2568 33.0192 19.2568 33.25C19.2568 33.4806 19.2113 33.7088 19.123 33.9219C19.0347 34.1351 18.9054 34.329 18.7422 34.4922L11.2178 42L14 44.7822L21.5078 37.2568C21.6708 37.0939 21.8642 36.9642 22.0771 36.876C22.2903 36.7877 22.5193 36.7422 22.75 36.7422C22.9808 36.7422 23.2097 36.7877 23.4229 36.876C23.6358 36.9642 23.8291 37.0939 23.9922 37.2568C24.1553 37.4199 24.2847 37.614 24.373 37.8271C24.4614 38.0403 24.5068 38.2692 24.5068 38.5C24.5068 38.7306 24.4613 38.9588 24.373 39.1719C24.2847 39.3851 24.1554 39.579 23.9922 39.7422L15.2422 48.4922C15.0787 48.6543 14.885 48.7831 14.6719 48.8701C14.4587 48.9572 14.2303 49.0013 14 49C13.7697 49.0013 13.5413 48.9572 13.3281 48.8701C13.115 48.7831 12.9213 48.6543 12.7578 48.4922L7.50781 43.2422C7.34379 43.0795 7.21287 42.8861 7.12402 42.6729C7.03523 42.4597 6.99028 42.2309 6.99023 42C6.99023 41.7692 7.03533 41.5402 7.12402 41.3271C7.21287 41.1139 7.34379 40.9195 7.50781 40.7568L16.2578 32.0068C16.4208 31.8439 16.6142 31.7142 16.8271 31.626C17.0403 31.5377 17.2693 31.4922 17.5 31.4922ZM19.25 5.25C19.4803 5.24867 19.7087 5.29279 19.9219 5.37988C20.1349 5.46691 20.3288 5.59484 20.4922 5.75684L25.7422 11.0068C25.9044 11.1704 26.033 11.3649 26.1201 11.5781C26.2071 11.7913 26.2513 12.0198 26.25 12.25V18.5322L48.4922 40.7568C48.6562 40.9195 48.7871 41.1139 48.876 41.3271C48.9647 41.5403 49.0098 41.7692 49.0098 42C49.0097 42.2309 48.9648 42.4597 48.876 42.6729C48.7871 42.8861 48.6562 43.0795 48.4922 43.2422L43.2422 48.4922C43.0787 48.6543 42.885 48.7831 42.6719 48.8701C42.4587 48.9572 42.2303 49.0013 42 49C41.7697 49.0013 41.5413 48.9572 41.3281 48.8701C41.115 48.7831 40.9213 48.6543 40.7578 48.4922L18.5322 26.25H12.25C12.0197 26.2513 11.7913 26.2072 11.5781 26.1201C11.365 26.0331 11.1713 25.9043 11.0078 25.7422L5.75781 20.4922C5.59569 20.3287 5.46697 20.135 5.37988 19.9219C5.29283 19.7088 5.24871 19.4802 5.25 19.25V12.25C5.25172 11.9045 5.35574 11.5668 5.54883 11.2803C5.7419 10.9938 6.01545 10.7709 6.33496 10.6396C6.65365 10.5056 7.00524 10.4688 7.34473 10.5342C7.68397 10.5996 7.9962 10.7643 8.24219 11.0068L12.9678 15.75H15.75V12.9668L11.0078 8.24219C10.765 7.9961 10.6006 7.68323 10.5352 7.34375C10.4699 7.00449 10.5058 6.65346 10.6396 6.33496C10.7709 6.01538 10.9947 5.74191 11.2812 5.54883C11.5677 5.35582 11.9046 5.25173 12.25 5.25H19.25ZM18.7422 11.0068C18.9044 11.1704 19.033 11.3649 19.1201 11.5781C19.2071 11.7913 19.2513 12.0198 19.25 12.25V17.5C19.2499 17.964 19.0654 18.4092 18.7373 18.7373C18.4091 19.0654 17.964 19.25 17.5 19.25H12.25C12.0197 19.2513 11.7913 19.2072 11.5781 19.1201C11.365 19.0331 11.1713 18.9043 11.0078 18.7422L8.75 16.4668V18.5322L12.9678 22.75H19.25C19.4803 22.7487 19.7087 22.7928 19.9219 22.8799C20.1349 22.9669 20.3288 23.0948 20.4922 23.2568L42 44.7822L44.7822 42L23.2578 20.4922C23.0957 20.3287 22.967 20.135 22.8799 19.9219C22.7928 19.7088 22.7487 19.4802 22.75 19.25V12.9668L18.5322 8.75H16.4678L18.7422 11.0068ZM27.3359 3.58789C27.6943 3.4325 28.0946 3.40174 28.4727 3.5L40.7227 7C41.0151 7.071 41.2815 7.2226 41.4922 7.4375L53.7422 19.6875C53.9062 19.8502 54.0371 20.0436 54.126 20.2568C54.2147 20.47 54.2598 20.6988 54.2598 20.9297C54.2598 21.1606 54.2148 21.3894 54.126 21.6025C54.0371 21.8158 53.9062 22.0092 53.7422 22.1719L49.3672 26.5469C49.2096 26.7218 49.0182 26.8637 48.8047 26.9629C48.5913 27.062 48.3601 27.1173 48.125 27.125C47.8947 27.1263 47.6663 27.0822 47.4531 26.9951C47.24 26.9081 47.0463 26.7793 46.8828 26.6172L42 21.7168L39.7422 23.9922C39.4127 24.3216 38.9659 24.5068 38.5 24.5068C38.0341 24.5068 37.5873 24.3216 37.2578 23.9922C36.9284 23.6627 36.7433 23.2159 36.7432 22.75C36.7432 22.284 36.9283 21.8364 37.2578 21.5068L40.7578 18.0068C40.9204 17.8429 41.114 17.7128 41.3271 17.624C41.5404 17.5352 41.769 17.4893 42 17.4893C42.2309 17.4893 42.4597 17.5352 42.6729 17.624C42.886 17.7128 43.0796 17.843 43.2422 18.0068L48.125 22.9072L50.0322 21L39.3398 10.3076L34.0898 8.78418L38.0625 12.7568C38.2264 12.9194 38.3565 13.1131 38.4453 13.3262C38.5342 13.5394 38.5801 13.769 38.5801 14C38.58 14.2309 38.5341 14.4597 38.4453 14.6729C38.3565 14.886 38.2265 15.0796 38.0625 15.2422L34.5625 18.7422C34.233 19.0716 33.7862 19.2568 33.3203 19.2568C32.8543 19.2568 32.4067 19.0717 32.0771 18.7422C31.7478 18.4128 31.5626 17.9658 31.5625 17.5C31.5625 17.034 31.7476 16.5864 32.0771 16.2568L34.2822 14L26.7578 6.49219C26.4826 6.21633 26.3073 5.85647 26.2598 5.46973C26.2122 5.08305 26.295 4.69169 26.4951 4.35742C26.6817 4.01436 26.9777 3.7433 27.3359 3.58789Z"
    fill="#AEB8B8" />
</svg>