<svg width="14" height="14" viewBox="0 0 14 14" fill="none" xmlns="http://www.w3.org/2000/svg">
<path d="M4.75 0C5.71485 0 6.5 0.785155 6.5 1.75V6.63672C5.70823 6.35782 4.79151 6.52703 4.15918 7.15918C3.96407 7.35426 3.96394 7.67097 4.15918 7.86621C4.35442 8.06143 4.67089 8.06131 4.86621 7.86621C5.31177 7.42023 6.01062 7.38757 6.5 7.75684V12.25C6.5 13.2148 5.71485 14 4.75 14C4.20411 13.9999 3.70144 13.7436 3.375 13.3301C4.32452 12.9722 5 12.0636 5 11C4.99999 10.7239 4.77636 10.5 4.5 10.5C4.22372 10.5001 4.00001 10.7239 4 11C4 11.791 3.38183 12.4485 2.59375 12.4971C2.58342 12.4975 2.57296 12.498 2.5625 12.499C2.54253 12.5014 2.51995 12.5 2.5 12.5C1.67293 12.4999 1 11.8271 1 11C1 10.5243 1.2189 10.0869 1.60059 9.7998C1.75239 9.68583 1.82608 9.49603 1.79199 9.30957C1.75784 9.12343 1.62138 8.97252 1.43945 8.91992C0.592283 8.67578 0 7.88598 0 7C1.64084e-06 6.3017 0.360839 5.66607 0.939453 5.30371C1.45707 5.75988 2.10055 5.99898 2.75 5.99902C3.45459 5.99902 4.15918 5.73047 4.69531 5.19434C4.89034 4.99926 4.8905 4.68252 4.69531 4.4873C4.50009 4.29209 4.18361 4.29227 3.98828 4.4873C3.30615 5.16919 2.1958 5.17016 1.5127 4.4873C1.47616 4.45075 1.44183 4.41301 1.40918 4.37402L1.40723 4.37207C1.14458 4.06178 1 3.66329 1 3.25C1 2.32208 1.72616 1.55502 2.65234 1.50391C2.854 1.49267 3.02929 1.36133 3.09668 1.1709C3.34328 0.470605 4.00794 7.7405e-05 4.75 0ZM9.5 9.5C9.63277 9.5 9.75977 9.55279 9.85352 9.64648L10.8574 10.6504C11.0529 10.557 11.269 10.5 11.5 10.5C12.3285 10.5 13 11.1716 13 12C13 12.8284 12.3285 13.5 11.5 13.5C10.6718 13.4998 10 12.8283 10 12C10 11.769 10.0571 11.5529 10.1504 11.3574L9.29297 10.5H7.5V9.5H9.5ZM12.5 5.5C13.3285 5.5 14 6.17157 14 7C14 7.82843 13.3285 8.5 12.5 8.5C11.848 8.49987 11.2984 8.08118 11.0918 7.5H7.5V6.5H11.0918C11.2984 5.91882 11.848 5.50013 12.5 5.5ZM11.5 0.5C12.3285 0.5 13 1.17157 13 2C13 2.82843 12.3285 3.5 11.5 3.5C11.269 3.49995 11.0529 3.44298 10.8574 3.34961L9.85352 4.35352C9.75977 4.44721 9.63277 4.5 9.5 4.5H7.5V3.5H9.29297L10.1504 2.64258C10.0571 2.44714 10 2.23103 10 2C10 1.17167 10.6718 0.500164 11.5 0.5Z" fill="white"/>
</svg>
