<svg width="16" height="16" viewBox="0 0 16 16" fill="none" xmlns="http://www.w3.org/2000/svg">
<path d="M15.4011 7.20166C15.3064 7.0747 15.158 7 14.9998 7H13.9998V5.5C13.9998 5.22363 13.7761 5 13.4998 5H12.4998C12.2234 5 11.9998 5.22363 11.9998 5.5C11.9998 5.77636 12.2234 6 12.4998 6H12.9998V7H10.9998V2.70703L12.1462 3.85351C12.2439 3.95117 12.3718 4 12.4998 4C12.6277 4 12.7556 3.95117 12.8533 3.85351C13.0486 3.6582 13.0486 3.34179 12.8533 3.14648L10.8533 1.14648C10.658 0.951173 10.3416 0.951173 10.1462 1.14648L8.14625 3.14648C7.95094 3.34179 7.95094 3.6582 8.14625 3.85351C8.34156 4.04882 8.65797 4.04882 8.85328 3.85351L9.99976 2.70703V7H3.99976C3.77905 7 3.58423 7.14502 3.52075 7.35644L2.99976 9.09314V4H5.29273L7.14624 5.85351C7.23999 5.94726 7.36695 6 7.49976 6H8.49976C8.77612 6 8.99976 5.77636 8.99976 5.5C8.99976 5.22363 8.77612 5 8.49976 5H7.70679L5.85327 3.14648C5.75952 3.05273 5.63257 3 5.49976 3H2.49976C2.22339 3 1.99976 3.22363 1.99976 3.5V12.5H2.01233C2.01233 12.6063 2.03351 12.7113 2.09839 12.7983C2.19312 12.9253 2.34156 13 2.49976 13H13.4998C13.7205 13 13.9153 12.855 13.9788 12.6436L15.4788 7.64355C15.5242 7.49219 15.4954 7.32812 15.4011 7.20166ZM13.1277 12H3.17163L4.37183 8H14.3279L13.1277 12Z" fill="white"/>
</svg>
